<svg width="146" height="55" viewBox="0 0 146 55" fill="none" xmlns="http://www.w3.org/2000/svg">
<rect width="146" height="55" rx="27.5" fill="#2C3036"/>
<g clip-path="url(#clip0_1_537)">
<path d="M75.7 30.2C73.5 32.47 73.34 35.3 73.15 41.5C78.93 41.5 82.92 41.48 84.98 39.48C86.98 37.42 87 33.24 87 27.65C80.8 27.85 77.97 28 75.7 30.2ZM59 27.65C59 33.24 59.02 37.42 61.02 39.48C63.08 41.48 67.07 41.5 72.85 41.5C72.65 35.3 72.5 32.47 70.3 30.2C68.03 28 65.2 27.84 59 27.65ZM72.85 13.5C67.08 13.5 63.08 13.52 61.02 15.52C59.02 17.58 59 21.76 59 27.35C65.2 27.15 68.03 27 70.3 24.8C72.5 22.53 72.66 19.7 72.85 13.5ZM75.7 24.8C73.5 22.53 73.34 19.7 73.15 13.5C78.93 13.5 82.92 13.52 84.98 15.52C86.98 17.58 87 21.76 87 27.35C80.8 27.15 77.97 27 75.7 24.8Z" fill="white"/>
<path d="M87 27.65V27.35C80.8 27.15 77.97 27 75.7 24.8C73.5 22.53 73.34 19.7 73.15 13.5H72.85C72.65 19.7 72.5 22.53 70.3 24.8C68.03 27 65.2 27.16 59 27.35V27.65C65.2 27.85 68.03 28 70.3 30.2C72.5 32.47 72.66 35.3 72.85 41.5H73.15C73.35 35.3 73.5 32.47 75.7 30.2C77.97 28 80.8 27.84 87 27.65Z" fill="#2C3036"/>
</g>
<defs>
<clipPath id="clip0_1_537">
<rect width="28" height="28" fill="white" transform="translate(59 13.5)"/>
</clipPath>
</defs>
</svg>
