<svg width="146" height="55" viewBox="0 0 146 55" fill="none" xmlns="http://www.w3.org/2000/svg">
<rect width="146" height="55" rx="27.5" fill="#5145A7"/>
<g clip-path="url(#clip0_1_528)">
<mask id="mask0_1_528" style="mask-type:luminance" maskUnits="userSpaceOnUse" x="55" y="9" width="36" height="37">
<path d="M82.2727 9.5H63.7273C58.9073 9.5 55 13.4073 55 18.2273V36.7727C55 41.5927 58.9073 45.5 63.7273 45.5H82.2727C87.0927 45.5 91 41.5927 91 36.7727V18.2273C91 13.4073 87.0927 9.5 82.2727 9.5Z" fill="white"/>
</mask>
<g mask="url(#mask0_1_528)">
<path d="M91 9.5H55V45.5H91V9.5Z" fill="#100943"/>
<path d="M91 27.5C100.941 27.5 109 19.4411 109 9.50001C109 -0.441128 100.941 -8.5 91 -8.5C81.0589 -8.5 73 -0.441128 73 9.50001C73 19.4411 81.0589 27.5 91 27.5Z" fill="#ED143B"/>
<path d="M77.2372 26.6781H66.6015V22.4695H77.2372C77.8584 22.4695 78.2904 22.5778 78.5072 22.7668C78.724 22.956 78.8582 23.3067 78.8582 23.819V25.3302C78.8582 25.87 78.724 26.2207 78.5072 26.4099C78.2904 26.5989 77.8584 26.6798 77.2372 26.6798V26.6781ZM77.9668 18.5016H62.0909V36.5H66.6015V30.6444H74.9139L78.8582 36.5H83.9091L79.5604 30.6169C81.1637 30.3793 81.8836 29.888 82.4773 29.0782C83.071 28.2685 83.3689 26.9739 83.3689 25.2462V23.8966C83.3689 22.8719 83.2603 22.0622 83.071 21.4416C82.8818 20.8209 82.5583 20.2811 82.0988 19.7962C81.6134 19.3372 81.0731 19.014 80.4243 18.7974C79.7755 18.6083 78.965 18.5 77.9668 18.5V18.5016Z" fill="white"/>
</g>
</g>
<defs>
<clipPath id="clip0_1_528">
<rect width="36" height="36" fill="white" transform="translate(55 9.5)"/>
</clipPath>
</defs>
</svg>
