<svg width="146" height="55" viewBox="0 0 146 55" fill="none" xmlns="http://www.w3.org/2000/svg">
<rect width="146" height="55" rx="27.5" fill="#03A8FB"/>
<path d="M58.6331 27.3278L65.2415 29.572L80.9325 19.9795C81.1603 19.8409 81.3932 20.1498 81.1972 20.3304L69.3184 31.2641L68.8772 37.3851C68.87 37.4877 68.8941 37.59 68.9464 37.6785C68.9987 37.767 69.0766 37.8375 69.1699 37.8807C69.2631 37.9239 69.3673 37.9377 69.4687 37.9203C69.57 37.9029 69.6636 37.8551 69.7371 37.7833L73.3943 34.1866L80.0808 39.2476C80.8011 39.7935 81.8447 39.4087 82.0387 38.5262L86.6943 17.3874C86.9601 16.1817 85.778 15.1637 84.6256 15.605L58.6002 25.571C57.7834 25.884 57.806 27.0466 58.6331 27.3278Z" fill="white"/>
</svg>
