<?xml version="1.0" encoding="utf-8"?><svg viewBox="0 0 189 55" xmlns="http://www.w3.org/2000/svg" xmlns:xlink="http://www.w3.org/1999/xlink"><style>:root>svg{display:none}:root>svg:target{display:block}</style><svg fill="none" viewBox="0 0 28 29" id="icon-arrow-daigonal" xmlns="http://www.w3.org/2000/svg"><path fill-rule="evenodd" clip-rule="evenodd" d="M26.471 1.618a2.008 2.008 0 0 0-1.622-.56L5.22.498a1.894 1.894 0 0 0-1.38.533c-.365.356-.57.847-.567 1.365.002.519.21 1.021.578 1.398a2.02 2.02 0 0 0 1.384.611l15.253.434L.645 24.682a1.89 1.89 0 0 0-.57 1.377c.005.523.219 1.029.594 1.404.376.376.882.59 1.405.595.523.005 1.019-.2 1.377-.57L23.294 7.647l.434 15.253a2.02 2.02 0 0 0 .611 1.385c.377.368.88.576 1.398.578a1.89 1.89 0 0 0 1.365-.567c.356-.366.548-.862.533-1.38l-.56-19.642a2.01 2.01 0 0 0-.603-1.655Z" fill="#2F282E"/></svg><svg fill="none" viewBox="0 0 20 18" id="icon-arrow-left" xmlns="http://www.w3.org/2000/svg"><g clip-path="url(#aba)"><path fill-rule="evenodd" clip-rule="evenodd" d="M.004 8.98c.005-.33.156-.641.41-.843L7.788.33c.195-.206.46-.324.74-.327.279-.004.547.107.747.308.2.201.313.476.317.764.003.288-.104.566-.3.772L3.564 7.912h15.344c.282-.004.553.109.753.312.2.205.313.483.313.773 0 .29-.113.57-.313.773-.2.204-.471.317-.753.313H3.563l5.73 6.065c.195.206.302.484.299.772a1.102 1.102 0 0 1-.317.764c-.2.2-.468.312-.747.308a1.035 1.035 0 0 1-.74-.327L.41 9.855a1.1 1.1 0 0 1-.406-.874Z" fill="#1D212C"/></g><defs><clipPath id="aba"><path fill="#fff" transform="matrix(-1 0 0 1 20 0)" d="M0 0h20v18H0z"/></clipPath></defs></svg><svg fill="none" viewBox="0 0 20 18" id="icon-arrow-right" xmlns="http://www.w3.org/2000/svg"><g clip-path="url(#aca)"><path fill-rule="evenodd" clip-rule="evenodd" d="M19.996 8.98a1.098 1.098 0 0 0-.41-.843L12.212.33a1.035 1.035 0 0 0-.74-.327 1.034 1.034 0 0 0-.747.308c-.2.201-.313.476-.317.764-.003.288.104.566.3.772l5.729 6.065H1.093a1.034 1.034 0 0 0-.753.312c-.2.205-.313.483-.313.773 0 .29.113.57.313.773.2.204.472.317.753.313h15.344l-5.73 6.065a1.104 1.104 0 0 0-.299.772c.004.288.117.562.317.764.2.2.468.312.747.308.28-.003.545-.12.74-.327l7.378-7.81c.26-.21.411-.533.406-.874Z" fill="#fff"/></g><defs><clipPath id="aca"><path fill="#fff" d="M0 0h20v18H0z"/></clipPath></defs></svg><svg fill="none" viewBox="0 0 29 29" id="icon-clock" xmlns="http://www.w3.org/2000/svg"><path fill-rule="evenodd" clip-rule="evenodd" d="M14.5.87C6.977.87.87 6.977.87 14.5c0 7.523 6.107 13.63 13.63 13.63 7.523 0 13.63-6.107 13.63-13.63C28.13 6.978 22.023.87 14.5.87Zm-.717 23.674v1.434a.718.718 0 0 0 1.434 0v-1.434a.718.718 0 0 0-1.434 0Zm-4.926-1.705-.717 1.242a.718.718 0 0 0 1.242.718l.718-1.243a.718.718 0 0 0-1.243-.717Zm12.003 1.242-.717-1.242a.718.718 0 0 0-1.242.717l.717 1.243a.718.718 0 0 0 1.242-.718Zm-15.416-5.18-1.243.717a.718.718 0 0 0 .718 1.242l1.242-.717a.718.718 0 0 0-.717-1.242Zm19.355.717-1.243-.717a.718.718 0 0 0-.717 1.242l1.242.717a.718.718 0 0 0 .718-1.242ZM12.47 13.783a2.16 2.16 0 0 1 1.313-1.312V7.326a.718.718 0 0 1 1.434 0v5.145a2.16 2.16 0 0 1 1.312 1.312h5.145a.718.718 0 0 1 0 1.434h-5.145a2.16 2.16 0 0 1-1.312 1.313v.84a.718.718 0 0 1-1.434 0v-.84a2.16 2.16 0 0 1-1.313-1.313h-.84a.718.718 0 0 1 0-1.434h.84Zm2.03 0a.718.718 0 1 1 0 1.435.718.718 0 0 1 0-1.435Zm11.478 0h-1.434a.718.718 0 0 0 0 1.434h1.434a.718.718 0 0 0 0-1.434Zm-21.521 0H3.022a.718.718 0 0 0 0 1.434h1.435a.718.718 0 0 0 0-1.434ZM24.08 8.14l-1.242.717a.718.718 0 0 0 .717 1.243l1.243-.718a.718.718 0 0 0-.718-1.242Zm-17.92.717L4.919 8.14A.718.718 0 0 0 4.2 9.382l1.243.718a.718.718 0 0 0 .717-1.243Zm13.457-4.656L18.9 5.444a.718.718 0 0 0 1.242.717l.717-1.242a.718.718 0 0 0-1.242-.718ZM10.1 5.444 9.382 4.2a.718.718 0 0 0-1.242.718l.717 1.242a.718.718 0 0 0 1.243-.717Zm3.683-2.422v1.435a.718.718 0 0 0 1.434 0V3.022a.718.718 0 0 0-1.434 0Z" fill="#2F282E"/></svg><svg fill="none" viewBox="0 0 130 52" id="icon-crossover" xmlns="http://www.w3.org/2000/svg"><path d="m129.51 35.355-7.799-.127a.153.153 0 0 1-.135-.089 8.738 8.738 0 0 1-.422-1.112c-.309-.997-.853-2.147-1.632-3.451-2.107-3.533-5.151-5.726-9.132-6.581-3.133-.671-6.824-.507-9.764.821-4.378 1.975-7.358 5.967-8.626 10.512-.132.474-.38.69-.894.7-20.334.428-31.98.674-34.938.738-1.7.036-5.106.132-10.217.286-3.495.106-6.308.169-8.44.188a.382.382 0 0 1-.366-.26c-2.453-7.33-8.556-12.552-16.627-11.48-6.483.865-11.39 4.922-12.86 11.385a.407.407 0 0 1-.396.315H.644a.196.196 0 0 1-.117-.04.187.187 0 0 1-.068-.1 12.877 12.877 0 0 1-.364-4.981c.178-1.487.746-3.181 1.136-4.488.503-1.675.92-2.908 1.252-3.696.789-1.872 5.115-3.168 6.892-3.685 6.305-1.84 12.772-3.01 20.388-4.477.805-.154 1.8-.501 2.485-.787 1.724-.715 3.7-1.66 5.928-2.837 5.91-3.123 9.33-4.927 10.26-5.412 3.626-1.893 6.875-3.49 10.709-4.29C63.765 1.44 68.852.771 74.407.401 79.924.035 85.085-.08 89.89.054c8.205.232 16.303.992 24.294 2.28.448.071 1.045.431 1.79 1.08 1.028.892 1.827 1.622 2.396 2.19a268.27 268.27 0 0 1 7.85 8.19c.298.324.612.624.942.899.997.835 1.96 1.347 1.785 2.772-.145 1.185-.667 2.643-.767 4.038a47.395 47.395 0 0 0-.075 5.396.864.864 0 0 0 .218.538c.366.419.823.784 1.37 1.097a.394.394 0 0 1 .197.326 44.808 44.808 0 0 1-.245 6.376.134.134 0 0 1-.044.086.134.134 0 0 1-.091.033ZM74.832 3.473v10.872a.109.109 0 0 0 .074.103c.014.005.03.007.045.005l20.678-2.298a.137.137 0 0 0 .095-.058.132.132 0 0 0 .018-.109l-2.326-8.222a.291.291 0 0 0-.237-.21 65.67 65.67 0 0 0-18.25-.194c-.064.01-.097.046-.097.11Zm51.036 10.996a.06.06 0 0 0 .028-.011.054.054 0 0 0 .02-.023.053.053 0 0 0 .007-.03c0-.01-.002-.02-.007-.03a.386.386 0 0 0-.054-.075 249.103 249.103 0 0 0-8.537-8.831 39.842 39.842 0 0 0-2.035-1.861c-.228-.196-.287-.155-.178.123 1.182 2.972 2.488 5.97 4.313 8.55.729 1.03 1.677 1.678 2.846 1.946 1.226.282 2.425.362 3.597.242Zm-91.965 4.003 35.195-3.292a.302.302 0 0 0 .272-.264l1.419-11.198c.009-.072-.023-.106-.095-.102-3.925.143-7.774.66-11.546 1.551a45.345 45.345 0 0 0-10.349 3.82c-.996.512-2.544 1.42-4.644 2.724a1679.146 1679.146 0 0 1-10.378 6.382c-.506.308-.464.435.126.38Zm66.728-7.22a.141.141 0 0 0 .154.082l4.31-.8a.144.144 0 0 0 .073-.038l5.112-5.116a.14.14 0 0 0 .038-.069.136.136 0 0 0-.051-.142.14.14 0 0 0-.073-.029L97.532 3.995a.14.14 0 0 0-.14.2l3.239 7.058Zm26.779 9.02a.507.507 0 0 0 .407-.342c.307-.93.487-1.827.541-2.689.048-.747-.316-1.215-1.093-1.403-2.377-.582-3.635-.418-5.578 1.174-.469.385-.778 1-.31 1.509a9.867 9.867 0 0 0 2.891 2.15.419.419 0 0 0 .259.04l2.883-.44Zm-11.493-1.199c0-.56-.302-1.099-.84-1.495-.538-.397-1.268-.62-2.03-.62-.761 0-1.491.223-2.029.62-.538.396-.84.934-.84 1.495 0 .56.302 1.099.84 1.495.538.397 1.268.62 2.029.62.762 0 1.492-.223 2.03-.62.538-.396.84-.934.84-1.495Zm-26.466.593a.364.364 0 0 0 .172.288c.299.2.635.25.999.536 1.278.997 2.678 1.1 4.202.307.095-.048.327-.27.695-.663.317-.336.608-.371 1.039-.382.447-.01.66-.198.638-.56-.023-.363-.257-.523-.7-.48-.43.043-.724.043-1.08-.253-.412-.345-.669-.536-.77-.574-1.608-.6-2.986-.327-4.135.819-.325.326-.651.418-.923.652a.367.367 0 0 0-.137.31Zm-23.045 2.696c.35-.342.867-.28 1.235-.396.282-.091.388-.266.318-.525l-.027-.1a.544.544 0 0 0-.573-.401l-.76.067c-.044.004-.128-.026-.25-.089-.064-.034-.25-.173-.557-.417-.923-.73-2.315-.711-3.333-.278-.69.297-1.238.986-2.024 1.355a.393.393 0 0 0-.162.568c.04.062.099.11.167.14.443.197.803.41 1.08.642 1.238 1.029 2.899.975 4.197.124.266-.175.487-.493.689-.69Zm-52.828 2.934a19.485 19.485 0 0 0 2.565-2.271.105.105 0 0 0-.009-.151.105.105 0 0 0-.05-.024c-3.428-.57-6.76-.42-9.993.447-1.287.345-2.208 1.025-2.762 2.04-.679 1.244-1.053 2.753-1.123 4.528-.067 1.74 2.735.55 3.5.204 2.49-1.127 5.115-2.719 7.872-4.773Z" fill="#999"/><path d="M74.833 3.473c0-.065.032-.102.097-.11a65.67 65.67 0 0 1 18.25.193.287.287 0 0 1 .237.21l2.326 8.222a.13.13 0 0 1-.018.109.136.136 0 0 1-.095.058L74.95 14.453a.107.107 0 0 1-.109-.064.107.107 0 0 1-.01-.044V3.473ZM125.867 14.47c-1.172.12-2.371.039-3.596-.243-1.169-.268-2.117-.916-2.846-1.945-1.825-2.58-3.131-5.58-4.313-8.55-.109-.279-.05-.32.178-.124a40.27 40.27 0 0 1 2.035 1.861 249.1 249.1 0 0 1 8.537 8.83c.02.022.038.047.054.076.005.01.007.02.007.03 0 .01-.002.02-.007.03a.064.064 0 0 1-.049.035ZM69.098 15.18l-35.195 3.292c-.59.056-.632-.07-.126-.38 3.903-2.383 7.363-4.51 10.378-6.381 2.1-1.304 3.648-2.212 4.644-2.724a45.346 45.346 0 0 1 10.349-3.82 59.614 59.614 0 0 1 11.546-1.552c.072-.003.104.031.095.103l-1.42 11.198a.301.301 0 0 1-.271.264Zm-25.236 1.907a.12.12 0 0 0 .102-.083l1.796-5.536a.121.121 0 0 0-.18-.14l-10.705 6.525a.121.121 0 0 0 .078.226l8.909-.992ZM100.631 11.253l-3.239-7.058a.14.14 0 0 1 .14-.2l12.661 1.146a.14.14 0 0 1 .087.24l-5.113 5.115a.14.14 0 0 1-.073.038l-4.31.8a.141.141 0 0 1-.153-.08Z" fill="#fff"/><path d="m43.861 17.088-8.908.991a.122.122 0 0 1-.134-.164.121.121 0 0 1 .056-.062l10.704-6.525a.122.122 0 0 1 .181.067.121.121 0 0 1 0 .073l-1.796 5.536a.121.121 0 0 1-.103.084Z" fill="#999"/><path d="m127.41 20.271-2.883.44a.42.42 0 0 1-.259-.04 9.867 9.867 0 0 1-2.891-2.15c-.468-.51-.159-1.124.31-1.51 1.943-1.591 3.201-1.756 5.578-1.174.777.189 1.141.657 1.093 1.404a10.72 10.72 0 0 1-.541 2.688.511.511 0 0 1-.407.342ZM115.918 19.073c0 .561-.303 1.099-.841 1.495-.538.397-1.268.62-2.029.62-.761 0-1.491-.223-2.03-.62-.538-.396-.84-.934-.84-1.495 0-.56.302-1.099.84-1.495.539-.397 1.269-.62 2.03-.62.761 0 1.491.223 2.029.62.538.396.841.934.841 1.495Zm-.302-.01a1.437 1.437 0 0 0-.193-.718 1.969 1.969 0 0 0-.557-.61 2.803 2.803 0 0 0-.836-.41 3.46 3.46 0 0 0-.989-.148c-.685-.004-1.343.19-1.83.538-.487.35-.761.824-.764 1.32-.001.246.064.49.193.718.129.228.318.435.557.61.239.175.523.315.836.41.314.096.649.146.989.148.685.004 1.344-.19 1.83-.539.487-.348.761-.823.764-1.32Z" fill="#fff"/><path d="M115.615 19.062c-.002.497-.277.971-.763 1.32-.487.348-1.145.542-1.831.539a3.454 3.454 0 0 1-.988-.148 2.803 2.803 0 0 1-.836-.41 1.957 1.957 0 0 1-.557-.61 1.427 1.427 0 0 1-.193-.718c.002-.497.277-.971.763-1.32.487-.349 1.145-.542 1.831-.539.339.002.675.052.988.148.313.096.597.235.836.41s.429.383.557.61c.129.228.195.472.193.718Z" fill="#999"/><path d="M97.196 19.192c.022.363-.19.55-.638.56-.43.011-.721.046-1.039.383-.368.393-.6.614-.695.662-1.523.792-2.924.69-4.202-.307-.363-.285-.7-.336-.999-.536a.367.367 0 0 1-.035-.598c.272-.234.598-.326.924-.652 1.148-1.146 2.527-1.419 4.135-.819.1.038.357.23.77.574.355.297.649.297 1.08.253.443-.043.676.117.7.48ZM66.406 22.363c-.202.196-.422.514-.689.69-1.298.85-2.959.904-4.197-.125-.276-.232-.636-.445-1.08-.641a.385.385 0 0 1-.17-.562.393.393 0 0 1 .165-.147c.786-.369 1.335-1.058 2.024-1.354 1.018-.434 2.41-.453 3.333.277.307.244.493.383.558.418.122.062.205.092.25.088l.76-.067a.544.544 0 0 1 .573.401l.027.1c.07.259-.036.434-.318.526-.369.115-.886.053-1.236.396ZM13.577 25.296c-2.756 2.055-5.38 3.646-7.872 4.774-.764.345-3.567 1.535-3.5-.205.07-1.774.445-3.284 1.123-4.528.555-1.015 1.476-1.695 2.762-2.04 3.235-.867 6.566-1.016 9.994-.447a.105.105 0 0 1 .059.175 19.478 19.478 0 0 1-2.566 2.271Z" fill="#fff"/><path d="M7.593 37.537a.299.299 0 0 0 .293-.24c.95-4.558 3.573-8.227 7.866-10.172 5.74-2.605 12.6-1.81 16.926 2.823 1.95 2.087 3.375 4.536 4.278 7.346a.386.386 0 0 0 .371.264l54.296-1.255a.462.462 0 0 0 .423-.302c.122-.326.349-.982.68-1.966.886-2.63 2.725-5.323 4.914-7.115 2.687-2.201 6.047-3.195 10.082-2.98 5.885.315 10.03 3.126 12.435 8.433.417.923.777 1.928 1.082 3.014.017.059.052.11.099.146a.271.271 0 0 0 .165.056h7.799a.223.223 0 0 1 .176.082.228.228 0 0 1 .048.188c-.474 2.489-5.441 4.622-7.78 5.468-.779.28-1.498.375-2.157.283-.091-.013-.134-.066-.126-.159.519-6.815-3.196-13.151-9.994-14.754-4.506-1.064-9.282.867-12.08 4.434-2.455 3.13-3.42 6.704-2.893 10.721a.175.175 0 0 1-.041.136.171.171 0 0 1-.126.058l-59.352 1.2a.148.148 0 0 1-.15-.162c.648-6.765-3.527-13.45-10.42-14.77-4.31-.825-8.76.98-11.565 4.45-2.493 3.083-3.501 6.661-3.026 10.734a.146.146 0 0 1-.172.162 85.606 85.606 0 0 1-1.72-.35C4.66 42.585 2.04 40.853.733 37.839a.215.215 0 0 1 .2-.302h6.66Z" fill="#999"/><path d="M117.885 39.254a10.737 10.737 0 0 1-3.183 7.687 11.155 11.155 0 0 1-7.79 3.23 11.157 11.157 0 0 1-7.834-3.12 10.737 10.737 0 0 1-3.29-7.643 10.738 10.738 0 0 1 3.183-7.688 11.16 11.16 0 0 1 7.79-3.229 11.156 11.156 0 0 1 7.834 3.12 10.734 10.734 0 0 1 3.29 7.643Zm-3.397.064a7.398 7.398 0 0 0-.588-2.874 7.496 7.496 0 0 0-1.663-2.433 7.655 7.655 0 0 0-2.485-1.624 7.775 7.775 0 0 0-5.855.01 7.656 7.656 0 0 0-2.48 1.633 7.51 7.51 0 0 0-1.654 2.44 7.389 7.389 0 0 0 .01 5.747 7.5 7.5 0 0 0 1.663 2.434 7.655 7.655 0 0 0 2.485 1.624 7.777 7.777 0 0 0 5.856-.01 7.665 7.665 0 0 0 2.479-1.633 7.506 7.506 0 0 0 1.654-2.44 7.403 7.403 0 0 0 .578-2.874ZM33.477 40.774a10.735 10.735 0 0 1-3.224 7.671 11.166 11.166 0 0 1-7.81 3.189 11.165 11.165 0 0 1-7.823-3.162 10.735 10.735 0 0 1-3.25-7.659 10.735 10.735 0 0 1 3.224-7.67 11.166 11.166 0 0 1 7.81-3.19 11.166 11.166 0 0 1 7.823 3.162 10.735 10.735 0 0 1 3.25 7.66Zm-3.395.153a7.377 7.377 0 0 0-.533-2.881 7.498 7.498 0 0 0-1.617-2.464 7.669 7.669 0 0 0-2.455-1.67 7.792 7.792 0 0 0-5.86-.102 7.669 7.669 0 0 0-2.511 1.583 7.497 7.497 0 0 0-1.702 2.406 7.375 7.375 0 0 0-.1 5.743 7.497 7.497 0 0 0 1.617 2.463 7.67 7.67 0 0 0 2.455 1.67 7.79 7.79 0 0 0 5.859.103 7.668 7.668 0 0 0 2.512-1.584 7.497 7.497 0 0 0 1.702-2.405c.4-.904.615-1.876.632-2.862Z" fill="#999"/><path d="M114.488 39.318a7.384 7.384 0 0 1-.577 2.875 7.507 7.507 0 0 1-1.654 2.44 7.667 7.667 0 0 1-2.48 1.631 7.77 7.77 0 0 1-5.856.01 7.666 7.666 0 0 1-2.485-1.623 7.518 7.518 0 0 1-1.663-2.434 7.392 7.392 0 0 1-.01-5.748 7.486 7.486 0 0 1 1.655-2.44 7.654 7.654 0 0 1 2.479-1.632 7.778 7.778 0 0 1 5.856-.01 7.665 7.665 0 0 1 2.485 1.624 7.498 7.498 0 0 1 1.663 2.433 7.38 7.38 0 0 1 .587 2.873Zm-6.792-1.733a.084.084 0 0 0 .121.065l4.997-2.645a.088.088 0 0 0 .031-.028.083.083 0 0 0 .007-.08.078.078 0 0 0-.025-.033l-2.652-2.03a.075.075 0 0 0-.029-.017l-2.959-.849a.083.083 0 0 0-.105.09l.614 5.527Zm-2.329.574a.152.152 0 0 0 .193-.107.152.152 0 0 0 .001-.082c-.495-1.903-.808-3.63-.937-5.18a.278.278 0 0 0-.39-.234c-2.026.869-3.417 2.294-4.173 4.275a.259.259 0 0 0 .022.228.255.255 0 0 0 .196.12c1.596.125 3.292.452 5.088.98Zm7.988-1.476c.003 0 .006-.003.008-.008s.005-.012.006-.022a.27.27 0 0 0 .004-.032l.001-.038a6.2 6.2 0 0 0-.003-.039.143.143 0 0 0-.006-.032.073.073 0 0 0-.007-.021c-.003-.005-.006-.008-.009-.008-.002 0-.005.003-.008.008a.267.267 0 0 0-.01.093.462.462 0 0 0 .008.07c.002.01.005.016.008.021.002.005.005.008.008.008Zm.086.773a.305.305 0 0 1-.161.183l-4.424 2.031a.15.15 0 0 0-.056.047.152.152 0 0 0-.026.068.142.142 0 0 0 .011.074.148.148 0 0 0 .044.06c1.425 1.113 2.641 2.26 3.648 3.442a.245.245 0 0 0 .202.083.242.242 0 0 0 .186-.113c1.096-1.759 1.615-4.086.867-6.05a.117.117 0 0 0-.157-.065.12.12 0 0 0-.048.04.797.797 0 0 0-.086.2Zm-8.246 3.02a.15.15 0 0 0-.116-.235c-1.922-.106-3.623-.33-5.104-.67a.274.274 0 0 0-.337.293c.207 2.15 1.12 3.872 2.741 5.167a.247.247 0 0 0 .219.046.247.247 0 0 0 .169-.148c.594-1.45 1.403-2.934 2.428-4.453Zm-.369 5.85a.09.09 0 0 0-.009.047.099.099 0 0 0 .014.044c.008.013.02.024.034.032a.092.092 0 0 0 .045.013l3.05.1a.094.094 0 0 0 .035-.006l3.02-1.067a.09.09 0 0 0 .038-.026.084.084 0 0 0 .021-.041.09.09 0 0 0-.001-.046.09.09 0 0 0-.023-.04l-3.787-3.79a.1.1 0 0 0-.038-.024.093.093 0 0 0-.085.014.087.087 0 0 0-.028.033l-2.286 4.758Z" fill="#fff"/><path d="m107.696 37.585-.614-5.528a.077.077 0 0 1 .005-.04.087.087 0 0 1 .06-.05.083.083 0 0 1 .04.001l2.958.849a.09.09 0 0 1 .03.016l2.652 2.031c.011.009.019.02.025.033.006.013.008.027.006.04a.079.079 0 0 1-.014.04.08.08 0 0 1-.031.027l-4.996 2.646a.085.085 0 0 1-.078 0 .087.087 0 0 1-.03-.028.083.083 0 0 1-.013-.037ZM105.367 38.16c-1.797-.529-3.493-.856-5.088-.981a.257.257 0 0 1-.235-.231.273.273 0 0 1 .016-.117c.756-1.98 2.147-3.406 4.173-4.275a.283.283 0 0 1 .256.017.28.28 0 0 1 .135.218c.129 1.549.441 3.276.937 5.18a.175.175 0 0 1-.001.082.16.16 0 0 1-.042.07.153.153 0 0 1-.151.036Z" fill="#999"/><path d="M30.082 40.927a7.375 7.375 0 0 1-.633 2.861 7.496 7.496 0 0 1-1.702 2.406 7.669 7.669 0 0 1-2.512 1.583 7.792 7.792 0 0 1-5.859-.102 7.669 7.669 0 0 1-2.455-1.67 7.498 7.498 0 0 1-1.617-2.464 7.377 7.377 0 0 1 .1-5.743c.4-.904.979-1.721 1.702-2.405a7.668 7.668 0 0 1 2.512-1.584 7.79 7.79 0 0 1 5.86.103 7.67 7.67 0 0 1 2.454 1.67 7.497 7.497 0 0 1 1.617 2.463c.37.917.55 1.896.533 2.882Zm-7.66-1.863a.192.192 0 0 0 .182-.105 27.283 27.283 0 0 1 2.937-4.302.256.256 0 0 0-.088-.394 7.062 7.062 0 0 0-6.09.017.254.254 0 0 0-.137.29c.009.038.026.073.05.103a27.264 27.264 0 0 1 2.96 4.286c.039.07.1.105.185.105Zm7.225 2.917a.084.084 0 0 0 .108-.086l-.313-3.346a.083.083 0 0 0-.013-.035l-1.594-2.624a.084.084 0 0 0-.14-.008l-3.4 4.445a.083.083 0 0 0 .043.132l5.309 1.522Zm-9.14-1.468a.148.148 0 0 0 .114-.1.153.153 0 0 0-.03-.15c-1.294-1.435-2.348-2.798-3.161-4.09a.277.277 0 0 0-.447-.027c-1.371 1.676-1.937 3.548-1.699 5.617a.247.247 0 0 0 .123.187.252.252 0 0 0 .225.015c1.446-.612 3.071-1.096 4.875-1.452Zm3.586 7.376c1.976-.52 3.35-1.59 4.507-3.192a.313.313 0 0 0-.042-.41.303.303 0 0 0-.13-.07c-1.628-.413-3.2-.98-4.717-1.702a.11.11 0 0 0-.16.102l.1 4.938a.353.353 0 0 0 .442.334Zm-6.03-1.183a.087.087 0 0 0 .027.022l2.87 1.382a.086.086 0 0 0 .123-.076l.175-5.325a.085.085 0 0 0-.035-.071.086.086 0 0 0-.078-.012l-4.983 1.756a.086.086 0 0 0-.035.14l1.936 2.184Z" fill="#fff"/><path d="M22.405 33.582a7.062 7.062 0 0 1 3.048.682.256.256 0 0 1 .089.393 27.277 27.277 0 0 0-2.938 4.302.193.193 0 0 1-.183.105.198.198 0 0 1-.185-.105 27.257 27.257 0 0 0-2.96-4.286.257.257 0 0 1 .087-.393 7.096 7.096 0 0 1 3.042-.698ZM29.647 41.982l-5.31-1.522a.084.084 0 0 1-.042-.132l3.4-4.445a.084.084 0 0 1 .14.008l1.594 2.624c.007.01.011.022.013.035l.313 3.346a.083.083 0 0 1-.032.071.084.084 0 0 1-.076.015ZM20.507 40.514c-1.803.355-3.429.84-4.875 1.452a.256.256 0 0 1-.309-.095.248.248 0 0 1-.039-.107c-.238-2.07.328-3.942 1.7-5.617a.278.278 0 0 1 .446.027c.813 1.291 1.867 2.654 3.16 4.09a.157.157 0 0 1 .031.15.15.15 0 0 1-.114.1ZM113.354 36.683c-.003 0-.005-.003-.008-.008s-.005-.012-.008-.021a.246.246 0 0 1-.005-.032.234.234 0 0 1-.003-.038l.001-.039c0-.012.002-.023.003-.032a.077.077 0 0 1 .007-.022c.002-.005.005-.008.008-.008s.005.003.008.008a.07.07 0 0 1 .008.021l.005.032a.234.234 0 0 1 .003.039v.038l-.004.032a.077.077 0 0 1-.007.022c-.002.005-.005.008-.008.008ZM113.44 37.456a.837.837 0 0 1 .086-.2.117.117 0 0 1 .168-.026.11.11 0 0 1 .037.051c.748 1.964.229 4.291-.867 6.05a.242.242 0 0 1-.387.03c-1.007-1.182-2.223-2.33-3.648-3.443a.151.151 0 0 1-.056-.132.153.153 0 0 1 .026-.069.146.146 0 0 1 .057-.047l4.423-2.03a.311.311 0 0 0 .161-.184ZM105.195 40.476c-1.025 1.52-1.835 3.004-2.429 4.453a.244.244 0 0 1-.168.148.25.25 0 0 1-.219-.046c-1.621-1.294-2.535-3.017-2.741-5.166a.275.275 0 0 1 .337-.294c1.48.341 3.182.565 5.104.67.026.002.052.01.074.026.022.014.04.035.051.058.012.024.017.05.016.077a.162.162 0 0 1-.025.074ZM104.825 46.327l2.286-4.758a.099.099 0 0 1 .069-.05.093.093 0 0 1 .044.003.098.098 0 0 1 .038.023l3.788 3.79c.01.012.018.026.022.04a.09.09 0 0 1-.019.088.106.106 0 0 1-.038.026l-3.021 1.067a.094.094 0 0 1-.035.005l-3.05-.1a.095.095 0 0 1-.093-.088c0-.016.003-.032.009-.046ZM28.6 44.697c-1.158 1.602-2.53 2.672-4.507 3.192a.352.352 0 0 1-.442-.334l-.1-4.938a.111.111 0 0 1 .052-.096.11.11 0 0 1 .108-.006 25.596 25.596 0 0 0 4.716 1.702.303.303 0 0 1 .213.193.31.31 0 0 1-.04.287ZM18.063 46.707l-1.936-2.185a.086.086 0 0 1 .035-.14l4.983-1.757a.086.086 0 0 1 .113.084l-.175 5.326a.086.086 0 0 1-.124.075l-2.87-1.382a.086.086 0 0 1-.026-.021ZM127.981 20.563l1.077-3.098.942 10.91-.673.539-1.346-.539-.539-2.694.539-5.118Z" fill="#999"/></svg><svg fill="none" viewBox="0 0 30 31" id="icon-cup" xmlns="http://www.w3.org/2000/svg"><path d="M14.47 9.15a5.49 5.49 0 0 0-.546.471l-.028.03c-.12.142-.231.289-.339.438l-.018.028c-.05.086-.096.171-.142.266l-.025.052c-.04.076-.074.155-.101.236-.031.091-.059.183-.08.275l-.035.138a1.2 1.2 0 0 0-.018.134v.034c-.026.19-.026.384 0 .575v.052c.01.072.023.144.04.214v.037c.018.064.037.128.052.168.042.128.097.25.164.367l.034.062c.065.106.137.208.215.306l.025.027.03.034c.064.069.13.134.201.196l.031.024a2.045 2.045 0 0 0 .484.303l.037.015a.99.99 0 0 0 .179.058h.015a.443.443 0 0 0 .358-.082.425.425 0 0 0 .163-.306v-.266l.025-.248.034-.19c.021-.097.053-.191.095-.281l.043-.08.022-.027.034-.043.058-.058.08-.059h.019l.105-.067c.05-.026.098-.054.145-.085.066-.027.13-.06.19-.098l.108-.055.176-.092.358-.196a3.73 3.73 0 0 0 .878-.75 3.14 3.14 0 0 0 .598-1.052c.12-.355.17-.73.148-1.104a2.857 2.857 0 0 0-.21-.918 2.754 2.754 0 0 0-.752-1.047 2.077 2.077 0 0 0-.271-.198l-.04-.025c-.05-.032-.1-.06-.154-.083a.437.437 0 0 0-.367.022.426.426 0 0 0-.216.306l-.021.125c0 .03 0 .07-.022.117l-.027.137c-.053.27-.126.534-.22.793-.043.12-.1.238-.166.348-.056.091-.122.175-.197.251-.078.078-.161.15-.25.217a4.77 4.77 0 0 1-.332.227l-.189.092-.049.03-.077.05-.163.11-.09.045Zm.224-5.394c.106.504.115 1.023.025 1.53a4.334 4.334 0 0 1-.616 1.557c-.287.454-.644.861-1.057 1.206l-.457.346-.225.165-.15.107a1.361 1.361 0 0 1-.241.174 2.27 2.27 0 0 1-.197.156c-.04.04-.086.08-.133.116l-.034.028c-.03.034-.062.067-.095.098 0 0-.019.018-.028.03l-.08.101a.786.786 0 0 1-.04.074l-.025.043v.03c0 .04-.024.077-.043.12-.046.15-.075.305-.086.462v.281l-.013.37c0 .089 0 .165.019.22l.021.169a.446.446 0 0 1-.263.465.455.455 0 0 1-.187.04h-.033a1.46 1.46 0 0 1-.238-.043h-.046a2.69 2.69 0 0 1-.733-.315l-.044-.025a3.104 3.104 0 0 1-.308-.22l-.055-.043-.028-.024a3.931 3.931 0 0 1-.351-.367l-.056-.074a2.731 2.731 0 0 1-.29-.456 3.293 3.293 0 0 1-.104-.223l-.022-.052a2.463 2.463 0 0 1-.092-.276l-.022-.076a2.95 2.95 0 0 1-.117-.777v-.064a1.595 1.595 0 0 1 0-.175l.018-.196c0-.131.031-.263.056-.397a2.11 2.11 0 0 1 .086-.334l.025-.08a7.33 7.33 0 0 1 .139-.39l.015-.035c.114-.229.243-.458.38-.679l.024-.036c.166-.22.348-.435.536-.64.037-.042.076-.082.117-.12l.114-.106c.065-.061.136-.123.207-.187l.123-.11.028-.024.265-.212c.163-.137.308-.272.437-.4.117-.118.225-.244.324-.377.097-.133.179-.277.243-.428.076-.179.133-.364.173-.554.08-.391.129-.788.148-1.187V1.385a.45.45 0 0 1 .376-.436.46.46 0 0 1 .206.011c.075.02.149.045.22.077l.058.024c.14.06.275.133.404.214.506.322.928.758 1.232 1.273.23.373.396.781.49 1.208Zm13.348 17.372a5.033 5.033 0 0 0-.932-4.346 5.099 5.099 0 0 0-1.785-1.435 5.138 5.138 0 0 0-2.238-.512H2.537a1.35 1.35 0 0 0-.976.415 1.328 1.328 0 0 0-.366.989c.162 2.43.581 4.837 1.252 7.18a9.725 9.725 0 0 0 2.863 4.565H3.54c-.394 0-.773.156-1.053.433a1.474 1.474 0 0 0 0 2.092c.28.277.659.433 1.054.433H20.3c.395 0 .774-.155 1.053-.433a1.473 1.473 0 0 0 0-2.092 1.496 1.496 0 0 0-1.053-.433h-1.773a9.743 9.743 0 0 0 2.269-3.01h2.29c1.14 0 2.247-.38 3.145-1.076a5.066 5.066 0 0 0 1.81-2.77Zm-3.002-.74a1.993 1.993 0 0 1-.71 1.1 2.018 2.018 0 0 1-1.243.43h-1.304c.314-1.32.552-2.654.712-4h.591a2.024 2.024 0 0 1 1.587.768 1.992 1.992 0 0 1 .368 1.714v-.013Z" fill="#000"/></svg><svg fill="none" viewBox="0 0 30 30" id="icon-delivery" xmlns="http://www.w3.org/2000/svg"><path fill-rule="evenodd" clip-rule="evenodd" d="M.625 15.948A.629.629 0 0 1 0 15.317c0-.35.28-.633.625-.633H5.626a1.57 1.57 0 0 0 1.561-1.578c0-.872-.7-1.579-1.562-1.579h-5A.629.629 0 0 1 0 10.895c0-.349.28-.632.625-.632h7.813A1.57 1.57 0 0 0 10 8.685c0-.873-.7-1.58-1.562-1.58H.625A.629.629 0 0 1 0 6.474c0-.349.28-.632.625-.632h2.849l.45-2.332A.626.626 0 0 1 4.54 3H21.1c.186 0 .363.084.483.23a.635.635 0 0 1 .13.522l-.955 4.933h4.24c.2 0 .386.095.505.257l4.374 6a.64.64 0 0 1 .111.49l-1.562 8.527a.627.627 0 0 1-.615.516h-2.396a3.98 3.98 0 0 1-.304.667c-.98 1.714-3.017 2.342-4.527 1.462-.784-.456-1.29-1.24-1.459-2.129H9.791a3.98 3.98 0 0 1-.303.667c-.981 1.714-3.018 2.342-4.528 1.462-.784-.456-1.29-1.24-1.46-2.129H.626a.62.62 0 0 1-.482-.23.633.633 0 0 1-.131-.523l.894-4.615h2.531c.864 0 1.564-.707 1.564-1.58 0-.872-.7-1.579-1.564-1.579H.625Zm19.89-6-.918 4.736h8.541l-3.454-4.737h-4.169Zm2.964 11.598c-.95-.553-2.205-.078-2.822 1-.615 1.078-.396 2.41.552 2.963.95.553 2.205.078 2.822-1 .616-1.077.397-2.41-.552-2.963Zm-15.625 0c-.95-.553-2.205-.078-2.822 1-.616 1.078-.397 2.41.552 2.963.95.553 2.205.078 2.822-1 .615-1.077.396-2.41-.552-2.963Z" fill="#000"/></svg><svg fill="none" viewBox="0 0 54 54" id="icon-details-1" xmlns="http://www.w3.org/2000/svg"><path fill-rule="evenodd" clip-rule="evenodd" d="M10.512 21.161h6.352v-2.909c-2.338-1.108-3.975-3.495-3.975-6.244V4.68c0-.373.307-.681.679-.681h12.358c.371 0 .678.308.678.68v7.328c0 2.749-1.634 5.139-3.975 6.245v2.908h8.174a2.25 2.25 0 0 1 2.193-1.8h3.507c1.222 0 2.22 1 2.232 2.216h1.356c.664 0 1.195.547 1.195 1.213v1.416a1.2 1.2 0 0 1-1.195 1.2h-1.356v1.749h1.356c.664 0 1.195.533 1.195 1.202v1.413c0 .667-.533 1.202-1.195 1.202h-1.356a2.246 2.246 0 0 1-2.232 2.216h-3.507a2.253 2.253 0 0 1-2.193-1.789h-7.601v3.792c0 .706-.587 1.293-1.305 1.293H20.21v7.447c0 .374-.304.681-.678.681h-2.936c-.213 1.308.584 2.456 3.03 2.39 5.623-.16 16.387-6.672 22.566-1.655 1.262 1.028 1.742 2.148 2.207 3.643.332 1.094-.996 1.374-1.277.468-.385-1.24-.717-2.19-1.781-3.057-5.476-4.444-16.506 1.8-21.678 1.963-3.388.094-4.664-1.735-4.426-3.75h-1.569c-1.793 0-2.298-1.868-1.622-3.401.97-2.202 1.13-6.778.825-9.809h-2.366A2.538 2.538 0 0 1 7.98 28.87V26.96l-6.623-.004v2c0 .894-1.356.894-1.356 0v-5.35c0-.909 1.356-.909 1.356 0v2.002h6.63v-1.92a2.538 2.538 0 0 1 2.526-2.527Zm2.235 5.792h14.62c.89 0 .89-1.348 0-1.348h-14.62c-.89 0-.89 1.348 0 1.348Zm32.944 2.855 5.649 3.267c.771.454 1.45-.72.678-1.173l-5.649-3.27c-.771-.451-1.45.723-.678 1.176Zm.678-5.886 5.649-3.268c.771-.453.093-1.63-.678-1.174l-5.649 3.27c-.771.44-.093 1.613.678 1.172Zm.452 3.03h6.51c.892 0 .892-1.36 0-1.36h-6.51c-.889 0-.889 1.36 0 1.36Zm-24.97 4.445h-1.637v3.737h1.635v-3.737h.002Zm-2.979 11.849V31.394h-4.638c.318 3.243.119 7.927-.942 10.356-.213.467-.398 1.493.385 1.493 1.726.002 3.456.003 5.195.003Zm6.393-34.844H14.248v3.603a5.543 5.543 0 0 0 3.51 5.151.688.688 0 0 1 .465.64v3.365h3.07v-3.364c0-.265.172-.535.425-.627 2.06-.8 3.549-2.817 3.549-5.165l-.002-3.603Zm-11.017-1.36h11.017V5.36H14.248v1.683Zm24.493 15.894v1.108h1.209v-1.108h-1.21Zm0 5.564v1.108h1.209V28.5h-1.21Zm-7.973-5.992H10.512c-.638 0-1.169.536-1.169 1.174v5.177c0 .655.53 1.174 1.17 1.174h20.255v-7.525Zm2.233-1.789h3.507c.491 0 .877.4.877.88v9.356a.865.865 0 0 1-.877.866h-3.507a.867.867 0 0 1-.876-.866V21.6c0-.48.383-.88.876-.88Z" fill="#000"/></svg><svg fill="none" viewBox="0 0 54 54" id="icon-details-2" xmlns="http://www.w3.org/2000/svg"><path fill-rule="evenodd" clip-rule="evenodd" d="M29.038 19.43V3.528a.51.51 0 0 0-1.02 0v10.698h-2.86c-2.213 0-4.318.96-5.77 2.632l-5.63 6.484c-.38.437-.86.774-1.393.983l-5.179-5.577a4.583 4.583 0 0 0-3.36-1.465h-.77a.51.51 0 0 0 0 1.019h.77c.992 0 1.939.413 2.613 1.139l1.213 1.306-.954 4.82-1.37.29a4.583 4.583 0 0 0-3.585 3.769l-.005.033-.007.048-.006.048-.004.034-.004.036-.002.012-.418 3.765A1.53 1.53 0 0 0 0 35.113v.001c0 .844.684 1.528 1.527 1.528h5.707a5.1 5.1 0 0 0 4.992 4.075 5.1 5.1 0 0 0 4.993-4.075h10.8v14.773a.51.51 0 0 0 1.019 0v-17.67l10.809 10.809a7.136 7.136 0 0 0 7.021 8.39A7.136 7.136 0 0 0 54 45.81a7.136 7.136 0 0 0-8.39-7.02L33.408 26.586l9.474-9.474c.335.048.678.073 1.026.073 3.902 0 8.054-3.065 8.054-8.054 0-.962-.19-1.88-.537-2.716a.507.507 0 0 0-.83-.166l-3.533 3.533-2.306-.577-.577-2.305 3.534-3.534a.508.508 0 0 0-.166-.83A7.085 7.085 0 0 0 44.83 2c-4.99 0-8.054 4.152-8.054 8.054 0 .509.054 1.004.155 1.483l-7.893 7.893Zm3.65 7.878-3.65 3.65v1.346L40.76 44.025c.122.123.174.3.137.47a6.117 6.117 0 0 0 5.97 7.43 6.117 6.117 0 0 0 6.114-6.114 6.117 6.117 0 0 0-7.43-5.97.514.514 0 0 1-.47-.138L32.688 27.308Zm14.18 15.447a3.058 3.058 0 0 0 0 6.113 3.058 3.058 0 0 0 0-6.113Zm0 1.019a2.038 2.038 0 1 1-.001 4.077 2.038 2.038 0 0 1 0-4.077ZM12.226 31.547a4.077 4.077 0 0 1 4.076 4.076 4.077 4.077 0 0 1-4.076 4.075 4.077 4.077 0 0 1-4.075-4.075 4.077 4.077 0 0 1 4.075-4.076ZM28.02 15.245h-2.86c-1.92 0-3.743.833-5.002 2.28l-5.629 6.485a4.574 4.574 0 0 1-2.044 1.354.496.496 0 0 1-.234.069c-.079.021-.16.04-.24.058l-6.472 1.362a3.565 3.565 0 0 0-2.316 1.643 2.55 2.55 0 0 1 2.382 2.542v1.019c0 .843-.685 1.528-1.529 1.528H2.324l-.063.565a.51.51 0 0 1-.507.454h-.226a.508.508 0 1 0-.001 1.019h5.605a5.096 5.096 0 0 1 5.094-5.095 5.096 5.096 0 0 1 5.095 5.095h10.698V24.925h-9.981a1.527 1.527 0 0 1-1.15-2.535c1.11-1.27 2.639-3.016 3.827-4.373a6.62 6.62 0 0 1 4.984-2.262h2.32v-.51ZM2.805 29.51h.252a1.531 1.531 0 0 1 1.528 1.529v1.019a.51.51 0 0 1-.51.509H2.437l.29-2.617.078-.44Zm39.542-13.302-13.31 13.31V20.87l8.815-8.813a.512.512 0 0 0 .133-.487 6.102 6.102 0 0 1-.19-1.516c0-3.408 2.676-7.035 7.035-7.035.548 0 1.08.072 1.584.208l-3.159 3.157a.509.509 0 0 0-.133.484l.72 2.883a.505.505 0 0 0 .37.37l2.882.72a.51.51 0 0 0 .484-.134l3.159-3.158c.134.504.206 1.035.206 1.583 0 4.359-3.627 7.035-7.035 7.035-.379 0-.75-.034-1.11-.1a.508.508 0 0 0-.45.14ZM7.781 25.34l3.46-.727-2.733-2.943-.727 3.67Zm20.238-8.565v7.132h-9.981a.51.51 0 0 1-.384-.845l3.827-4.374a5.608 5.608 0 0 1 4.218-1.913h2.32Z" fill="#000"/></svg><svg fill="none" viewBox="0 0 54 54" id="icon-details-3" xmlns="http://www.w3.org/2000/svg"><path fill-rule="evenodd" clip-rule="evenodd" d="M47.25 25.096V8.416a.663.663 0 0 0-.665-.687H26.906c-.252 0-.451 0-.652.212-5.767 5.629-11.706 11.09-17.498 16.678-.491.398-.213 1.203.425 1.203h37.404c.398-.014.664-.317.664-.726ZM1.355 35.43h51.302v-1.335H1.356v1.335Zm51.302 1.348H1.356v.768A2.45 2.45 0 0 0 3.8 39.99h.93c1.33-.409 2.737-.623 4.2-.623 4.119 0 7.84 1.719 10.47 4.47h33.257v-7.058Zm0-4.032H1.356v-8.405C7.854 17.881 17.75 8.812 24.249 2.351h25.948a2.455 2.455 0 0 1 2.459 2.444l.002 27.953ZM20.53 45.186h32.128v1.335H21.42a13.277 13.277 0 0 0-.89-1.335Zm1.58 2.683h30.548v1.349c0 1.334-1.103 2.432-2.459 2.432H23.213a14.049 14.049 0 0 0-1.103-3.78Zm25.14-20.25v1.705a2.303 2.303 0 0 1-2.3 2.287h-8.836c-1.277 0-2.312-1.03-2.312-2.287v-1.705a.68.68 0 0 1 .678-.674h12.105a.679.679 0 0 1 .664.674Zm-12.092.674v1.03a.96.96 0 0 0 .956.954h8.836a.966.966 0 0 0 .956-.953v-1.03H35.158Zm-9.327-7.135 9.78-9.729c.639-.62 1.595.33.957.951l-9.78 9.729c-.625.634-1.58-.319-.957-.951Zm4.051 0 9.78-9.729c.624-.62 1.583.33.956.951l-9.78 9.729c-.636.634-1.592-.319-.956-.951Zm-19.027 3.318c5.37-5.155 10.841-10.206 16.17-15.414h18.883v15.414H10.855ZM24.09 1.014H50.2a3.79 3.79 0 0 1 3.8 3.78V49.22C54 51.293 52.298 53 50.2 53H22.708c-.386 0-.718-.198-.758-.607-.678-6.557-6.246-11.67-13.022-11.67-1.302 0-2.564.186-3.76.542-.412.119-.931.065-1.368.065C1.716 41.33 0 39.638 0 37.552v-13.47c0-.2.065-.358.213-.502C6.776 17.05 16.939 7.732 23.506 1.202a.616.616 0 0 1 .584-.188Z" fill="#000"/></svg><svg fill="none" viewBox="0 0 54 54" id="icon-details-4" xmlns="http://www.w3.org/2000/svg"><path fill-rule="evenodd" clip-rule="evenodd" d="M8.417 31.626h5.387a2.12 2.12 0 0 1 2.12 2.115v3.05a2.132 2.132 0 0 1-2.12 2.126H8.417a2.132 2.132 0 0 1-2.121-2.126v-3.05a2.12 2.12 0 0 1 2.121-2.115Zm-1.13-19.529 3.506 3.495 5.894-6.378c.597-.645 1.563.24.966.886L11.3 16.998a.668.668 0 0 1-.952.013l-4.003-3.985c-.608-.61.32-1.548.941-.929Zm5.54 13.567h30.57c-1.59-3.822-3.151-7.656-4.74-11.479-.177-.443-.711-.683-1.17-.683H22.762c.065-.419.114-.862.139-1.316h14.586c.814 0 1.983.505 2.3 1.278 1.869 4.506 3.724 9.012 5.58 13.518H8.646l.941-2.304c.535.343 1.055.683 1.6 1 .812.494.888.43 1.639-.014Zm2.059-1.316c3.52-2.43 6.48-5.43 7.586-9.517h15.031c1.308 3.166 2.604 6.34 3.914 9.517h-2.669c-1.562-4.63-8.194-4.63-9.77 0H14.886Zm8.066-13.477c.038-1.759.038-3.518.027-5.279a.714.714 0 0 0-.42-.656L12.396.114c-.318-.152-.483-.152-.8 0L1.431 4.936a.716.716 0 0 0-.42.656c-.025 2.05-.013 4.088.051 6.125.166 5.454 3.353 9.25 7.421 12.186l-.19.444H1.776a.665.665 0 0 0-.634.861 4.128 4.128 0 0 0 3.99 3.088c-2.276 1.821-4.118 5.138-4.118 7.35v8.378c0 2.113 1.741 3.85 3.876 3.85h.152v4.783c0 .749.597 1.343 1.334 1.343h5.083c.735 0 1.348-.608 1.348-1.343v-4.784H41.19v4.785c0 .748.597 1.342 1.348 1.342h5.094c.735 0 1.348-.608 1.348-1.343v-4.784h.154c2.121 0 3.862-1.736 3.862-3.849v-8.377c0-2.215-1.83-5.53-4.103-7.351 1.93 0 3.596-1.202 4.079-3.088a.668.668 0 0 0-.637-.861h-6.618l-4.79-11.62c-.496-1.215-2.4-1.86-3.621-1.86l-14.354.004ZM11.99 1.394l9.67 4.579c.013 1.899 0 3.81-.052 5.708-.19 6.162-4.687 10.025-9.618 12.949-4.918-2.924-9.415-6.784-9.607-12.949-.062-1.896-.076-3.809-.051-5.708l9.658-4.58ZM30.4 24.348c1.386-2.885 5.539-2.885 6.925 0H30.4Zm-.203 13.11v5.722h-2.53V37.46h2.53Zm1.32 5.722V37.46h2.415c.062 0 .127.051.127.127v5.468a.129.129 0 0 1-.127.127h-2.414Zm-9.034-5.721v5.721h-2.4c-.076 0-.128-.05-.128-.127v-5.467c0-.076.052-.127.128-.127h2.4Zm1.321 5.721V37.46h2.542v5.721h-2.542Zm-3.721-7.037h13.849c.8 0 1.448.646 1.448 1.44v5.468c0 .797-.648 1.443-1.449 1.443H20.084c-.8 0-1.449-.648-1.449-1.443v-5.468c0-.794.649-1.44 1.449-1.44ZM7.21 26.982l.545-1.318H2.752a2.81 2.81 0 0 0 2.375 1.318h2.084Zm39.043-1.318.547 1.318h2.173a2.77 2.77 0 0 0 2.362-1.318h-5.082ZM11.48 47.876H6.36v4.784c0 .011.013.025.013.025h5.082c.011 0 .025-.012.025-.025v-4.784Zm36.173 0h-5.145v4.784c0 .011.013.025.027.025h5.094c.01 0 .024-.012.024-.025v-4.784ZM8.28 28.298c-2.642 0-5.932 4.873-5.932 7.35v8.378a2.55 2.55 0 0 0 2.54 2.531h44.24a2.55 2.55 0 0 0 2.54-2.531v-8.377c0-2.48-3.29-7.351-5.946-7.351H8.28Zm31.928 3.328h5.387a2.12 2.12 0 0 1 2.121 2.115v3.05a2.132 2.132 0 0 1-2.12 2.126h-5.387a2.134 2.134 0 0 1-2.124-2.126v-3.05a2.124 2.124 0 0 1 2.123-2.115Zm0 1.316h5.387c.431 0 .8.367.8.797v3.05a.803.803 0 0 1-.8.797H40.21a.794.794 0 0 1-.8-.797v-3.05c0-.43.355-.797.8-.797Zm-31.79 0h5.387c.431 0 .8.367.8.797v3.05a.803.803 0 0 1-.8.797H8.418a.793.793 0 0 1-.8-.797v-3.05c0-.43.355-.797.8-.797Z" fill="#000"/></svg><svg fill="none" viewBox="0 0 54 54" id="icon-details-5" xmlns="http://www.w3.org/2000/svg"><path fill-rule="evenodd" clip-rule="evenodd" d="m17.58 18.53-2.217-2.242c-.624-.636.332-1.59.956-.954l2.217 2.242.612-.61c.519-.517 1.301-.424 1.846.013l.876.704-6.932-6.987c-.187-.198-.227-.45-.16-.702.653-2.267.094-4.8-1.7-6.577a6.67 6.67 0 0 0-6.374-1.763l3.054 3.062a.742.742 0 0 1 .187.73L8.989 8.11c-.093.292-.57.756-.862.861l-2.67.942a.709.709 0 0 1-.732-.172L1.672 6.693a6.606 6.606 0 0 0 1.754 6.363 6.664 6.664 0 0 0 6.547 1.709c.278-.08.518-.08.743.145l7.53 7.581-1.234-1.537c-.439-.543-.532-1.326-.014-1.842l.582-.582Zm18.9 11.506 1.979-.212c.691-.08 1.301-.569 1.301-1.299v-3.037c0-.73-.61-1.22-1.301-1.299l-1.98-.212-.146-.396a19.524 19.524 0 0 0-.292-.704l-.173-.385 1.236-1.537c.357-.439.49-1.047.238-1.537L47.449 9.263h2.35a.676.676 0 0 0 .584-.345c1.169-2.04 2.337-4.07 3.508-6.099.158-.277.158-.702-.094-.954L52.124.195c-.238-.237-.663-.251-.955-.079-2.033 1.155-4.063 2.32-6.11 3.487a.68.68 0 0 0-.346.597v2.332L34.58 16.715c-.479-.212-1.035-.08-1.46.263l-1.54 1.234-.385-.173c-.239-.107-.465-.2-.704-.291l-.397-.145-.212-1.975c-.08-.69-.57-1.3-1.302-1.3h-3.042c-.731 0-1.222.61-1.301 1.3l-.213 1.975-.238.091-7.61-7.675c.624-2.623.08-5.343-2.138-7.556C11.821.247 8.141-.494 5.218.74c-.437.186-.598.741-.238 1.1l3.547 3.552L7.716 7.7l-2.31.81-3.548-3.541c-.371-.36-.93-.2-1.116.238C-.492 8.123.25 11.794 2.468 14.01c2.217 2.213 4.942 2.756 7.57 2.134l7.65 7.7-.054.133-1.965.213c-.706.079-1.316.569-1.316 1.299v3.036c0 .73.61 1.22 1.316 1.3l.677.065L.49 45.678a1.686 1.686 0 0 0 0 2.375l5.418 5.408a1.686 1.686 0 0 0 2.39 0l15.858-15.789.08.702c.079.704.57 1.313 1.3 1.313h3.043c.73 0 1.221-.609 1.3-1.313l.213-1.961.134-.054 7.717 7.769c-.638 2.623-.094 5.343 2.123 7.556 2.218 2.213 5.898 2.955 8.832 1.723.437-.186.599-.741.227-1.112l-3.547-3.54.823-2.307 2.31-.81 3.547 3.541c.36.36.93.2 1.103-.238 1.236-2.917.505-6.588-1.713-8.801-2.22-2.228-4.941-2.771-7.584-2.134l-7.677-7.73.094-.24Zm-.052-11.614-.824-.82 10.24-10.288a.685.685 0 0 0 .227-.543V4.583c1.806-1.033 3.612-2.069 5.432-3.116.332.345.677.69 1.023 1.022-1.035 1.816-2.084 3.62-3.121 5.436l-2.192-.012a.72.72 0 0 0-.544.227l-10.24 10.282Zm-18.66 11.971.014.04c.093.238.186.464.292.702l.172.385-1.233 1.537a1.468 1.468 0 0 0-.346.741L2.364 48.022l-.916-.928c-.133-.119-.133-.331 0-.464l16.32-16.237Zm-.53 4.749 1.672 1.655L4.992 50.64l-1.673-1.655 13.918-13.842Zm2.987 2.239c.28-.04.545-.159.771-.346l1.54-1.23.386.172c.238.107.465.198.703.291l.026.014L7.34 52.522a.366.366 0 0 1-.48 0l-.915-.93 14.28-14.211ZM31.58 35.8l1.54 1.232c.544.439 1.33.532 1.846.014l.479-.478 2.35 2.36c.624.637 1.58-.317.956-.94l-2.35-2.374.716-.716c.52-.515.426-1.299-.014-1.842l-.651-.81 6.932 6.988c.227.226.479.212.757.147a6.704 6.704 0 0 1 6.546 1.697 6.706 6.706 0 0 1 1.755 6.377l-3.054-3.048a.715.715 0 0 0-.743-.187l-2.656.942c-.292.105-.771.583-.876.875l-.944 2.666a.705.705 0 0 0 .173.73l3.067 3.048a6.718 6.718 0 0 1-6.388-1.75 6.685 6.685 0 0 1-1.7-6.576c.079-.252.04-.518-.16-.703l-7.58-7.651Zm-15.885-7.315v-2.958l2.523-.265a.722.722 0 0 0 .584-.49 8.155 8.155 0 0 1 .837-2.015.663.663 0 0 0-.066-.742l-1.607-1.99 2.098-2.094 1.993 1.605a.686.686 0 0 0 .743.065 8.561 8.561 0 0 1 2.018-.835.703.703 0 0 0 .491-.569l.266-2.546h2.963l.266 2.532c.04.266.227.504.49.583.704.187 1.382.479 2.02.835a.66.66 0 0 0 .743-.065l1.992-1.605 2.099 2.095-1.608 1.975a.727.727 0 0 0-.054.784c.36.622.638 1.285.825 1.987a.67.67 0 0 0 .57.478l2.552.28v2.957l-2.552.266a.7.7 0 0 0-.57.49 8.13 8.13 0 0 1-.825 1.989.7.7 0 0 0 .054.767l1.608 1.987-2.099 2.097-1.992-1.605a.66.66 0 0 0-.743-.065c-.638.36-1.316.65-2.02.835-.265.068-.45.305-.49.585l-.266 2.52h-2.963l-.266-2.531a.706.706 0 0 0-.49-.572 8.66 8.66 0 0 1-2.02-.835.664.664 0 0 0-.742.066l-1.993 1.604-2.098-2.096 1.607-1.987a.659.659 0 0 0 .066-.742 7.996 7.996 0 0 1-.837-2.015c-.065-.264-.306-.45-.57-.49l-2.537-.27Zm11.369 5.142A6.624 6.624 0 0 0 33.69 27a6.613 6.613 0 0 0-6.626-6.614c-3.68 0-6.64 2.954-6.64 6.614 0 3.659 2.96 6.628 6.64 6.628Zm0-11.906c2.909 0 5.285 2.375 5.285 5.278a5.297 5.297 0 0 1-5.285 5.29c-2.923 0-5.3-2.375-5.3-5.29 0-2.903 2.38-5.278 5.3-5.278Z" fill="#000"/></svg><svg fill="none" viewBox="0 0 54 55" id="icon-details-6" xmlns="http://www.w3.org/2000/svg"><path d="M28.731 18.543c.008-.04.02-.071.02-.11a.491.491 0 0 0-.487-.486H14.726c-1.05 0-1.977.668-2.308 1.66l-5.556 16.62a2.401 2.401 0 0 0 .338 2.198 2.393 2.393 0 0 0 1.972 1.004H44.84c.79 0 1.51-.37 1.977-1.011.46-.642.584-1.447.338-2.198L41.592 19.6a2.428 2.428 0 0 0-2.308-1.66l-9.266.109s-.047.012-.07.012a.328.328 0 0 0-.105.02c-.032.012-.052.031-.078.046-.027.02-.051.031-.078.05a.379.379 0 0 0-.066.086c-.012.02-.031.031-.046.058l-1.31 2.743a.5.5 0 0 0 .058.518l2.529 3.124-5.746 2.697 2.957-2.957a.492.492 0 0 0 0-.688l-2.167-2.166 2.692-2.692a.468.468 0 0 0 .136-.37l.007.012Zm-3.859 2.71a.492.492 0 0 0 0 .689l2.167 2.166-4.584 4.584a.483.483 0 0 0-.05.622c.09.137.245.207.396.207.07 0 .143-.012.206-.046l8.825-4.15a.484.484 0 0 0 .167-.747l-2.73-3.366 1.05-2.198 8.956-.104c.622 0 1.18.4 1.381 1l5.563 16.619a1.46 1.46 0 0 1-.201 1.322c-.28.39-.713.61-1.187.61h-4.973V32.42a.497.497 0 0 0-.265-.435l-6.27-3.139 2.159-1.926a.484.484 0 0 0 .039-.688.484.484 0 0 0-.688-.039l-5.389 4.812a.484.484 0 0 0-.039.688c.098.11.226.163.363.163a.466.466 0 0 0 .323-.124l2.451-2.186 6.349 3.171v5.746H24.72v-6.043a.496.496 0 0 0-.264-.435l-6.271-3.139 2.16-1.926a.484.484 0 0 0 .038-.688.484.484 0 0 0-.688-.039l-5.388 4.812a.484.484 0 0 0-.04.688c.098.11.227.163.363.163a.466.466 0 0 0 .323-.124l2.451-2.186 6.35 3.178v5.746H9.162a1.46 1.46 0 0 1-1.381-1.926l5.556-16.62c.202-.595.758-.999 1.388-.999h12.481l-2.341 2.342.006-.012Z" fill="#000"/><path d="M52.6 18.421a.48.48 0 0 0-.615-.304.487.487 0 0 0-.304.615 25.901 25.901 0 0 1 1.342 8.28c0 14.349-11.679 26.027-26.027 26.027C12.645 53.039.973 41.36.973 27.012S12.653.985 27 .985c8.287 0 16.06 3.96 20.963 10.614l-2.225-.343a.486.486 0 0 0-.143.96l3.357.514h.071c.233 0 .44-.176.479-.416l.467-3.035a.486.486 0 0 0-.96-.143l-.285 1.848C43.64 4.098 35.587 0 27.003 0 12.112.012 0 12.124 0 27.012c0 14.889 12.112 27 27 27s27-12.111 27-27c0-2.937-.467-5.828-1.393-8.59H52.6Z" fill="#000"/></svg><svg fill="none" viewBox="0 0 54 54" id="icon-details-7" xmlns="http://www.w3.org/2000/svg"><path fill-rule="evenodd" clip-rule="evenodd" d="M39.373 26.627c-.435 0-.873-.04-1.309-.124a.62.62 0 0 1 .232-1.218 5.691 5.691 0 0 0 5.11-1.574 5.74 5.74 0 0 0 0-8.095 5.662 5.662 0 0 0-4.037-1.677c-1.525 0-2.959.595-4.037 1.676a5.726 5.726 0 0 0-1.57 5.125.62.62 0 1 1-1.214.234 6.969 6.969 0 0 1 1.91-6.236 6.894 6.894 0 0 1 4.91-2.039c1.855 0 3.6.725 4.913 2.04 2.709 2.715 2.709 7.133 0 9.849a6.931 6.931 0 0 1-4.908 2.04Z" fill="#000"/><path fill-rule="evenodd" clip-rule="evenodd" d="M39.329 34.392c-2.539 0-5.093-.66-7.397-2.015a.622.622 0 0 1-.22-.85.617.617 0 0 1 .846-.22c5.26 3.095 11.952 2.23 16.273-2.1a13.38 13.38 0 0 0 3.933-9.516c0-3.596-1.397-6.976-3.933-9.519-5.234-5.243-13.75-5.243-18.984 0a13.498 13.498 0 0 0-2.095 16.321.618.618 0 1 1-1.067.626 14.74 14.74 0 0 1 2.288-17.824c5.715-5.727 15.017-5.727 20.731 0A14.62 14.62 0 0 1 54 19.691a14.61 14.61 0 0 1-4.296 10.392 14.633 14.633 0 0 1-10.375 4.309Z" fill="#000"/><path fill-rule="evenodd" clip-rule="evenodd" d="M36.814 19.28c-.784 0-1.521.308-2.075.863L17.972 36.955a2.921 2.921 0 0 0-.86 2.079c0 .786.305 1.525.86 2.08a2.91 2.91 0 0 0 2.074.863c.784 0 1.52-.306 2.075-.863l16.767-16.81c.555-.557.86-1.295.86-2.08 0-.786-.306-1.524-.86-2.08a2.905 2.905 0 0 0-2.074-.863ZM20.046 43.217a4.136 4.136 0 0 1-2.949-1.224 4.16 4.16 0 0 1-1.221-2.958 4.16 4.16 0 0 1 1.221-2.957l16.767-16.811a4.137 4.137 0 0 1 2.95-1.225c1.114 0 2.16.435 2.948 1.226a4.158 4.158 0 0 1 1.222 2.957 4.152 4.152 0 0 1-1.223 2.956L22.996 41.992a4.139 4.139 0 0 1-2.95 1.224Z" fill="#000"/><path fill-rule="evenodd" clip-rule="evenodd" d="M16.997 45.19c-.361 0-.721-.138-.996-.413l-1.682-1.686a1.408 1.408 0 0 1 0-1.995l1.806-1.809a.616.616 0 0 1 .873 0 .62.62 0 0 1 0 .876l-1.804 1.81a.164.164 0 0 0-.05.12c0 .032.008.08.05.12l1.682 1.687a.168.168 0 0 0 .24 0l1.805-1.81a.617.617 0 0 1 .875 0c.24.243.24.635 0 .877l-1.805 1.81a1.402 1.402 0 0 1-.994.412ZM31.052 40.467a.615.615 0 0 1-.437-.182l-3.396-3.405a.62.62 0 0 1 0-.876.616.616 0 0 1 .873 0l3.398 3.405a.62.62 0 0 1-.438 1.058ZM28.968 42.557a.613.613 0 0 1-.437-.182l-3.395-3.405a.62.62 0 0 1 0-.876.617.617 0 0 1 .875 0l3.395 3.405a.62.62 0 0 1-.438 1.058Z" fill="#000"/><path fill-rule="evenodd" clip-rule="evenodd" d="m29.038 42.744 5.021 5.035c.377.377.877.585 1.41.585.532 0 1.032-.208 1.409-.585a2.005 2.005 0 0 0 0-2.826l-5.022-5.035-2.818 2.826Zm6.43 6.859a3.212 3.212 0 0 1-2.283-.947l-5.199-5.213a.993.993 0 0 1 0-1.399l3.172-3.18a.984.984 0 0 1 1.395 0l5.2 5.213a3.247 3.247 0 0 1-.001 4.579 3.215 3.215 0 0 1-2.283.947ZM39.309 30.843c-1.6 0-3.212-.345-4.718-1.056a.62.62 0 0 1 .527-1.122 9.88 9.88 0 0 0 11.19-1.959c3.85-3.86 3.85-10.142 0-14.003-3.85-3.86-10.116-3.86-13.966 0a9.944 9.944 0 0 0-1.953 11.222.62.62 0 0 1-.296.825.617.617 0 0 1-.822-.296 11.188 11.188 0 0 1 2.196-12.627c4.334-4.345 11.383-4.344 15.715 0 4.333 4.344 4.332 11.411 0 15.755a11.121 11.121 0 0 1-7.873 3.261ZM26.393 34.023h-1.458a.62.62 0 0 1 0-1.24h1.458a.62.62 0 0 1 0 1.24ZM29.158 31.25h-1.457a.62.62 0 0 1 0-1.24h1.457c.342 0 .618.276.618.62 0 .342-.276.62-.618.62Z" fill="#000"/><path fill-rule="evenodd" clip-rule="evenodd" d="M31.924 28.476h-1.457a.62.62 0 0 1 0-1.24h1.457a.619.619 0 0 1 0 1.24ZM.618 49.644a.62.62 0 0 1 0-1.24 22.21 22.21 0 0 0 14.532-5.42.62.62 0 0 1 .808.938 23.436 23.436 0 0 1-15.34 5.722ZM30.437 45.641a.62.62 0 0 1-.438-1.058l3.692-3.702a.616.616 0 0 1 .874 0 .621.621 0 0 1 0 .877l-3.691 3.701a.616.616 0 0 1-.437.182Z" fill="#000"/></svg><svg fill="none" viewBox="0 0 32 30" id="icon-diamond" xmlns="http://www.w3.org/2000/svg"><path fill-rule="evenodd" clip-rule="evenodd" d="m15.862 29.767 5.96-12.324H9.902l5.96 12.324ZM21.94 16.209l-1.536-4.46H11.32l-1.536 4.46h12.158ZM18.58 26.976 29.222 14.27l-5.952 3.011-3.382 6.99-1.308 2.704ZM2.5 14.271l10.643 12.705-4.689-9.694-5.953-3.01ZM4.447 8.613l-3.334 3.574 7.45 3.77 1.557-4.513-5.673-2.83ZM26.397 7.673l-.977-1.05-4.662-1.433h-9.791L6.303 6.623l-.978 1.05 5.697 2.842H20.7l5.698-2.842ZM30.61 12.187l-3.335-3.574-5.672 2.83 1.556 4.514 7.452-3.77ZM2.65 1.592A2.659 2.659 0 0 1 0 4.242a2.659 2.659 0 0 1 2.65 2.652 2.659 2.659 0 0 1 2.652-2.651A2.659 2.659 0 0 1 2.65 1.592ZM28.541 21.228a3.087 3.087 0 0 1-3.078 3.078 3.087 3.087 0 0 1 3.078 3.078 3.087 3.087 0 0 1 3.078-3.078 3.087 3.087 0 0 1-3.078-3.078ZM23.614 26.302a1.855 1.855 0 0 1-1.849 1.849c1.017 0 1.85.832 1.85 1.849 0-1.017.832-1.85 1.848-1.85a1.855 1.855 0 0 1-1.849-1.848ZM6.892 0c0 .876-.716 1.592-1.592 1.592.876 0 1.592.716 1.592 1.592 0-.876.716-1.592 1.592-1.592A1.596 1.596 0 0 1 6.892 0Z" fill="#2F282E"/></svg><svg fill="none" viewBox="0 0 30 30" id="icon-garage" xmlns="http://www.w3.org/2000/svg"><path d="M29.28 11.97 16.425.54a2.144 2.144 0 0 0-2.849 0L.72 11.97c-.458.408-.719.99-.719 1.602v5.54a1.52 1.52 0 0 1 .482-.085h3.064v-1.17h22.907v1.708h-15.9c.239.273.387.626.387 1.015v.057h15.513v1.703H10.94v1.072h15.513V30h2.434C29.5 30 30 29.502 30 28.887V13.571c0-.612-.263-1.196-.72-1.602ZM10.604 9.445c0-.373.303-.677.678-.677h7.44c.373 0 .677.302.677.677v1.137a.678.678 0 0 1-.678.678h-7.44a.678.678 0 0 1-.677-.678V9.446Zm15.85 7.338H3.546v-.74c0-.83.67-1.5 1.495-1.5h19.918c.825 0 1.494.67 1.494 1.5v.74Z" fill="#000"/><path d="M9.387 20.098H.482A.482.482 0 0 0 0 20.58v8.938c0 .267.216.482.482.482h8.905a.482.482 0 0 0 .482-.482V20.58a.482.482 0 0 0-.482-.482Zm-4.63 3.11-1.082.707a.25.25 0 0 1-.385-.21V21.17h3.289v2.537c0 .198-.22.316-.38.209l-1.083-.708a.314.314 0 0 0-.359 0Zm3.274 5.519H6.58a.536.536 0 1 1 0-1.072h1.45a.536.536 0 1 1 0 1.072Zm0-1.652H6.58a.536.536 0 1 1 0-1.071h1.45a.536.536 0 1 1 0 1.071Z" fill="#000"/></svg><svg fill="none" viewBox="0 0 30 30" id="icon-guarantee" xmlns="http://www.w3.org/2000/svg"><path d="M15.003 29.992h1.41l.09-2.295a.487.487 0 0 1 .43-.466 12.63 12.63 0 0 0 2.534-.68.488.488 0 0 1 .589.195l1.226 1.946 2.445-1.411-1.074-2.04a.488.488 0 0 1 .134-.613 12.49 12.49 0 0 0 1.858-1.86.489.489 0 0 1 .608-.126l2.038 1.074 1.411-2.445-1.946-1.225a.488.488 0 0 1-.189-.604 12.312 12.312 0 0 0 .678-2.535.488.488 0 0 1 .463-.413l2.296-.09v-2.822l-2.296-.089a.488.488 0 0 1-.466-.43 12.601 12.601 0 0 0-.68-2.533.488.488 0 0 1 .195-.59l1.946-1.226-1.411-2.444-2.04 1.074a.489.489 0 0 1-.613-.134 12.785 12.785 0 0 0-1.86-1.86.488.488 0 0 1-.126-.607l1.074-2.038-2.445-1.411-1.225 1.946a.488.488 0 0 1-.604.189 12.333 12.333 0 0 0-2.536-.678.488.488 0 0 1-.413-.464l-.089-2.295h-1.411A14.953 14.953 0 0 0 4.397 4.385 14.949 14.949 0 0 0 .004 14.991a14.95 14.95 0 0 0 4.393 10.606 14.951 14.951 0 0 0 10.607 4.393l-.001.002Zm-1.965-28.23a.487.487 0 0 1 .554.413.487.487 0 0 1-.412.554 12.388 12.388 0 0 0-7.573 4.173 12.349 12.349 0 0 0-3.003 8.091 12.35 12.35 0 0 0 3.003 8.092c1.898 2.2 4.56 3.73 7.573 4.172a.49.49 0 0 1-.142.967 13.356 13.356 0 0 1-8.167-4.501 13.322 13.322 0 0 1-3.244-8.73c0-3.334 1.222-6.386 3.244-8.73a13.35 13.35 0 0 1 8.167-4.5ZM8.382 18.218l4.354-2.49a2.378 2.378 0 0 1 .582-2.418c.322-.32.734-.55 1.195-.648V4.382a.49.49 0 0 1 .979 0V7.2a7.785 7.785 0 0 1 5.03 2.272 7.787 7.787 0 0 1 2.289 5.52 7.785 7.785 0 0 1-2.288 5.52 7.788 7.788 0 0 1-5.52 2.288 7.763 7.763 0 0 1-3.91-1.05 7.86 7.86 0 0 1-2.612-2.465l-1.531.875a.489.489 0 0 1-.486-.847l1.917-1.097v.001Zm.949.584a6.876 6.876 0 0 0 2.25 2.106 6.8 6.8 0 0 0 3.422.916 6.81 6.81 0 0 0 4.829-1.998 6.805 6.805 0 0 0 2-4.831 6.809 6.809 0 0 0-2-4.829 6.808 6.808 0 0 0-4.341-1.983v4.48c.46.096.872.325 1.193.646.433.433.7 1.028.7 1.685 0 .658-.268 1.252-.698 1.683-.433.433-1.028.7-1.686.7a2.373 2.373 0 0 1-1.78-.802L9.33 18.8v.002Zm5.672-5.21a1.401 1.401 0 0 0-1.404 1.403 1.4 1.4 0 0 0 1.404 1.403 1.4 1.4 0 0 0 1.404-1.403 1.4 1.4 0 0 0-1.404-1.404Z" fill="#000"/></svg><svg fill="none" viewBox="0 0 32 30" id="icon-hand" xmlns="http://www.w3.org/2000/svg"><path d="M31.239 13.297v.937c-.02.078-.044.156-.057.237a4.036 4.036 0 0 1-.8 1.875.643.643 0 0 0-.124.674 4.06 4.06 0 0 1-.522 3.602.709.709 0 0 0-.078.39c.048.41.076.82.081 1.231a3.99 3.99 0 0 1-1.053 2.55.574.574 0 0 0-.118.328c-.004.48-.032.96-.085 1.436a3.835 3.835 0 0 1-1.811 2.709 4.998 4.998 0 0 1-2.437.7c-.822.04-1.646 0-2.471.03a15.52 15.52 0 0 1-4.292-.515c-1.29-.34-2.559-.756-3.836-1.152-.975-.313-1.922-.703-2.946-.813-.884-.096-1.334-.668-1.328-1.593.025-3.964 0-7.931 0-11.898v-.372A1.25 1.25 0 0 1 10.41 12.5c.316-.037.61-.18.837-.403a31.705 31.705 0 0 0 1.8-1.924c.936-1.11 1.873-2.25 2.792-3.377a6.56 6.56 0 0 0 .578-.775c.509-.859.662-1.837.85-2.811.187-.975.44-1.875 1.071-2.671a1.25 1.25 0 0 1 1.134-.534c.482.019.96.082 1.43.187.473.127.922.327 1.332.593a3.196 3.196 0 0 1 1.293 2.031 7.663 7.663 0 0 1-.2 4.395c-.263.703-.625 1.365-.96 2.05-.105.224-.19.462-.312.73h5.43a3.583 3.583 0 0 1 3.227 1.903c.218.45.395.92.528 1.403ZM0 13.496c.1-.346.331-.64.644-.821.187-.1.394-.16.606-.175h5.623c.743 0 1.25.569 1.25 1.378v12.198c0 .722-.345 1.212-.963 1.366-.147.028-.297.04-.447.034H1.406a1.25 1.25 0 0 1-1.36-.906.363.363 0 0 0-.046-.05V13.496Zm3.73 11.5a1.249 1.249 0 0 0 1.268-1.25 1.287 1.287 0 0 0-1.25-1.25 1.278 1.278 0 0 0-1.249 1.25 1.25 1.25 0 0 0 1.23 1.25Z" fill="#2F282E"/></svg><svg fill="none" viewBox="0 0 109 43" id="icon-hatchback" xmlns="http://www.w3.org/2000/svg"><path d="M17.325 25.686a8.56 8.56 0 0 0-8.561 8.56c0 .365.03.723.076 1.076.53 4.22 4.123 7.485 8.485 7.485 4.482 0 8.154-3.446 8.525-7.832.02-.243.038-.483.038-.732 0-4.726-3.833-8.558-8.563-8.558Zm-4.288 5.333 1.747 1.748a2.901 2.901 0 0 0-.31.753h-2.462a5.353 5.353 0 0 1 1.025-2.5Zm-1.033 3.982h2.479c.07.262.173.514.31.742l-1.752 1.75A5.358 5.358 0 0 1 12.005 35Zm4.581 4.564a5.312 5.312 0 0 1-2.483-1.03l1.74-1.74c.229.133.481.23.743.299v2.47Zm0-8.167a2.844 2.844 0 0 0-.756.316l-1.744-1.745a5.324 5.324 0 0 1 2.5-1.035v2.464Zm1.483-2.464c.91.124 1.77.48 2.501 1.036l-1.744 1.744a2.845 2.845 0 0 0-.757-.316v-2.464Zm0 10.63v-2.47c.263-.07.514-.167.743-.302l1.742 1.743a5.371 5.371 0 0 1-2.485 1.029Zm3.547-2.065-1.756-1.758a2.92 2.92 0 0 0 .32-.741h2.46a5.378 5.378 0 0 1-1.024 2.5Zm-1.436-3.981a2.972 2.972 0 0 0-.31-.754l1.746-1.747c.541.716.898 1.568 1.026 2.499l-2.462.002Zm69.217-7.832a8.56 8.56 0 0 0-8.56 8.56c0 .365.029.723.075 1.076.529 4.22 4.123 7.485 8.484 7.485 4.483 0 8.155-3.446 8.526-7.832.02-.243.037-.483.037-.732.002-4.726-3.831-8.558-8.562-8.558Zm-4.289 5.333 1.749 1.748a2.865 2.865 0 0 0-.31.753h-2.463a5.352 5.352 0 0 1 1.024-2.5Zm-1.032 3.982h2.48c.07.262.172.514.308.742l-1.75 1.749A5.36 5.36 0 0 1 84.075 35Zm4.582 4.564a5.313 5.313 0 0 1-2.483-1.03l1.74-1.74c.228.133.48.23.743.299v2.47Zm0-8.167c-.266.068-.52.174-.756.316l-1.745-1.745a5.327 5.327 0 0 1 2.5-1.035v2.464Zm1.481-2.464a5.3 5.3 0 0 1 2.5 1.036l-1.744 1.744a2.852 2.852 0 0 0-.756-.316v-2.464Zm0 10.63v-2.47c.263-.07.514-.167.743-.302l1.742 1.743a5.361 5.361 0 0 1-2.485 1.029Zm3.548-2.065-1.756-1.758a2.92 2.92 0 0 0 .319-.741h2.46a5.355 5.355 0 0 1-1.023 2.5Zm-1.435-3.981a2.968 2.968 0 0 0-.31-.754l1.747-1.747a5.35 5.35 0 0 1 1.026 2.499l-2.463.002Z" fill="#999"/><path d="m107.626 22.962-1.646-1.572.004-4.959a5.249 5.249 0 0 0-1.353-3.522l-6.082-6.735V6.17a2.95 2.95 0 0 0-2.41-2.84c-7.23-1.358-29.667-4.871-47.426-.1-10.972 2.947-22.126 8.88-22.126 8.88s-19.37 2.468-24.012 8.518C.958 22.734.28 25.5.035 27.992a6.908 6.908 0 0 0 5.359 7.43l1.79.405c-.014-.098-.038-.194-.05-.294a9.998 9.998 0 0 1-.088-1.291c0-5.67 4.613-10.282 10.282-10.282 5.67 0 10.284 4.612 10.284 10.282 0 .297-.02.584-.044.875-.03.346-.078.69-.143 1.032l51.905.105c-.047-.239-.095-.477-.125-.721a9.99 9.99 0 0 1-.09-1.291c0-5.67 4.614-10.282 10.284-10.282 5.67 0 10.283 4.612 10.283 10.282-.006.69-.08 1.377-.221 2.053l.708.001 2.953-1.618a9.98 9.98 0 0 0 5.18-8.375l.06-1.535a2.392 2.392 0 0 0-.736-1.806ZM36.79 12.807l.794-3.173S49.608 3.345 69.728 4.03v9.377L37.502 15.95s.174-2.012-.712-3.142Zm51.637-.875-15.153 1.196V4.227a99.663 99.663 0 0 1 16.21 2.552 1.74 1.74 0 0 1 1.247 1.153 1.738 1.738 0 0 1-.325 1.667l-1.98 2.333Z" fill="#999"/></svg><svg fill="none" viewBox="0 0 189 26" id="icon-logo" xmlns="http://www.w3.org/2000/svg"><path d="M178.708 22.338h-4.866l-3.742-6.592v9.887h-6.55V6.225h6.924l5.801 10.253 5.801-10.253h6.923v19.408h-6.549v-9.887l-3.742 6.592ZM155.13 11.17v14.465h-6.55V11.169h-6.175V6.225h18.9v4.944h-6.175Zm-21.895-4.944h6.924v19.408h-6.55v-10.62l-6.362 10.62h-6.924V6.225h6.55v10.62l6.362-10.62Zm-22.642 1.099c0-1.465-.749-2.197-2.246-2.197h-7.485v8.056h7.486c1.497 0 2.245-.733 2.245-2.197V7.324ZM94.126 0h15.719c2.619 0 4.522.58 5.707 1.74 1.185 1.159 1.778 3.02 1.778 5.584v3.662c0 2.563-.593 4.425-1.778 5.584-1.185 1.16-3.088 1.74-5.707 1.74h-8.983v7.323h-6.736V0ZM83.833 12.268c0-.977-.499-1.465-1.496-1.465h-4.492c-.998 0-1.497.488-1.497 1.465v7.323c0 .977.499 1.465 1.497 1.465h4.492c.998 0 1.496-.488 1.496-1.465v-7.323Zm6.55 7.873c0 1.831-.53 3.265-1.59 4.302C87.733 25.481 86.266 26 84.395 26h-8.607c-1.871 0-3.338-.518-4.398-1.556-1.06-1.037-1.59-2.472-1.59-4.302v-8.423c0-1.83.53-3.265 1.59-4.302 1.06-1.038 2.527-1.557 4.398-1.557h8.608c1.87 0 3.337.519 4.397 1.557 1.06 1.037 1.59 2.472 1.59 4.302v8.423Zm-28.63-8.972v14.465h-6.55V11.169h-6.175V6.225h18.9v4.944h-6.176Zm-20.772.732c0-.366-.124-.671-.374-.915a1.284 1.284 0 0 0-.935-.366h-4.304v3.296h4.304c.374 0 .686-.122.935-.366.25-.245.374-.55.374-.916v-.733Zm1.123 7.507c0-.366-.124-.67-.374-.915a1.284 1.284 0 0 0-.935-.366h-5.427v3.113h5.426c.375 0 .686-.123.936-.367s.374-.55.374-.916v-.549Zm.936 6.225H28.817V6.225h13.1c1.671 0 3.025.482 4.06 1.446 1.036.965 1.554 2.045 1.554 3.241 0 1.196-.262 2.173-.786 2.93-.524.756-1.26 1.269-2.209 1.537 1.123.196 2.09.733 2.9 1.611.812.88 1.217 2.051 1.217 3.516 0 1.464-.518 2.685-1.553 3.662-1.035.978-2.389 1.465-4.06 1.465Zm-32.374-9.337h5.988L13.661 7.69l-2.995 8.606Zm-3.368 9.337H0L9.917 0h7.486l9.918 25.633h-7.298l-1.684-4.577H8.982l-1.684 4.577Z" fill="#FDCE2A"/></svg><svg fill="none" viewBox="0 0 25 29" id="icon-play" xmlns="http://www.w3.org/2000/svg"><g clip-path="url(#aua)"><path fill-rule="evenodd" clip-rule="evenodd" d="m.02.009 12.546 7.187 12.431 7.302-12.43 7.187L.02 28.987V.01Z" fill="#fff"/></g><defs><clipPath id="aua"><path fill="#fff" d="M0 0h25v29H0z"/></clipPath></defs></svg><svg fill="none" viewBox="0 0 37 37" id="icon-plus" xmlns="http://www.w3.org/2000/svg"><path d="M18.5.5a.75.75 0 0 0-.75.75v16.5H1.25a.75.75 0 0 0 0 1.5h16.5v16.5a.75.75 0 0 0 1.5 0v-16.5h16.5a.75.75 0 0 0 0-1.5h-16.5V1.25A.75.75 0 0 0 18.5.5Z" fill="#000"/></svg><svg fill="none" viewBox="0 0 30 30" id="icon-procente" xmlns="http://www.w3.org/2000/svg"><path d="M10.495 9.757c-.54 0-.918.244-1.098.743a3.77 3.77 0 0 0 .004 2.618c.173.483.548.728 1.08.73.543.008.918-.24 1.117-.72.176-.428.222-.873.226-1.332-.007-.446-.053-.889-.221-1.312-.2-.488-.555-.724-1.106-.728l-.002.001ZM19.575 16.357c-.525.005-.897.26-1.092.728-.18.428-.21.878-.228 1.332.019.447.048.89.225 1.308.2.48.548.724 1.084.728.548.005.93-.236 1.11-.72.323-.878.32-1.763.005-2.64-.176-.491-.563-.736-1.103-.736h-.002Z" fill="#000"/><path d="M15 0C6.728 0 0 6.728 0 15s6.728 15 15 15c8.27 0 15-6.728 15-15S23.27 0 15 0ZM8.315 14.175c-.45-.498-.65-1.11-.762-1.759a4.126 4.126 0 0 1-.053-.709c0-.754.142-1.478.544-2.122.558-.897 1.42-1.246 2.437-1.246 1.387 0 2.411.789 2.774 2.135.248.918.236 1.837-.089 2.737-.442 1.215-1.478 1.887-2.774 1.846-.81-.026-1.522-.27-2.077-.882Zm4.132 7.28c-.082.149-.168.206-.337.201-.442-.011-.882-.004-1.32-.004-.22 0-.22-.005-.115-.2l3.435-6.37c1.166-2.16 2.336-4.32 3.495-6.483.086-.161.18-.217.356-.207.206.015.416.005.627.005h.694c.226 0 .226.004.113.21-.675 1.244-1.35 2.49-2.022 3.734-1.642 3.039-3.285 6.075-4.923 9.113h-.003Zm9.73-1.467c-.449.993-1.213 1.572-2.305 1.658-1.117.09-2.077-.217-2.726-1.197-.31-.469-.461-1.002-.529-1.553-.108-.87-.004-1.713.397-2.504.447-.878 1.193-1.325 2.15-1.426.67-.067 1.326.008 1.915.37.791.492 1.185 1.234 1.35 2.123.054.277.056.556.073.796-.008.623-.08 1.197-.323 1.733h-.001Z" fill="#000"/></svg><svg fill="none" viewBox="0 0 120 43" id="icon-sedan" xmlns="http://www.w3.org/2000/svg"><path d="M20.947 24.59a9.055 9.055 0 0 0-9.055 9.055c0 .385.032.765.08 1.137.561 4.463 4.36 7.915 8.974 7.915a9.054 9.054 0 0 0 9.017-8.281c.021-.254.038-.512.038-.773a9.051 9.051 0 0 0-9.054-9.054Zm-4.532 5.643 1.845 1.846a3.124 3.124 0 0 0-.328.796H15.33a5.593 5.593 0 0 1 1.085-2.642Zm-1.098 4.21h2.623c.074.278.183.543.329.785l-1.85 1.85a5.664 5.664 0 0 1-1.102-2.636Zm4.847 4.827a5.64 5.64 0 0 1-2.627-1.09l1.841-1.842c.243.141.508.246.786.319v2.613Zm0-8.637c-.281.073-.55.186-.8.333l-1.845-1.844a5.626 5.626 0 0 1 2.645-1.094v2.605Zm1.568-2.607a5.635 5.635 0 0 1 2.644 1.095l-1.843 1.844c-.25-.148-.52-.26-.8-.334l-.001-2.605Zm0 11.241v-2.61c.275-.07.539-.177.784-.32l1.842 1.842a5.643 5.643 0 0 1-2.626 1.088Zm3.749-2.181-1.857-1.86a3.06 3.06 0 0 0 .338-.782h2.602a5.65 5.65 0 0 1-1.083 2.642Zm-1.516-4.211a3.165 3.165 0 0 0-.328-.796l1.847-1.846a5.652 5.652 0 0 1 1.084 2.643h-2.603v-.001Zm72.17-8.286a9.056 9.056 0 0 0-9.055 9.056c0 .385.031.765.08 1.137.561 4.463 4.36 7.915 8.972 7.915 4.739 0 8.624-3.642 9.019-8.281.021-.254.038-.512.038-.773a9.056 9.056 0 0 0-5.589-8.365 9.05 9.05 0 0 0-3.465-.689Zm-4.532 5.644 1.844 1.846a3.124 3.124 0 0 0-.329.796h-2.602c.128-.96.502-1.87 1.087-2.642Zm-1.097 4.21h2.623c.074.278.183.543.329.785l-1.85 1.85a5.617 5.617 0 0 1-1.102-2.636Zm4.846 4.827a5.64 5.64 0 0 1-2.627-1.09l1.84-1.842c.243.141.509.246.787.319v2.613Zm0-8.637c-.281.073-.55.186-.8.333l-1.845-1.844a5.621 5.621 0 0 1 2.645-1.094v2.605Zm1.569-2.607a5.635 5.635 0 0 1 2.644 1.095l-1.844 1.844a3.06 3.06 0 0 0-.8-.334v-2.605Zm0 11.241v-2.61c.275-.07.539-.177.784-.32l1.842 1.842a5.648 5.648 0 0 1-2.626 1.088Zm3.748-2.181-1.857-1.857c.146-.245.264-.504.337-.784h2.602a5.637 5.637 0 0 1-1.082 2.64Zm-1.516-4.211a3.124 3.124 0 0 0-.329-.796l1.847-1.846a5.656 5.656 0 0 1 1.085 2.643h-2.603v-.001Z" fill="#FDCE2A"/><path d="M117.878 19.902v-6.7a2.181 2.181 0 0 0-1.848-2.158c-2.555-.4-7.083-1.155-9.118-1.782-2.917-.9-14.19-5.672-18.092-6.568-3.905-.896-21.508-5.68-38.368.163-2.853.989-15.688 7.124-23.235 10.314-2.222.049-24.221 4.634-25.393 7.777C.653 24.093.286 25.618.07 26.416c-.216.798 0 4.616 1.634 7.275 1.666.942 4.873 1.575 8.581 2-.042-.227-.088-.45-.117-.68a10.408 10.408 0 0 1-.095-1.364c0-5.996 4.877-10.875 10.874-10.875 5.997 0 10.874 4.878 10.874 10.875 0 .308-.02.614-.044.915a10.584 10.584 0 0 1-.354 1.955h.03l53.977-1.086c-.025-.14-.056-.278-.074-.42a10.373 10.373 0 0 1-.095-1.364c0-5.996 4.877-10.874 10.874-10.874 5.997 0 10.875 4.877 10.875 10.874 0 .023-.002.043-.003.065l.23-.02 9.228-1.738S120 30.073 120 24.895c.001-3.453-2.122-4.993-2.122-4.993Zm-53.544-6.353-20.158.618c.37-3.02-1.418-3.698-1.418-3.698 8.014-7.274 24.165-7.52 24.165-7.52l-2.59 10.6Zm22.623-.922-18.37.617L70.253 2.95C79.746 2.826 85.17 4.92 85.17 4.92l2.712 4.377-.925 3.329Zm10.357-.063h-5.118l-5.117-7.027a96.88 96.88 0 0 1 8.74 3.986 2.855 2.855 0 0 1 1.495 3.04Z" fill="#FDCE2A"/></svg><svg fill="none" viewBox="0 0 15 15" id="icon-star" xmlns="http://www.w3.org/2000/svg"><g clip-path="url(#aya)"><path d="M14.96 5.754a.796.796 0 0 0-.685-.548l-4.33-.393L8.234.807a.797.797 0 0 0-1.467 0L5.056 4.813l-4.331.393a.799.799 0 0 0-.453 1.395l3.273 2.87-.965 4.25a.797.797 0 0 0 1.186.863L7.5 12.35l3.733 2.233a.797.797 0 0 0 1.187-.862l-.965-4.25 3.273-2.87a.798.798 0 0 0 .233-.848Z" fill="#FC0"/></g><defs><clipPath id="aya"><path fill="#fff" d="M0 0h15v15H0z"/></clipPath></defs></svg><svg fill="none" viewBox="0 0 22 18" id="icon-telegram" xmlns="http://www.w3.org/2000/svg"><path d="m.963 8.874 4.83 1.64 11.468-7.01c.166-.102.337.124.193.256L8.772 11.75l-.322 4.474a.37.37 0 0 0 .628.29l2.673-2.628 4.887 3.699a.905.905 0 0 0 1.431-.527l3.403-15.45A1.134 1.134 0 0 0 19.96.306L.94 7.59c-.597.229-.58 1.079.024 1.284Z" fill="#fff"/></svg><svg fill="none" viewBox="0 0 26 25" id="icon-wallet" xmlns="http://www.w3.org/2000/svg"><path fill-rule="evenodd" clip-rule="evenodd" d="M22.855 5.878c.75 0 1.433.308 1.929.804.496.492.804 1.176.804 1.929v3.213h-5.991a3.281 3.281 0 0 0-3.27 3.27v.69a3.281 3.281 0 0 0 3.27 3.27h5.991v3.213c0 .752-.308 1.436-.802 1.93a2.727 2.727 0 0 1-1.93.803H5.714C2.575 25 0 22.425 0 19.285v-15.6A3.691 3.691 0 0 1 3.684 0h15.77a.745.745 0 1 1 0 1.49H3.685c-2.881 0-2.886 4.388 0 4.388h19.171Zm2.733 6.799V18.2h-5.991a2.422 2.422 0 0 1-2.417-2.416v-.692a2.422 2.422 0 0 1 2.417-2.416h5.991Zm-4.209 1.017c.48 0 .917.195 1.232.51a1.74 1.74 0 0 1 .002 2.468 1.74 1.74 0 0 1-1.234.512 1.74 1.74 0 0 1-1.234-.511l-.025-.027a1.74 1.74 0 0 1 .025-2.44 1.743 1.743 0 0 1 1.234-.512Zm.631 1.113a.893.893 0 0 0-1.28 1.245l.018.018a.89.89 0 0 0 1.523-.631c0-.246-.1-.47-.26-.632Z" fill="#2F282E"/></svg><svg fill="none" viewBox="0 0 24 24" id="icon-whatsapp" xmlns="http://www.w3.org/2000/svg"><path d="M12.003 0h-.006C5.38 0 0 5.382 0 12c0 2.625.846 5.058 2.284 7.034L.79 23.49l4.613-1.474A11.896 11.896 0 0 0 12.003 24C18.619 24 24 18.616 24 12c0-6.617-5.38-12-11.997-12Zm6.982 16.945c-.289.818-1.438 1.496-2.354 1.694-.628.134-1.447.24-4.204-.903-3.526-1.461-5.797-5.045-5.974-5.277-.17-.232-1.425-1.897-1.425-3.62 0-1.722.875-2.56 1.227-2.92.29-.295.768-.43 1.227-.43.148 0 .282.007.402.013.352.015.53.036.762.593.29.697.994 2.419 1.079 2.596.085.177.17.417.05.65-.112.24-.211.346-.388.55-.177.204-.345.36-.522.579-.162.19-.345.394-.141.747.204.345.909 1.495 1.947 2.42 1.34 1.192 2.426 1.573 2.814 1.735.29.12.635.091.846-.133.269-.29.6-.77.938-1.243.24-.338.543-.38.86-.26.324.112 2.039.96 2.391 1.135.353.177.585.261.671.41.084.148.084.845-.206 1.664Z" fill="#fff"/></svg><svg fill="none" viewBox="0 0 23 34" id="icon-yandex" xmlns="http://www.w3.org/2000/svg"><path d="M23 34h-6.045V4.596h-2.699c-4.942 0-7.527 2.428-7.527 6.052 0 4.11 1.787 6.016 5.474 8.444l3.042 2.018L6.5 34H0l7.87-11.508C3.344 19.317.797 16.215.797 10.985.798 4.446 5.436 0 14.218 0h8.744v34H23Z" fill="#FC3F1D"/></svg></svg>