<svg width="189" height="26" viewBox="0 0 189 26" fill="none" xmlns="http://www.w3.org/2000/svg">
<path d="M178.708 22.3381H173.842L170.1 15.7463V25.6334H163.55V6.2252H170.474L176.275 16.4783L182.076 6.2252H188.999V25.6334H182.45V15.7463L178.708 22.3381ZM155.13 11.169V25.634H148.58V11.169H142.405V6.2252H161.305V11.169H155.13ZM133.235 6.2252H140.159V25.6334H133.609V15.0137L127.247 25.6334H120.323V6.2252H126.873V16.8449L133.235 6.2252ZM110.593 7.32383C110.593 5.85918 109.844 5.12657 108.347 5.12657H100.862V13.183H108.348C109.845 13.183 110.593 12.4504 110.593 10.9857V7.32383H110.593ZM94.1256 0H109.845C112.464 0 114.367 0.57977 115.552 1.73931C116.737 2.89885 117.33 4.76055 117.33 7.32383V10.9857C117.33 13.549 116.737 15.4107 115.552 16.5703C114.367 17.7298 112.464 18.3096 109.845 18.3096H100.862V25.6334H94.1256V0ZM83.8335 12.2677C83.8335 11.2914 83.3343 10.803 82.3366 10.803H77.8453C76.847 10.803 76.3484 11.2914 76.3484 12.2677V19.5915C76.3484 20.5677 76.847 21.0562 77.8453 21.0562H82.3366C83.3349 21.0562 83.8335 20.5677 83.8335 19.5915V12.2677ZM90.3831 20.1408C90.3831 21.9721 89.8528 23.4063 88.7928 24.4434C87.7322 25.4811 86.2665 25.9994 84.3955 25.9994H75.7876C73.9166 25.9994 72.4502 25.4806 71.3902 24.4434C70.3297 23.4057 69.8 21.9715 69.8 20.1408V11.7184C69.8 9.88711 70.3303 8.45292 71.3902 7.41577C72.4508 6.37804 73.9166 5.85918 75.7876 5.85918H84.3955C86.2665 5.85918 87.7328 6.37804 88.7928 7.41577C89.8534 8.45349 90.3831 9.88769 90.3831 11.7184V20.1408ZM61.7523 11.169V25.634H55.2027V11.169H49.0278V6.2252H67.9278V11.169H61.7523ZM40.9813 11.9011C40.9813 11.5351 40.8568 11.2299 40.6072 10.9857C40.3576 10.7415 40.0458 10.6197 39.6717 10.6197H35.3677V13.9156H39.6717C40.0458 13.9156 40.3582 13.7938 40.6072 13.5496C40.8568 13.3054 40.9813 13.0003 40.9813 12.6343V11.9011ZM42.1041 19.4082C42.1041 19.0422 41.9796 18.7371 41.73 18.4929C41.4804 18.2487 41.1686 18.1269 40.7945 18.1269H35.3677V21.2395H40.7945C41.1686 21.2395 41.4804 21.1171 41.73 20.8729C41.9796 20.6287 42.1041 20.3235 42.1041 19.9575V19.4082ZM43.0396 25.6334H28.8175V6.2252H41.9167C43.5881 6.2252 44.9417 6.70729 45.9776 7.67146C47.0129 8.63564 47.5309 9.71588 47.5309 10.9122C47.5309 12.1085 47.2689 13.0848 46.7445 13.8415C46.2207 14.5982 45.4849 15.1108 44.5365 15.3791C45.6593 15.5745 46.6259 16.1117 47.4369 16.9903C48.2479 17.8694 48.6531 19.041 48.6531 20.5057C48.6531 21.9703 48.1351 23.1914 47.0998 24.1676C46.0645 25.1456 44.7115 25.6334 43.0396 25.6334ZM10.6662 16.2956H16.6544L13.6606 7.68985L10.6662 16.2956ZM7.29776 25.6334H0L9.91748 0H17.4026L27.3206 25.6334H20.0229L18.3386 21.0562H8.98199L7.29776 25.6334Z" fill="#FDCE2A"/>
</svg>
