<svg width="264" height="256" viewBox="0 0 264 256" fill="none" xmlns="http://www.w3.org/2000/svg">
<g opacity="0.2">
<mask id="path-1-inside-1_1_151" fill="white">
<path d="M64.65 126.4C46.45 126.4 31.1667 120.333 18.8 108.2C6.43333 95.8333 0.25 80.9 0.25 63.4C0.25 45.9 6.43333 31.0833 18.8 18.95C31.1667 6.81665 46.45 0.749988 64.65 0.749988C82.85 0.749988 98.0167 6.81665 110.15 18.95C122.283 31.0833 128.35 45.9 128.35 63.4C128.35 81.1333 122.167 96.0667 109.8 108.2C97.6667 120.333 82.6167 126.4 64.65 126.4ZM36.65 212.5L197.65 37.5L222.15 51.5L60.8 226.15L36.65 212.5ZM64.3 81.95C69.6667 81.95 73.9833 80.2 77.25 76.7C80.75 72.9667 82.5 68.5333 82.5 63.4C82.5 58.2667 80.75 53.95 77.25 50.45C73.9833 46.95 69.6667 45.2 64.3 45.2C59.1667 45.2 54.85 46.95 51.35 50.45C48.0833 53.95 46.45 58.2667 46.45 63.4C46.45 68.7667 48.0833 73.2 51.35 76.7C54.85 80.2 59.1667 81.95 64.3 81.95ZM200.1 255.9C181.667 255.9 166.267 249.833 153.9 237.7C141.767 225.567 135.7 210.75 135.7 193.25C135.7 175.517 141.767 160.583 153.9 148.45C166.267 136.317 181.667 130.25 200.1 130.25C218.3 130.25 233.467 136.433 245.6 148.8C257.733 160.933 263.8 175.75 263.8 193.25C263.8 210.75 257.617 225.567 245.25 237.7C233.117 249.833 218.067 255.9 200.1 255.9ZM186.8 206.2C190.3 209.7 194.617 211.45 199.75 211.45C204.883 211.45 209.083 209.7 212.35 206.2C215.85 202.467 217.6 198.15 217.6 193.25C217.6 187.883 215.85 183.45 212.35 179.95C209.083 176.45 204.883 174.7 199.75 174.7C194.617 174.7 190.3 176.45 186.8 179.95C183.533 183.45 181.9 187.883 181.9 193.25C181.9 198.383 183.533 202.7 186.8 206.2Z"/>
</mask>
<path d="M18.8 108.2L18.0929 108.907L18.0997 108.914L18.8 108.2ZM18.8 18.95L18.0997 18.2362H18.0997L18.8 18.95ZM110.15 18.95L110.857 18.2429L110.15 18.95ZM109.8 108.2L109.1 107.486L109.093 107.493L109.8 108.2ZM36.65 212.5L35.9141 211.823L35.0608 212.75L36.1579 213.371L36.65 212.5ZM197.65 37.5L198.146 36.6318L197.454 36.2362L196.914 36.8229L197.65 37.5ZM222.15 51.5L222.885 52.1786L223.737 51.2553L222.646 50.6317L222.15 51.5ZM60.8 226.15L60.3079 227.021L60.9972 227.41L61.5345 226.829L60.8 226.15ZM77.25 76.7L76.5205 76.016L76.519 76.0177L77.25 76.7ZM77.25 50.45L76.519 51.1323L76.5307 51.1449L76.5429 51.1571L77.25 50.45ZM51.35 50.45L50.6429 49.7429L50.6307 49.7551L50.6189 49.7677L51.35 50.45ZM51.35 76.7L50.6189 77.3823L50.6307 77.3949L50.6429 77.4071L51.35 76.7ZM153.9 237.7L153.193 238.407L153.2 238.414L153.9 237.7ZM153.9 148.45L153.2 147.736L153.193 147.743L153.9 148.45ZM245.6 148.8L244.886 149.5L244.893 149.507L245.6 148.8ZM245.25 237.7L244.55 236.986L244.543 236.993L245.25 237.7ZM186.8 206.2L186.069 206.882L186.081 206.895L186.093 206.907L186.8 206.2ZM212.35 206.2L211.62 205.516L211.619 205.518L212.35 206.2ZM212.35 179.95L211.619 180.632L211.631 180.645L211.643 180.657L212.35 179.95ZM186.8 179.95L186.093 179.243L186.081 179.255L186.069 179.268L186.8 179.95ZM64.65 125.4C46.6972 125.4 31.6698 119.426 19.5003 107.486L18.0997 108.914C30.6635 121.241 46.2028 127.4 64.65 127.4V125.4ZM19.5071 107.493C7.32811 95.3139 1.25 80.635 1.25 63.4H-0.75C-0.75 81.165 5.53856 96.3528 18.0929 108.907L19.5071 107.493ZM1.25 63.4C1.25 46.1655 7.32752 31.6069 19.5003 19.6638L18.0997 18.2362C5.53915 30.5597 -0.75 45.6345 -0.75 63.4H1.25ZM19.5003 19.6638C31.6698 7.72392 46.6972 1.74999 64.65 1.74999V-0.250011C46.2028 -0.250011 30.6635 5.90938 18.0997 18.2362L19.5003 19.6638ZM64.65 1.74999C82.6026 1.74999 97.5094 7.72356 109.443 19.6571L110.857 18.2429C98.524 5.90975 83.0974 -0.250011 64.65 -0.250011V1.74999ZM109.443 19.6571C121.385 31.5988 127.35 46.1593 127.35 63.4H129.35C129.35 45.6407 123.182 30.5679 110.857 18.2429L109.443 19.6571ZM127.35 63.4C127.35 80.8719 121.27 95.5458 109.1 107.486L110.5 108.914C123.064 96.5875 129.35 81.3947 129.35 63.4H127.35ZM109.093 107.493C97.1567 119.429 82.3654 125.4 64.65 125.4V127.4C82.868 127.4 98.1766 121.238 110.507 108.907L109.093 107.493ZM37.3859 213.177L198.386 38.1771L196.914 36.8229L35.9141 211.823L37.3859 213.177ZM197.154 38.3682L221.654 52.3682L222.646 50.6317L198.146 36.6318L197.154 38.3682ZM221.415 50.8214L60.0655 225.471L61.5345 226.829L222.885 52.1786L221.415 50.8214ZM61.2921 225.279L37.1421 211.629L36.1579 213.371L60.3079 227.021L61.2921 225.279ZM64.3 82.95C69.9068 82.95 74.5014 81.1105 77.9811 77.3823L76.519 76.0177C73.4653 79.2895 69.4265 80.95 64.3 80.95V82.95ZM77.9795 77.3839C81.6539 73.4646 83.5 68.7865 83.5 63.4H81.5C81.5 68.2802 79.8461 72.4687 76.5205 76.0161L77.9795 77.3839ZM83.5 63.4C83.5 58.0124 81.6523 53.438 77.9571 49.7429L76.5429 51.1571C79.8477 54.4619 81.5 58.5209 81.5 63.4H83.5ZM77.9811 49.7677C74.5014 46.0395 69.9068 44.2 64.3 44.2V46.2C69.4265 46.2 73.4653 47.8605 76.519 51.1323L77.9811 49.7677ZM64.3 44.2C58.9124 44.2 54.3381 46.0477 50.6429 49.7429L52.0571 51.1571C55.3619 47.8523 59.4209 46.2 64.3 46.2V44.2ZM50.6189 49.7677C47.1663 53.467 45.45 58.0334 45.45 63.4H47.45C47.45 58.4999 49.0004 54.433 52.0811 51.1323L50.6189 49.7677ZM45.45 63.4C45.45 68.9868 47.1581 73.6743 50.6189 77.3823L52.0811 76.0177C49.0086 72.7257 47.45 68.5465 47.45 63.4H45.45ZM50.6429 77.4071C54.3381 81.1023 58.9124 82.95 64.3 82.95V80.95C59.4209 80.95 55.3619 79.2977 52.0571 75.9929L50.6429 77.4071ZM200.1 254.9C181.91 254.9 166.767 248.924 154.6 236.986L153.2 238.414C165.766 250.743 181.423 256.9 200.1 256.9V254.9ZM154.607 236.993C142.665 225.051 136.7 210.491 136.7 193.25H134.7C134.7 211.009 140.868 226.082 153.193 238.407L154.607 236.993ZM136.7 193.25C136.7 175.772 142.668 161.096 154.607 149.157L153.193 147.743C140.865 160.071 134.7 175.261 134.7 193.25H136.7ZM154.6 149.164C166.767 137.226 181.91 131.25 200.1 131.25V129.25C181.423 129.25 165.766 135.407 153.2 147.736L154.6 149.164ZM200.1 131.25C218.047 131.25 232.951 137.336 244.886 149.5L246.314 148.1C233.982 135.531 218.553 129.25 200.1 129.25V131.25ZM244.893 149.507C256.835 161.449 262.8 176.009 262.8 193.25H264.8C264.8 175.491 258.632 160.418 246.307 148.093L244.893 149.507ZM262.8 193.25C262.8 210.485 256.723 225.043 244.55 236.986L245.95 238.414C258.511 226.09 264.8 211.015 264.8 193.25H262.8ZM244.543 236.993C232.607 248.929 217.815 254.9 200.1 254.9V256.9C218.318 256.9 233.627 250.738 245.957 238.407L244.543 236.993ZM186.093 206.907C189.788 210.602 194.362 212.45 199.75 212.45V210.45C194.871 210.45 190.812 208.798 187.507 205.493L186.093 206.907ZM199.75 212.45C205.138 212.45 209.611 210.601 213.081 206.882L211.619 205.518C208.556 208.799 204.629 210.45 199.75 210.45V212.45ZM213.08 206.884C216.745 202.974 218.6 198.416 218.6 193.25H216.6C216.6 197.884 214.955 201.959 211.62 205.516L213.08 206.884ZM218.6 193.25C218.6 187.643 216.761 182.947 213.057 179.243L211.643 180.657C214.939 183.953 216.6 188.124 216.6 193.25H218.6ZM213.081 179.268C209.611 175.549 205.138 173.7 199.75 173.7V175.7C204.629 175.7 208.556 177.351 211.619 180.632L213.081 179.268ZM199.75 173.7C194.362 173.7 189.788 175.548 186.093 179.243L187.507 180.657C190.812 177.352 194.871 175.7 199.75 175.7V173.7ZM186.069 179.268C182.608 182.976 180.9 187.663 180.9 193.25H182.9C182.9 188.104 184.459 183.924 187.531 180.632L186.069 179.268ZM180.9 193.25C180.9 198.617 182.616 203.183 186.069 206.882L187.531 205.518C184.45 202.217 182.9 198.15 182.9 193.25H180.9Z" fill="black" mask="url(#path-1-inside-1_1_151)"/>
</g>
</svg>
