<svg width="40" height="40" viewBox="0 0 40 40" fill="none" xmlns="http://www.w3.org/2000/svg">
<path d="M20 40C31.028 40 40 31.0276 40 20C40 8.97244 31.028 0 20 0C8.972 0 0 8.97244 0 20C0 31.0276 8.97244 40 20 40ZM20 2.10533C29.8671 2.10533 37.8947 10.1329 37.8947 20C37.8947 29.8671 29.8671 37.8947 20 37.8947C10.1329 37.8947 2.10533 29.8671 2.10533 20C2.10533 10.1329 10.1329 2.10533 20 2.10533Z" fill="white"/>
<path d="M11.8132 28.188C12.019 28.3938 12.2879 28.496 12.5577 28.496C12.8266 28.496 13.0963 28.3938 13.3017 28.188L20.0008 21.4885L26.6994 28.1871C26.9052 28.3929 27.1746 28.4956 27.4439 28.4956C27.7132 28.4956 27.9825 28.3929 28.1883 28.1871C28.5994 27.776 28.5994 27.1098 28.1883 26.6987L21.4892 20L28.1879 13.3009C28.599 12.8898 28.599 12.2231 28.1879 11.8125C27.7768 11.4013 27.1105 11.4013 26.6994 11.8125L20.0008 18.5111L13.3017 11.8125C12.8905 11.4013 12.2243 11.4013 11.8132 11.8125C11.4021 12.2236 11.4021 12.8898 11.8132 13.3009L18.5123 20L11.8132 26.6991C11.4021 27.1107 11.4021 27.7773 11.8132 28.188Z" fill="white"/>
</svg>
