<svg width="22" height="18" viewBox="0 0 22 18" fill="none" xmlns="http://www.w3.org/2000/svg">
<path d="M0.962691 8.874L5.79269 10.5142L17.2609 3.50325C17.4274 3.402 17.5977 3.62775 17.4544 3.75975L8.77244 11.751L8.44994 16.2247C8.44467 16.2997 8.46231 16.3745 8.50052 16.4391C8.53872 16.5038 8.59569 16.5554 8.66386 16.5869C8.73203 16.6185 8.80819 16.6286 8.88223 16.6159C8.95628 16.6032 9.0247 16.5682 9.07844 16.5157L11.7514 13.887L16.6384 17.586C17.1649 17.985 17.9277 17.7037 18.0694 17.0587L21.4722 1.60875C21.6664 0.727498 20.8024 -0.0165019 19.9602 0.305998L0.93869 7.59C0.34169 7.81875 0.35819 8.6685 0.962691 8.874Z" fill="white"/>
</svg>
