<svg width="30" height="31" viewBox="0 0 30 31" fill="none" xmlns="http://www.w3.org/2000/svg">
<path d="M14.4694 9.15018C14.434 9.1737 14.4001 9.19924 14.3677 9.22667C14.2136 9.35211 14.0595 9.48366 13.9239 9.62133L13.8961 9.65193C13.776 9.79266 13.665 9.93951 13.5571 10.0894L13.5386 10.117C13.4893 10.2026 13.4431 10.2883 13.3969 10.3831L13.3722 10.4351C13.3319 10.5108 13.2979 10.5896 13.2705 10.6707C13.2397 10.7625 13.212 10.8543 13.1904 10.9461L13.1565 11.0837C13.1478 11.1282 13.1416 11.1732 13.138 11.2183V11.252C13.1119 11.4429 13.1119 11.6363 13.138 11.8272V11.8792C13.1472 11.9513 13.1605 12.0228 13.1781 12.0933V12.1301C13.1965 12.1943 13.215 12.2585 13.2304 12.2983C13.2722 12.4259 13.327 12.5489 13.3938 12.6654L13.4277 12.7266C13.4927 12.8333 13.5647 12.9355 13.6434 13.0326L13.6681 13.0601L13.6989 13.0938C13.7617 13.1629 13.8286 13.2283 13.8992 13.2896L13.93 13.314C13.9862 13.361 14.0448 13.4049 14.1057 13.4456C14.2032 13.5116 14.3063 13.5689 14.4139 13.6169L14.4509 13.6322C14.5085 13.6572 14.5683 13.6767 14.6297 13.6904H14.6451C14.7071 13.7031 14.7712 13.7023 14.833 13.6881C14.8947 13.6738 14.9526 13.6464 15.0026 13.6077C15.0499 13.571 15.0889 13.5247 15.117 13.472C15.1452 13.4193 15.1618 13.3613 15.1659 13.3018V13.1794C15.1659 13.1427 15.1659 13.0938 15.1659 13.0356L15.1906 12.7878L15.2245 12.5981C15.246 12.5012 15.2781 12.4068 15.32 12.3167C15.3354 12.2891 15.3508 12.2616 15.3632 12.2371L15.3847 12.2096L15.4186 12.1668L15.4772 12.1086L15.5573 12.0505H15.5758L15.6806 11.9832C15.7304 11.9572 15.7787 11.9286 15.8255 11.8975C15.8923 11.8715 15.9564 11.8387 16.0165 11.7996L16.1244 11.7446L16.3001 11.6528L16.6576 11.457C16.9878 11.2539 17.2842 11.0011 17.5359 10.7074C17.8018 10.3982 18.0049 10.0408 18.1338 9.65499C18.2537 9.29958 18.3039 8.92469 18.2818 8.55054C18.2632 8.23525 18.1924 7.92516 18.0722 7.63271C17.9082 7.22993 17.6505 6.87139 17.3202 6.5864C17.2354 6.51294 17.1447 6.44644 17.049 6.38753L17.0089 6.36306C16.9599 6.33149 16.9083 6.30387 16.8548 6.28045C16.7958 6.25722 16.7324 6.2471 16.6691 6.2508C16.6057 6.2545 16.5439 6.27193 16.4881 6.30187C16.431 6.33321 16.3819 6.37706 16.3446 6.43007C16.3072 6.48309 16.2825 6.54388 16.2723 6.60781L16.2508 6.73325C16.2508 6.76384 16.2508 6.80361 16.2292 6.8495L16.2015 6.98718C16.1487 7.25641 16.0756 7.52129 15.9826 7.77957C15.9385 7.90084 15.8828 8.01763 15.8162 8.12834C15.7602 8.21911 15.6941 8.30328 15.619 8.37921C15.541 8.45734 15.4576 8.52992 15.3693 8.59643C15.2707 8.66986 15.1597 8.74634 15.0365 8.82283L14.8485 8.91461L14.7992 8.9452L14.7221 8.99415L14.5588 9.10429L14.4694 9.15018ZM14.6944 3.75644C14.8003 4.26017 14.8086 4.77931 14.719 5.28614C14.6169 5.8399 14.4076 6.36875 14.1026 6.84339C13.8157 7.29742 13.459 7.70413 13.0455 8.04879L12.5894 8.39451L12.3644 8.55972L12.2134 8.6668C12.1399 8.73349 12.0593 8.79197 11.973 8.84118C11.9102 8.89678 11.8444 8.94887 11.7758 8.99721C11.7357 9.03699 11.6895 9.07676 11.6432 9.11347L11.6093 9.14101C11.5793 9.17534 11.5474 9.20802 11.5138 9.23891C11.5138 9.23891 11.4953 9.25726 11.4861 9.2695L11.4059 9.37046C11.3939 9.39563 11.3805 9.42015 11.3659 9.44389L11.3412 9.48672V9.51731C11.3412 9.55709 11.3165 9.5938 11.2981 9.63663C11.2518 9.7869 11.2229 9.94187 11.2118 10.0986V10.3801L11.1994 10.7503C11.1994 10.839 11.1994 10.9155 11.2179 10.9705L11.2395 11.1388C11.2474 11.2021 11.2416 11.2663 11.2226 11.3271C11.2035 11.388 11.1717 11.4442 11.1292 11.4919C11.0866 11.5396 11.0343 11.5778 10.9758 11.604C10.9172 11.6302 10.8537 11.6437 10.7895 11.6436H10.7556C10.6755 11.6359 10.5961 11.6216 10.5183 11.6008H10.4721C10.3131 11.5589 10.1584 11.5026 10.0098 11.4325C9.91679 11.3885 9.82625 11.3394 9.73859 11.2857L9.69544 11.2612C9.58828 11.1941 9.48536 11.1205 9.38724 11.0409L9.33177 10.9981L9.30403 10.9736C9.17905 10.8589 9.06169 10.7362 8.95269 10.6065L8.89721 10.533C8.78575 10.3909 8.6887 10.2382 8.60751 10.0772C8.57669 10.0191 8.53971 9.93951 8.50272 9.85385L8.48115 9.80184C8.44493 9.71193 8.41406 9.61999 8.38869 9.52649L8.36712 9.45001C8.29359 9.19727 8.25421 8.93595 8.25 8.67291V8.60867C8.24682 8.55058 8.24682 8.49237 8.25 8.43428L8.26849 8.23848C8.26849 8.10692 8.29931 7.97537 8.32397 7.84075C8.34359 7.72746 8.37245 7.61593 8.41026 7.50728L8.43492 7.42773C8.47807 7.29312 8.5243 7.16462 8.57361 7.03613L8.58902 7.00248C8.70305 6.77302 8.83249 6.54356 8.9681 6.32329L8.99275 6.28657C9.15918 6.0663 9.34101 5.85214 9.52901 5.64716C9.56557 5.60506 9.60468 5.56521 9.64613 5.52784L9.76016 5.42076C9.82488 5.35957 9.89577 5.29838 9.96665 5.23413L10.0899 5.124L10.1177 5.09952L10.3827 4.88842C10.5461 4.75075 10.6909 4.61613 10.8204 4.48764C10.9369 4.36977 11.045 4.24404 11.144 4.11133C11.2412 3.97815 11.3228 3.83446 11.3874 3.68301C11.4626 3.50431 11.5204 3.31888 11.56 3.12926C11.6394 2.73783 11.6888 2.34102 11.708 1.94221C11.708 1.8749 11.708 1.80453 11.708 1.74028C11.708 1.67604 11.708 1.60873 11.708 1.55978V1.38539C11.7095 1.31605 11.727 1.24798 11.7592 1.18643C11.7914 1.12488 11.8375 1.0715 11.8937 1.03041C11.95 0.989317 12.0151 0.961609 12.0838 0.949425C12.1526 0.93724 12.2233 0.940904 12.2904 0.960135C12.3654 0.979692 12.4385 1.00527 12.5093 1.03662L12.5678 1.0611C12.7078 1.12189 12.8428 1.1935 12.9716 1.27525C13.4776 1.59734 13.9 2.03339 14.2043 2.54797C14.4339 2.92109 14.5995 3.32947 14.6944 3.75644ZM28.0423 21.1278C28.2295 20.3807 28.2429 19.601 28.0813 18.848C27.9198 18.095 27.5876 17.3884 27.1099 16.7819C26.6323 16.1753 26.0217 15.6847 25.3246 15.3473C24.6275 15.0099 23.8621 14.8346 23.0865 14.8346H2.53605C2.3536 14.8343 2.173 14.871 2.00533 14.9424C1.83766 15.0138 1.68644 15.1185 1.56093 15.25C1.43542 15.3814 1.33827 15.5369 1.27541 15.707C1.21256 15.877 1.18533 16.058 1.1954 16.2388C1.35692 18.6694 1.77633 21.0762 2.44668 23.4193C2.95042 25.1775 3.94266 26.7594 5.30981 27.9839H3.54077C3.14557 27.9839 2.76655 28.1398 2.48709 28.4172C2.20764 28.6946 2.05064 29.0708 2.05064 29.4632C2.05064 29.8555 2.20764 30.2317 2.48709 30.5091C2.76655 30.7865 3.14557 30.9424 3.54077 30.9424H20.3005C20.6957 30.9424 21.0747 30.7865 21.3541 30.5091C21.6336 30.2317 21.7906 29.8555 21.7906 29.4632C21.7906 29.0708 21.6336 28.6946 21.3541 28.4172C21.0747 28.1398 20.6957 27.9839 20.3005 27.9839H18.5283C19.4742 27.1362 20.2447 26.1137 20.7966 24.9735H23.0865C24.2265 24.9735 25.3336 24.5949 26.2317 23.898C27.1298 23.2011 27.7672 22.2259 28.0423 21.1278ZM25.0405 20.3874C24.9353 20.8232 24.6852 21.2111 24.3308 21.4886C23.9763 21.7662 23.538 21.9171 23.0865 21.9171H21.7829C22.0969 20.5988 22.3346 19.2637 22.4948 17.9185H23.0865C23.3924 17.9183 23.6942 17.9873 23.9692 18.1203C24.2441 18.2532 24.4849 18.4466 24.6733 18.6858C24.8617 18.925 24.9926 19.2037 25.0563 19.5007C25.1199 19.7976 25.1145 20.1051 25.0405 20.3996V20.3874Z" fill="black"/>
</svg>
