<svg width="30" height="30" viewBox="0 0 30 30" fill="none" xmlns="http://www.w3.org/2000/svg">
<path fill-rule="evenodd" clip-rule="evenodd" d="M0.624796 15.9481C0.280277 15.9481 0.00019848 15.665 0.00019848 15.3168C0.00019848 14.9675 0.280274 14.6844 0.624796 14.6844H2.26423H2.28649H5.62518C6.48768 14.6844 7.18728 13.9774 7.18728 13.1057C7.18728 12.2341 6.48768 11.527 5.62518 11.527H0.624802C0.280283 11.527 0.00020418 11.244 0.00020418 10.8946C0.00020418 10.5464 0.28028 10.2634 0.624802 10.2634H8.43767C9.30017 10.2634 9.99976 9.55637 9.99976 8.68471C9.99976 7.81186 9.30017 7.10483 8.43767 7.10483H3.99979H3.97752H0.624736C0.280217 7.10483 0.00013848 6.82178 0.00013848 6.4736C0.00013848 6.12542 0.280214 5.84237 0.624736 5.84237H3.47355L3.92472 3.51044C3.98215 3.21318 4.23879 3 4.53879 3H21.1008C21.2872 3 21.4641 3.08409 21.5836 3.22976C21.702 3.37543 21.75 3.56729 21.7137 3.75206L20.7586 8.68489H24.9997C25.1989 8.68489 25.3853 8.77964 25.5036 8.94189L29.8782 14.9416C29.9802 15.0826 30.0212 15.2602 29.9895 15.4319L28.4274 23.9591C28.3724 24.2587 28.1134 24.4754 27.8122 24.4754H25.4157C25.3372 24.7016 25.2364 24.9243 25.1122 25.1422C24.1325 26.8559 22.0945 27.4836 20.5852 26.6036C19.8013 26.1477 19.295 25.3637 19.1263 24.4754H9.79119C9.71268 24.7016 9.6119 24.9243 9.48768 25.1422C8.50684 26.8559 6.47 27.4836 4.9595 26.6036C4.17552 26.1477 3.66927 25.3637 3.50052 24.4754H0.62476C0.438434 24.4754 0.261491 24.3913 0.143112 24.2457C0.0235804 24.1 -0.0244644 23.9081 0.0118624 23.7222L0.906009 19.1068H3.43725C4.30092 19.1068 5.00051 18.3997 5.00051 17.5269C5.00051 16.6552 4.30092 15.9482 3.43725 15.9482L0.624796 15.9481ZM20.515 9.94711L19.5974 14.6844H28.1381L24.6845 9.94711H20.515ZM23.4787 21.5464C22.5294 20.9933 21.2744 21.4682 20.6568 22.546C20.0416 23.6237 20.2607 24.9561 21.2088 25.5091C22.1592 26.0622 23.4142 25.5873 24.0306 24.5096C24.647 23.4318 24.4279 22.0995 23.4787 21.5464ZM7.85414 21.5464C6.90374 20.9933 5.64867 21.4682 5.03229 22.546C4.41588 23.6237 4.63503 24.9561 5.58423 25.5091C6.53345 26.0622 7.78853 25.5873 8.40607 24.5096C9.02131 23.4318 8.80216 22.0995 7.85414 21.5464Z" fill="black"/>
</svg>
