<svg width="54" height="54" viewBox="0 0 54 54" fill="none" xmlns="http://www.w3.org/2000/svg">
<path fill-rule="evenodd" clip-rule="evenodd" d="M17.5803 18.5295L15.363 16.2883C14.7392 15.6516 15.6948 14.6977 16.3187 15.3344L18.5359 17.5756L19.148 16.9669C19.6667 16.4492 20.4494 16.5425 20.9938 16.9786L21.8699 17.6829L14.9377 10.6957C14.7507 10.4975 14.711 10.2456 14.7788 9.9937C15.4306 7.72679 14.8722 5.19401 13.0778 3.41667C11.3512 1.67915 8.9073 1.09614 6.70423 1.65354L9.75796 4.71572C9.94487 4.9023 10.0243 5.19382 9.94487 5.44572L8.98925 8.11141C8.89579 8.40293 8.41916 8.86702 8.12711 8.97198L5.45661 9.91418C5.20428 10.0075 4.91222 9.92817 4.72529 9.7416L1.67157 6.69339C1.10149 8.89499 1.68558 11.3321 3.42622 13.0555C5.19254 14.8326 7.7159 15.4017 9.97268 14.765C10.2507 14.6857 10.4914 14.6857 10.7157 14.9096L18.246 22.4915L17.0124 20.9545C16.5732 20.4111 16.4797 19.6275 16.9984 19.1121L17.5803 18.5295ZM36.4798 30.0363L38.4587 29.8241C39.1503 29.7448 39.7601 29.255 39.7601 28.525V25.4885C39.7601 24.7585 39.1503 24.2688 38.4587 24.1895L36.4798 23.9773L36.3326 23.5808C36.2391 23.3429 36.1457 23.1167 36.0405 22.8765L35.8676 22.4916L37.1036 20.9547C37.4611 20.5163 37.5942 19.9076 37.3419 19.4178L47.449 9.2633H49.7994C50.0378 9.2633 50.2644 9.13036 50.3835 8.91814C51.5517 6.87744 52.7199 4.84845 53.8905 2.81934C54.0494 2.54181 54.0494 2.11733 53.7971 1.86544C53.2387 1.30805 52.6826 0.75297 52.1242 0.19557C51.8859 -0.0423164 51.4606 -0.0563126 51.1686 0.116275C49.1359 1.27072 47.1055 2.4368 45.0587 3.60289C44.8461 3.72183 44.7129 3.94805 44.7129 4.19993V6.53211L34.5801 16.7147C34.1012 16.5025 33.5451 16.6354 33.1199 16.9782L31.5802 18.212L31.1947 18.0394C30.9564 17.9321 30.7297 17.8388 30.4914 17.7479L30.0942 17.6033L29.8816 15.6279C29.8022 14.9376 29.3115 14.3288 28.5802 14.3288H25.5382C24.8069 14.3288 24.3162 14.9375 24.2368 15.6279L24.0242 17.6033L23.7859 17.6942L16.176 10.0192C16.7998 7.39551 16.2554 4.67615 14.0382 2.46303C11.8209 0.247456 8.14102 -0.494189 5.21823 0.739542C4.78132 0.926118 4.6201 1.48119 4.97991 1.84037L8.5266 5.3923L7.71585 7.69886L5.40512 8.50816L1.85843 4.96787C1.48694 4.60871 0.928524 4.76729 0.741611 5.20575C-0.492018 8.12332 0.250966 11.7941 2.46821 14.0098C4.68546 16.223 7.40973 16.7664 10.0381 16.1437L17.6875 23.8444L17.6337 23.9773L15.6688 24.1896C14.9632 24.2688 14.3534 24.7586 14.3534 25.4886V28.5251C14.3534 29.2551 14.9632 29.7449 15.6688 29.8242L16.3463 29.8895L0.488876 45.6783C-0.162959 46.3289 -0.162959 47.4018 0.488876 48.0525L5.90704 53.4609C6.5706 54.1232 7.63364 54.1232 8.2972 53.4609L24.1546 37.672L24.2341 38.374C24.3135 39.0784 24.8042 39.6871 25.5355 39.6871H28.5775C29.3088 39.6871 29.7994 39.0784 29.8789 38.374L30.0915 36.4126L30.2247 36.359L37.9416 44.1277C37.3038 46.7514 37.8482 49.4708 40.0655 51.6839C42.2827 53.897 45.9626 54.6388 48.8973 53.4074C49.3343 53.2208 49.4955 52.6658 49.124 52.2949L45.5773 48.7546L46.3997 46.4481L48.7104 45.6388L52.2571 49.1791C52.6169 49.5382 53.187 49.3796 53.3599 48.9412C54.5959 46.0236 53.8646 42.3528 51.6473 40.1396C49.4278 37.9123 46.7058 37.3689 44.0631 38.0056L36.3856 30.2769L36.4798 30.0363ZM36.4284 18.422L35.6036 17.6011L45.8441 7.31403C46.003 7.16711 46.0824 6.96887 46.0707 6.77063V4.583C47.8768 3.54981 49.6828 2.51436 51.5029 1.46715C51.8347 1.81231 52.1804 2.15745 52.5262 2.48863C51.4912 4.30543 50.4421 6.10821 49.4047 7.92501L47.2131 7.91335C47.0145 7.89936 46.816 7.99264 46.6688 8.13957L36.4284 18.422ZM17.7675 30.3934L17.7815 30.433C17.875 30.6709 17.9685 30.8971 18.0736 31.135L18.2465 31.5198L17.0129 33.0567C16.826 33.269 16.7068 33.5348 16.6671 33.7984L2.36356 48.0223L1.44772 47.0941C1.31454 46.9752 1.31454 46.763 1.44772 46.63L17.7675 30.3934ZM17.2372 35.1417L18.9101 36.7975L4.99173 50.6394L3.31884 48.9836L17.2372 35.1417ZM20.2254 37.3806C20.5058 37.341 20.7698 37.222 20.9965 37.0355L22.5362 35.8041L22.9217 35.9766C23.16 36.0839 23.3866 36.1749 23.625 36.2682L23.6507 36.2822L7.33984 52.5211C7.20666 52.6401 6.99405 52.6401 6.86087 52.5211L5.94502 51.5929L20.2254 37.3806ZM31.5802 35.8017L33.1199 37.0331C33.6643 37.4716 34.4494 37.5649 34.9656 37.0471L35.4446 36.569L37.7951 38.9292C38.4189 39.5659 39.3745 38.612 38.7507 37.9893L36.4002 35.6151L37.1175 34.8992C37.6362 34.3837 37.5427 33.6001 37.1035 33.0567L36.4517 32.2475L43.3839 39.2346C43.6105 39.4609 43.8629 39.4469 44.1409 39.3816C46.3862 38.7449 48.9095 39.3163 50.6873 41.0794C52.414 42.8146 52.9981 45.2541 52.442 47.4559L49.3883 44.4077C49.1897 44.2094 48.9093 44.1301 48.6453 44.2211L45.9888 45.1633C45.6967 45.2682 45.2178 45.7463 45.1127 46.0378L44.1688 48.7035C44.0753 48.9554 44.1547 49.2469 44.3417 49.4335L47.4094 52.4817C45.1921 53.0391 42.7482 52.4537 41.0214 50.7326C39.241 48.9554 38.671 46.411 39.3205 44.1555C39.3999 43.9037 39.3602 43.6378 39.1616 43.4535L31.5802 35.8017ZM15.6947 28.4856V25.5283L18.218 25.2625C18.482 25.2228 18.7227 25.0362 18.8021 24.7727C18.989 24.0707 19.2671 23.3944 19.6385 22.7577C19.7717 22.5315 19.7437 22.2143 19.5731 22.016L17.9657 20.0267L20.0638 17.9324L22.0567 19.5369C22.2553 19.6955 22.5614 19.7352 22.7997 19.6022C23.4375 19.2431 24.1151 18.9516 24.8184 18.7673C25.0824 18.688 25.2693 18.4618 25.309 18.1983L25.5754 15.6515H28.5379L28.8043 18.1843C28.844 18.4502 29.0309 18.6881 29.2949 18.7674C29.9982 18.9539 30.6757 19.2455 31.3136 19.6023C31.5519 19.7352 31.858 19.7095 32.0566 19.537L34.0495 17.9324L36.1476 20.0267L34.5402 22.0021C34.3673 22.2283 34.3532 22.5338 34.4864 22.7857C34.8462 23.4084 35.1243 24.0707 35.3112 24.7727C35.3766 25.0246 35.6172 25.2252 35.8813 25.2508L38.4326 25.5307V28.4879L35.8813 28.7538C35.6149 28.7934 35.3766 28.9917 35.3112 29.2435C35.1243 29.9479 34.8462 30.6102 34.4864 31.2329C34.3532 31.4708 34.3673 31.7903 34.5402 32.0002L36.1476 33.9872L34.0495 36.0839L32.0566 34.4793C31.858 34.3067 31.5519 34.2811 31.3136 34.414C30.6757 34.7732 29.9982 35.0647 29.2949 35.2489C29.0286 35.3166 28.844 35.5544 28.8043 35.8343L28.5379 38.3531H25.5754L25.309 35.8227C25.2693 35.5568 25.0824 35.3329 24.8184 35.2513C24.1151 35.067 23.4375 34.7732 22.7997 34.4164C22.5614 34.2834 22.2553 34.3114 22.0567 34.4817L20.0638 36.0862L17.9657 33.9896L19.5731 32.0026C19.746 31.8043 19.7717 31.4872 19.6385 31.2609C19.2671 30.6266 18.9867 29.9502 18.8021 29.2459C18.7367 28.9824 18.4961 28.7958 18.232 28.7561L15.6947 28.4856ZM27.0638 33.6281C30.7296 33.6281 33.6898 30.6592 33.6898 26.9997C33.6898 23.3402 30.7272 20.3856 27.0638 20.3856C23.384 20.3856 20.4234 23.3405 20.4234 26.9997C20.4234 30.6589 23.3837 33.6281 27.0638 33.6281ZM27.0638 21.7224C29.9726 21.7224 32.3487 24.0966 32.3487 27.0002C32.3487 29.9177 29.9703 32.2896 27.0638 32.2896C24.1409 32.2896 21.7648 29.9154 21.7648 27.0002C21.7648 24.0966 24.1433 21.7224 27.0638 21.7224Z" fill="black"/>
</svg>
