<svg width="54" height="54" viewBox="0 0 54 54" fill="none" xmlns="http://www.w3.org/2000/svg">
<path fill-rule="evenodd" clip-rule="evenodd" d="M8.4171 31.6261H13.8038C14.9728 31.6261 15.9249 32.5745 15.9249 33.741V36.791C15.9249 37.9554 14.9727 38.9172 13.8038 38.9172H8.4171C7.24811 38.9172 6.29598 37.9554 6.29598 36.791V33.741C6.29598 32.5744 7.24817 31.6261 8.4171 31.6261ZM7.28611 12.0971L10.793 15.5923L16.6872 9.21426C17.284 8.56865 18.2496 9.45471 17.6528 10.1003L11.3003 16.9976C11.0455 17.2758 10.6007 17.2647 10.3481 17.0109L6.34496 13.0259C5.73701 12.4159 6.66476 11.4782 7.28611 12.0971ZM12.827 25.6641H43.397C41.8078 21.8416 40.2455 18.0077 38.6562 14.1853C38.4797 13.7422 37.9455 13.5018 37.4873 13.5018H22.7624C22.8273 13.0833 22.8764 12.6403 22.901 12.1861H37.4874C38.301 12.1861 39.4699 12.6914 39.7873 13.464C41.6558 17.9699 43.511 22.4756 45.3662 26.982H8.64741L9.58838 24.6778C10.1226 25.0206 10.6434 25.3613 11.1887 25.6774C12.0001 26.1716 12.076 26.1072 12.827 25.6641ZM14.8856 24.3484C18.4059 21.9173 21.3651 18.9186 22.4717 14.8312H37.5032C38.8108 17.997 40.1072 21.1716 41.4169 24.3484H38.7481C37.1858 19.7177 30.5543 19.7177 28.9785 24.3484H14.8856ZM22.9524 10.8708C22.9903 9.11208 22.9903 7.35329 22.9792 5.59233C22.9792 5.31405 22.8272 5.06027 22.559 4.93562L12.3957 0.113538C12.0783 -0.0378458 11.9129 -0.0378458 11.5955 0.113538L1.43224 4.93562C1.16402 5.06252 1.01203 5.31407 1.01203 5.59233C0.987445 7.64275 0.99862 9.67978 1.06344 11.7167C1.22884 17.1711 4.41614 20.9666 8.48421 23.9034L8.29422 24.3465H1.77636C1.31816 24.3465 1.01421 24.7873 1.14158 25.208C1.61096 27.018 3.25154 28.2959 5.1313 28.2959C2.85592 30.117 1.0142 33.4341 1.0142 35.6468V44.0241C1.0142 46.1368 2.75538 47.8733 4.88989 47.8733H5.04188V52.6575C5.04188 53.4056 5.63868 54 6.37624 54H11.4589C12.1943 54 12.8067 53.3922 12.8067 52.6575V47.8733H41.1903V52.6575C41.1903 53.4056 41.7871 54 42.5381 54H47.632C48.3674 54 48.9798 53.3922 48.9798 52.6575V47.8733H49.134C51.2551 47.8733 52.9963 46.1368 52.9963 44.0241V35.6468C52.9963 33.4316 51.1657 30.1167 48.8926 28.2959C50.8237 28.2959 52.4889 27.0937 52.9717 25.208C53.0969 24.7895 52.7929 24.3465 52.3347 24.3465H45.7167L40.9268 12.7274C40.4306 11.5119 38.5263 10.8663 37.3059 10.8663L22.9524 10.8708ZM11.9891 1.39352L21.6581 5.97299C21.6715 7.87198 21.6581 9.78213 21.6066 11.6813C21.4167 17.8434 16.9196 21.7063 11.9887 24.6295C7.07135 21.7064 2.57437 17.8462 2.38211 11.6813C2.31953 9.78458 2.30612 7.87221 2.33071 5.97299L11.9891 1.39352ZM30.4 24.3484C31.7858 21.4631 35.9387 21.4631 37.3247 24.3484H30.4ZM30.1966 37.4589V43.1804H27.6664V37.4589H30.1966ZM31.5176 43.1804V37.4589H33.9315C33.9941 37.4589 34.059 37.5102 34.059 37.5858V43.0536C34.059 43.1293 33.9941 43.1805 33.9315 43.1805L31.5176 43.1804ZM22.4832 37.4589V43.1804H20.0827C20.0067 43.1804 19.9553 43.1292 19.9553 43.0535V37.5858C19.9553 37.5101 20.0067 37.4589 20.0827 37.4589L22.4832 37.4589ZM23.8042 43.1804V37.4589H26.3455V43.1804H23.8042ZM20.0827 36.143H33.9315C34.7317 36.143 35.3798 36.7886 35.3798 37.5834V43.0511C35.3798 43.8481 34.7317 44.4937 33.9315 44.4937H20.0827C19.2826 44.4937 18.6344 43.8459 18.6344 43.0511V37.5834C18.6344 36.7886 19.2826 36.143 20.0827 36.143ZM7.21065 26.982L7.75603 25.6641H2.75157C3.24777 26.4499 4.12391 26.982 5.12748 26.982H7.21065ZM46.2537 25.6641L46.8013 26.982H48.9738C49.9774 26.982 50.8536 26.4499 51.3364 25.6641H46.2537ZM11.4798 47.8757H6.35912V52.66C6.35912 52.6711 6.37253 52.6845 6.37253 52.6845H11.4552C11.4664 52.6845 11.4798 52.6733 11.4798 52.66V47.8757ZM47.6532 47.8757H42.508V52.66C42.508 52.6711 42.5214 52.6845 42.5348 52.6845H47.6286C47.6398 52.6845 47.6532 52.6733 47.6532 52.66L47.6532 47.8757ZM8.27952 28.2977C5.63759 28.2977 2.34759 33.171 2.34759 35.6486V44.0259C2.34759 45.4062 3.48975 46.5572 4.88893 46.5572H49.1286C50.5255 46.5572 51.6677 45.4062 51.6677 44.0259V35.6486C51.6677 33.1685 48.3776 28.2977 45.722 28.2977H8.27952ZM40.2085 31.6259H45.5951C46.7641 31.6259 47.7163 32.5743 47.7163 33.7409V36.7909C47.7163 37.9552 46.7641 38.917 45.5951 38.917H40.2085C39.0395 38.917 38.0851 37.9552 38.0851 36.7909V33.7409C38.0873 32.5743 39.0395 31.6259 40.2085 31.6259ZM40.2085 32.9417H45.5951C46.0265 32.9417 46.3953 33.309 46.3953 33.7386V36.7887C46.3953 37.2317 46.0265 37.5856 45.5951 37.5856H40.2085C39.7637 37.5856 39.4083 37.2339 39.4083 36.7887V33.7386C39.4083 33.309 39.7637 32.9417 40.2085 32.9417ZM8.41799 32.9417H13.8047C14.2361 32.9417 14.6048 33.309 14.6048 33.7386V36.7887C14.6048 37.2317 14.236 37.5856 13.8047 37.5856H8.41799C7.9732 37.5856 7.61783 37.2339 7.61783 36.7887V33.7386C7.61783 33.309 7.97322 32.9417 8.41799 32.9417Z" fill="black"/>
</svg>
