<svg width="29" height="29" viewBox="0 0 29 29" fill="none" xmlns="http://www.w3.org/2000/svg">
<path fill-rule="evenodd" clip-rule="evenodd" d="M14.5 0.869629C6.97744 0.869629 0.869568 6.9775 0.869568 14.5001C0.869568 22.0226 6.97744 28.1305 14.5 28.1305C22.0226 28.1305 28.1304 22.0226 28.1304 14.5001C28.1304 6.9775 22.0226 0.869629 14.5 0.869629ZM13.7826 24.5435V25.9783C13.7826 26.3743 14.104 26.6957 14.5 26.6957C14.896 26.6957 15.2174 26.3743 15.2174 25.9783V24.5435C15.2174 24.1475 14.896 23.8262 14.5 23.8262C14.104 23.8262 13.7826 24.1475 13.7826 24.5435ZM8.857 22.839L8.13961 24.0815C7.94161 24.4245 8.05926 24.8635 8.40218 25.0615C8.74509 25.2595 9.18413 25.1418 9.38213 24.7989L10.0995 23.5564C10.2975 23.2135 10.1799 22.7745 9.83696 22.5765C9.49405 22.3785 9.05501 22.4961 8.857 22.839ZM20.8604 24.0815L20.143 22.839C19.945 22.4961 19.506 22.3785 19.163 22.5765C18.8201 22.7745 18.7025 23.2135 18.9005 23.5564L19.6179 24.7989C19.8159 25.1418 20.2549 25.2595 20.5978 25.0615C20.9407 24.8635 21.0584 24.4245 20.8604 24.0815ZM5.44366 18.9005L4.20113 19.6179C3.85822 19.8159 3.74057 20.255 3.93857 20.5979C4.13657 20.9408 4.57561 21.0585 4.91852 20.8605L6.16105 20.1431C6.50396 19.9451 6.62161 19.506 6.42361 19.1631C6.22561 18.8202 5.78657 18.7025 5.44366 18.9005ZM24.7989 19.6179L23.5563 18.9005C23.2134 18.7025 22.7744 18.8202 22.5764 19.1631C22.3784 19.506 22.496 19.9451 22.839 20.1431L24.0815 20.8605C24.4244 21.0585 24.8634 20.9408 25.0614 20.5979C25.2594 20.255 25.1418 19.8159 24.7989 19.6179ZM12.4705 13.7827C12.6872 13.1715 13.1714 12.6865 13.7826 12.4706V7.32615C13.7826 6.93015 14.104 6.60876 14.5 6.60876C14.896 6.60876 15.2174 6.93015 15.2174 7.32615V12.4706C15.8286 12.6865 16.3128 13.1715 16.5295 13.7827H21.6739C22.0699 13.7827 22.3913 14.1041 22.3913 14.5001C22.3913 14.8961 22.0699 15.2175 21.6739 15.2175H16.5295C16.3136 15.8287 15.8286 16.3129 15.2174 16.5296V17.3696C15.2174 17.7656 14.896 18.087 14.5 18.087C14.104 18.087 13.7826 17.7656 13.7826 17.3696V16.5296C13.1714 16.3136 12.6872 15.8287 12.4705 15.2175H11.6304C11.2344 15.2175 10.913 14.8961 10.913 14.5001C10.913 14.1041 11.2344 13.7827 11.6304 13.7827H12.4705ZM14.5 13.7827C14.896 13.7827 15.2174 14.1041 15.2174 14.5001C15.2174 14.8961 14.896 15.2175 14.5 15.2175C14.104 15.2175 13.7826 14.8961 13.7826 14.5001C13.7826 14.1041 14.104 13.7827 14.5 13.7827ZM25.9783 13.7827H24.5435C24.1475 13.7827 23.8261 14.1041 23.8261 14.5001C23.8261 14.8961 24.1475 15.2175 24.5435 15.2175H25.9783C26.3743 15.2175 26.6957 14.8961 26.6957 14.5001C26.6957 14.1041 26.3743 13.7827 25.9783 13.7827ZM4.45652 13.7827H3.02174C2.62574 13.7827 2.30435 14.1041 2.30435 14.5001C2.30435 14.8961 2.62574 15.2175 3.02174 15.2175H4.45652C4.85252 15.2175 5.17392 14.8961 5.17392 14.5001C5.17392 14.1041 4.85252 13.7827 4.45652 13.7827ZM24.0815 8.13967L22.839 8.85707C22.496 9.05507 22.3784 9.49411 22.5764 9.83702C22.7744 10.1799 23.2134 10.2976 23.5563 10.0996L24.7989 9.38219C25.1418 9.18419 25.2594 8.74515 25.0614 8.40224C24.8634 8.05932 24.4244 7.94167 24.0815 8.13967ZM6.16105 8.85707L4.91852 8.13967C4.57561 7.94167 4.13657 8.05932 3.93857 8.40224C3.74057 8.74515 3.85822 9.18419 4.20113 9.38219L5.44366 10.0996C5.78657 10.2976 6.22561 10.1799 6.42361 9.83702C6.62161 9.49411 6.50396 9.05507 6.16105 8.85707ZM19.6179 4.20119L18.9005 5.44372C18.7025 5.78663 18.8201 6.22568 19.163 6.42368C19.506 6.62168 19.945 6.50403 20.143 6.16111L20.8604 4.91858C21.0584 4.57567 20.9407 4.13663 20.5978 3.93863C20.2549 3.74063 19.8159 3.85828 19.6179 4.20119ZM10.0995 5.44372L9.38213 4.20119C9.18413 3.85828 8.74509 3.74063 8.40218 3.93863C8.05926 4.13663 7.94161 4.57567 8.13961 4.91858L8.857 6.16111C9.05501 6.50403 9.49405 6.62168 9.83696 6.42368C10.1799 6.22568 10.2975 5.78663 10.0995 5.44372ZM13.7826 3.0218V4.45659C13.7826 4.85259 14.104 5.17398 14.5 5.17398C14.896 5.17398 15.2174 4.85259 15.2174 4.45659V3.0218C15.2174 2.6258 14.896 2.30441 14.5 2.30441C14.104 2.30441 13.7826 2.6258 13.7826 3.0218Z" fill="#2F282E"/>
</svg>
