<svg width="15" height="15" viewBox="0 0 15 15" fill="none" xmlns="http://www.w3.org/2000/svg">
<g clip-path="url(#clip0_1_574)">
<path d="M14.9608 5.75361C14.862 5.44988 14.5926 5.23484 14.2752 5.20611L9.94509 4.813L8.23383 0.806588C8.10748 0.512241 7.82 0.322266 7.50002 0.322266C7.18004 0.322266 6.89244 0.512241 6.7669 0.806588L5.05564 4.813L0.72489 5.20611C0.407426 5.23541 0.138599 5.45045 0.039263 5.75361C-0.0595012 6.05734 0.0317097 6.39048 0.271811 6.60106L3.54499 9.47117L2.57989 13.7218C2.50928 14.0343 2.63059 14.3575 2.88992 14.545C3.02931 14.6463 3.19308 14.6969 3.35742 14.6969C3.49864 14.6969 3.63998 14.6593 3.76621 14.5838L7.50002 12.3512L11.2331 14.5838C11.507 14.7474 11.8514 14.7324 12.1101 14.545C12.3694 14.3575 12.4908 14.0343 12.4201 13.7218L11.4551 9.47117L14.7282 6.60106C14.9682 6.39048 15.0595 6.05803 14.9608 5.75361Z" fill="#FFCC00"/>
</g>
<defs>
<clipPath id="clip0_1_574">
<rect width="15" height="15" fill="white"/>
</clipPath>
</defs>
</svg>
