<svg width="20" height="18" viewBox="0 0 20 18" fill="none" xmlns="http://www.w3.org/2000/svg">
<g clip-path="url(#clip0_1_113)">
<path fill-rule="evenodd" clip-rule="evenodd" d="M0.00370598 8.98041C0.00884247 8.64919 0.159956 8.33852 0.414213 8.13682L7.7881 0.329868C7.9829 0.123804 8.24891 0.00609612 8.52783 0.00264279C8.80655 -0.000835179 9.07543 0.110189 9.27492 0.311319C9.47448 0.512449 9.5885 0.787138 9.59185 1.07514C9.59519 1.36312 9.48766 1.64052 9.2929 1.84656L3.5632 7.91217H18.9073C19.1885 7.90798 19.4598 8.02062 19.6601 8.22445C19.8605 8.42852 19.9732 8.70686 19.9733 8.99733C19.9733 9.28784 19.8605 9.56636 19.66 9.77025C19.4598 9.97425 19.1885 10.0868 18.9073 10.0827H3.56317L9.2929 16.1483C9.48769 16.3544 9.59519 16.6318 9.59185 16.9198C9.5885 17.2077 9.47465 17.4824 9.27496 17.6836C9.07543 17.8847 8.80671 17.9959 8.52783 17.9923C8.24894 17.9888 7.9829 17.8711 7.7881 17.6649L0.410194 9.85418C0.149418 9.64505 -0.00119209 9.32165 0.00370598 8.9808V8.98041Z" fill="#1D212C"/>
</g>
<defs>
<clipPath id="clip0_1_113">
<rect width="20" height="18" fill="white" transform="matrix(-1 0 0 1 20 0)"/>
</clipPath>
</defs>
</svg>
