<svg width="26" height="25" viewBox="0 0 26 25" fill="none" xmlns="http://www.w3.org/2000/svg">
<path fill-rule="evenodd" clip-rule="evenodd" d="M22.8552 5.87751C23.6047 5.87751 24.2884 6.18578 24.7837 6.68176C25.2797 7.17404 25.588 7.8584 25.588 8.61059V11.8239H19.5966C17.8001 11.8239 16.3273 13.2967 16.3273 15.0932V15.7846C16.3273 17.5812 17.8001 19.054 19.5966 19.054H25.588V22.2669C25.588 23.0188 25.2797 23.7031 24.7858 24.1974C24.2915 24.6917 23.6071 25 22.8552 25H5.71465C2.57424 25 0 22.4254 0 19.2853V3.70421V3.68474C0 1.6555 1.65449 0 3.68373 0H19.4549C19.8666 0 20.2004 0.333785 20.2004 0.745141C20.2004 1.15683 19.8666 1.49062 19.4549 1.49062H3.68373C0.802899 1.49062 0.797862 5.87751 3.68373 5.87751H22.8552ZM25.588 12.6768V18.2011H19.5966C18.2662 18.2011 17.1802 17.1151 17.1802 15.7846V15.0932C17.1802 13.7628 18.2662 12.6768 19.5966 12.6768H25.588ZM21.3791 13.6936C21.8599 13.6936 22.2958 13.8894 22.6115 14.2047C22.9288 14.5203 23.1242 14.9572 23.1242 15.4388C23.1242 15.9206 22.9288 16.3572 22.6131 16.6728C22.2975 16.9885 21.8609 17.1839 21.3791 17.1839C20.8975 17.1839 20.4607 16.9885 20.145 16.6728L20.1201 16.646C19.8196 16.3323 19.6339 15.9069 19.6339 15.4388C19.6339 14.9586 19.8297 14.5224 20.145 14.2064C20.4627 13.8894 20.8989 13.6936 21.3791 13.6936ZM22.0104 14.8075C21.8495 14.6463 21.6262 14.5465 21.3791 14.5465C21.1323 14.5465 20.9083 14.6466 20.7474 14.8071C20.5869 14.968 20.4868 15.1919 20.4868 15.4388C20.4868 15.6768 20.5795 15.8928 20.73 16.0526L20.7481 16.0697C20.9093 16.2309 21.1329 16.331 21.3791 16.331C21.6255 16.331 21.8489 16.2309 22.01 16.0697C22.1712 15.9085 22.2713 15.6852 22.2713 15.4388C22.2713 15.1926 22.1712 14.969 22.0104 14.8075Z" fill="#2F282E"/>
</svg>
