<svg width="32" height="30" viewBox="0 0 32 30" fill="none" xmlns="http://www.w3.org/2000/svg">
<path fill-rule="evenodd" clip-rule="evenodd" d="M15.8618 29.7673L21.8229 17.4426H9.90063L15.8618 29.7673Z" fill="#2F282E"/>
<path fill-rule="evenodd" clip-rule="evenodd" d="M21.9406 16.2085L20.4041 11.7495H11.3186L9.78345 16.2085H21.9406Z" fill="#2F282E"/>
<path fill-rule="evenodd" clip-rule="evenodd" d="M18.5801 26.9757L29.2221 14.2712L23.2701 17.2822L19.8884 24.272L18.5801 26.9757Z" fill="#2F282E"/>
<path fill-rule="evenodd" clip-rule="evenodd" d="M2.50079 14.2712L13.1428 26.9757L8.45415 17.2822L2.50079 14.2712Z" fill="#2F282E"/>
<path fill-rule="evenodd" clip-rule="evenodd" d="M4.44734 8.61328L1.11328 12.1874L8.56333 15.9566L10.1196 11.4436L4.44734 8.61328Z" fill="#2F282E"/>
<path fill-rule="evenodd" clip-rule="evenodd" d="M26.3972 7.67309L25.4199 6.62328L20.7576 5.1897H10.9665L6.3042 6.62328L5.32562 7.67309L11.0231 10.5152H20.6994L26.3972 7.67309Z" fill="#2F282E"/>
<path fill-rule="evenodd" clip-rule="evenodd" d="M30.6108 12.1874L27.2754 8.61328L21.603 11.4435L23.1592 15.9565L30.6108 12.1874Z" fill="#2F282E"/>
<path fill-rule="evenodd" clip-rule="evenodd" d="M2.6509 1.59204C2.6509 3.04936 1.45868 4.24293 0 4.24293C1.45733 4.24293 2.6509 5.43515 2.6509 6.89382C2.6509 5.4365 3.84313 4.24293 5.30181 4.24293C3.84448 4.24293 2.6509 3.05071 2.6509 1.59204Z" fill="#2F282E"/>
<path fill-rule="evenodd" clip-rule="evenodd" d="M28.5413 21.2278C28.5413 22.9212 27.1565 24.306 25.4631 24.306C27.1565 24.306 28.5413 25.6908 28.5413 27.3842C28.5413 25.6908 29.9261 24.306 31.6195 24.306C29.9261 24.306 28.5413 22.9212 28.5413 21.2278Z" fill="#2F282E"/>
<path fill-rule="evenodd" clip-rule="evenodd" d="M23.6144 26.3018C23.6144 27.3186 22.7822 28.1508 21.7653 28.1508C22.7821 28.1508 23.6144 28.983 23.6144 29.9998C23.6144 28.983 24.4465 28.1508 25.4634 28.1508C24.4466 28.1508 23.6144 27.3186 23.6144 26.3018Z" fill="#2F282E"/>
<path fill-rule="evenodd" clip-rule="evenodd" d="M6.89225 0C6.89225 0.875729 6.17611 1.59183 5.30042 1.59183C6.17615 1.59183 6.89225 2.30796 6.89225 3.18366C6.89225 2.30793 7.60839 1.59183 8.48409 1.59183C7.60836 1.59183 6.89225 0.875695 6.89225 0Z" fill="#2F282E"/>
</svg>
