<svg width="20" height="18" viewBox="0 0 20 18" fill="none" xmlns="http://www.w3.org/2000/svg">
<g clip-path="url(#clip0_1_110)">
<path fill-rule="evenodd" clip-rule="evenodd" d="M19.9963 8.98041C19.9912 8.64919 19.84 8.33852 19.5858 8.13682L12.2119 0.329868C12.0171 0.123804 11.7511 0.00609612 11.4722 0.00264279C11.1935 -0.000835179 10.9246 0.110189 10.7251 0.311319C10.5255 0.512449 10.4115 0.787138 10.4082 1.07514C10.4048 1.36312 10.5123 1.64052 10.7071 1.84656L16.4368 7.91217H1.0927C0.811503 7.90798 0.540172 8.02062 0.339939 8.22445C0.139511 8.42852 0.0267573 8.70686 0.0267334 8.99733C0.0267334 9.28784 0.139511 9.56636 0.339962 9.77025C0.540172 9.97425 0.811503 10.0868 1.09267 10.0827H16.4368L10.7071 16.1483C10.5123 16.3544 10.4048 16.6318 10.4082 16.9198C10.4115 17.2077 10.5253 17.4824 10.725 17.6836C10.9246 17.8847 11.1933 17.9959 11.4722 17.9923C11.7511 17.9888 12.0171 17.8711 12.2119 17.6649L19.5898 9.85418C19.8506 9.64505 20.0012 9.32165 19.9963 8.9808V8.98041Z" fill="white"/>
</g>
<defs>
<clipPath id="clip0_1_110">
<rect width="20" height="18" fill="white"/>
</clipPath>
</defs>
</svg>
