<svg width="54" height="55" viewBox="0 0 54 55" fill="none" xmlns="http://www.w3.org/2000/svg">
<path d="M28.7313 18.5425C28.7386 18.5036 28.7507 18.472 28.7507 18.433C28.7507 18.168 28.5294 17.9467 28.2644 17.9467H14.7255C13.6751 17.9467 12.7486 18.6154 12.418 19.6075L6.86185 36.2271C6.60897 36.9784 6.73298 37.7833 7.19984 38.4252C7.65941 39.0671 8.37913 39.4294 9.17185 39.4294H44.8405C45.6307 39.4294 46.3505 39.0598 46.8174 38.4179C47.2769 37.776 47.4009 36.9711 47.1553 36.2198L41.5919 19.6002C41.2612 18.6081 40.3348 17.9395 39.2844 17.9395L30.0176 18.0489C30.0176 18.0489 29.9714 18.061 29.9471 18.061C29.9155 18.061 29.8765 18.0683 29.8425 18.0805C29.8109 18.0926 29.7914 18.1121 29.7647 18.1267C29.7379 18.1461 29.7136 18.1583 29.6869 18.1777C29.6601 18.2045 29.6407 18.2288 29.6212 18.2629C29.6091 18.2823 29.5896 18.2945 29.575 18.3212L28.2644 21.064C28.1866 21.2317 28.206 21.4336 28.3228 21.5819L30.8516 24.7064L25.1058 27.403L28.0626 24.4462C28.2498 24.259 28.2498 23.9478 28.0626 23.7581L25.896 21.5915L28.5878 18.8998C28.6923 18.7953 28.7312 18.6664 28.7239 18.5302L28.7313 18.5425ZM24.8724 21.2537C24.6852 21.4409 24.6852 21.7521 24.8724 21.9418L27.0389 24.1084L22.4554 28.6919C22.2877 28.8596 22.2682 29.1198 22.4044 29.3143C22.4943 29.4505 22.65 29.521 22.8007 29.521C22.8712 29.521 22.9442 29.5089 23.0074 29.4748L31.8317 25.3241C31.9678 25.2585 32.0651 25.1369 32.0967 24.9934C32.1283 24.8451 32.0967 24.6944 31.9994 24.5776L29.2688 21.2124L30.3192 19.0143L39.2748 18.9097C39.8973 18.9097 40.4541 19.3109 40.656 19.9091L46.2194 36.5287C46.3677 36.9834 46.2972 37.4624 46.0176 37.8514C45.7379 38.2405 45.3051 38.4618 44.831 38.4618H39.8585V32.4194C39.8585 32.237 39.7539 32.0692 39.5934 31.9841L33.3226 28.845L35.4818 26.9191C35.6836 26.7368 35.7031 26.4328 35.5207 26.231C35.3384 26.0292 35.0344 26.0097 34.8326 26.1921L29.4443 31.0042C29.2425 31.1865 29.223 31.4905 29.4054 31.6923C29.5026 31.8017 29.6315 31.8552 29.7677 31.8552C29.8844 31.8552 30.0011 31.8163 30.0911 31.7312L32.5421 29.5453L38.8907 32.716V38.4618H24.7219V32.4194C24.7219 32.2371 24.6173 32.0693 24.4568 31.9842L18.186 28.845L20.3453 26.9192C20.5471 26.7368 20.5665 26.4329 20.3842 26.231C20.2018 26.0292 19.8978 26.0098 19.696 26.1921L14.3077 31.0042C14.1059 31.1866 14.0864 31.4905 14.2688 31.6924C14.3661 31.8018 14.4949 31.8553 14.6311 31.8553C14.7478 31.8553 14.8645 31.8164 14.9545 31.7313L17.4055 29.5453L23.7542 32.7234V38.4692H9.16265C8.6885 38.4692 8.26056 38.2479 7.98337 37.8661C7.70374 37.4771 7.63322 36.9981 7.78155 36.5434L13.3377 19.9238C13.5395 19.3281 14.0963 18.9244 14.7261 18.9244H27.2074L24.8658 21.266L24.8724 21.2537Z" fill="black"/>
<path d="M52.5999 18.4211C52.5148 18.1683 52.2376 18.0248 51.9847 18.1172C51.7318 18.2023 51.5956 18.4795 51.6807 18.7324C52.5756 21.3901 53.0229 24.1791 53.0229 27.012C53.0229 41.3607 41.344 53.039 26.9959 53.039C12.6446 53.039 0.973158 41.3601 0.973158 27.012C0.973158 12.6638 12.6521 0.984904 27.0002 0.984904C35.2867 0.984904 43.0608 4.94592 47.9628 11.5988L45.7379 11.2559C45.4729 11.2097 45.2249 11.3994 45.186 11.6644C45.1471 11.9295 45.3294 12.1775 45.5945 12.2164L48.9524 12.7295H49.023C49.2564 12.7295 49.4631 12.5544 49.502 12.3137L49.9688 9.27908C50.0077 9.01404 49.8254 8.76602 49.5603 8.72711C49.2953 8.68821 49.0473 8.87058 49.0084 9.13562L48.7239 10.9836C43.6395 4.09777 35.5865 0 27.0025 0C12.1116 0.0121576 0 12.124 0 27.0124C0 41.9009 12.1116 54.0125 27 54.0125C41.8884 54.0125 54 41.9009 54 27.0124C54 24.0751 53.5331 21.184 52.6067 18.4216L52.5999 18.4211Z" fill="black"/>
</svg>
