<svg width="28" height="29" viewBox="0 0 28 29" fill="none" xmlns="http://www.w3.org/2000/svg">
<path fill-rule="evenodd" clip-rule="evenodd" d="M26.4712 1.61784C26.0363 1.19616 25.4391 0.989825 24.8495 1.05779L5.21837 0.49777C4.69999 0.4832 4.20378 0.674982 3.83863 1.0312C3.47371 1.38713 3.26958 1.8784 3.27169 2.39647C3.27372 2.91463 3.48149 3.41729 3.8496 3.79404C4.21768 4.17077 4.71545 4.39044 5.23375 4.40502L20.4869 4.8394L0.644614 24.6817C0.275577 25.0399 0.0703641 25.5364 0.0750099 26.0589C0.0797201 26.582 0.293845 27.0877 0.669444 27.4634C1.04512 27.8391 1.55112 28.0534 2.074 28.0578C2.5967 28.0627 3.09305 27.8573 3.45146 27.4886L23.2938 7.64624L23.7281 22.8994C23.7427 23.4177 23.9624 23.9155 24.3391 24.2836C24.7158 24.6516 25.2183 24.8596 25.7366 24.8615C26.2547 24.8635 26.746 24.6598 27.102 24.2945C27.4581 23.9294 27.6499 23.4331 27.6351 22.9145L27.0755 3.2734C27.1423 2.66574 26.9188 2.05277 26.4717 1.61834L26.4712 1.61784Z" fill="#2F282E"/>
</svg>
