<svg width="130" height="52" viewBox="0 0 130 52" fill="none" xmlns="http://www.w3.org/2000/svg">
<path d="M129.51 35.3548L121.711 35.2282C121.682 35.2273 121.655 35.2185 121.631 35.2028C121.607 35.1871 121.588 35.1651 121.576 35.1393C121.411 34.7801 121.27 34.4092 121.154 34.0267C120.845 33.03 120.301 31.8797 119.522 30.5759C117.415 27.0433 114.371 24.8496 110.39 23.9947C107.257 23.324 103.566 23.4883 100.626 24.8164C96.2484 26.791 93.2682 30.7833 92.0002 35.3279C91.8682 35.802 91.6206 36.0175 91.1064 36.0283C70.7716 36.4557 59.1253 36.7017 56.1675 36.7664C54.4679 36.8023 51.0623 36.8975 45.9508 37.0519C42.4564 37.1579 39.643 37.2207 37.5109 37.2405C37.4301 37.2412 37.3511 37.2164 37.2853 37.1694C37.2195 37.1225 37.1703 37.0559 37.1447 36.9792C34.6922 29.6492 28.589 24.4284 20.5179 25.5006C14.0352 26.3653 9.12742 30.4223 7.6575 36.8849C7.63682 36.9745 7.58644 37.0544 7.51458 37.1116C7.44272 37.1688 7.3536 37.2 7.26175 37.2001H0.644426C0.601803 37.2 0.5605 37.1862 0.526917 37.1609C0.493334 37.1356 0.469345 37.1001 0.458666 37.06C0.0135624 35.4383 -0.107584 33.778 0.095225 32.079C0.272908 30.592 0.840953 28.8976 1.23132 27.5911C1.73385 25.9155 2.15114 24.6835 2.48317 23.8951C3.27197 22.0228 7.59827 20.7271 9.3751 20.2098C15.6801 18.3699 22.1467 17.2008 29.7628 15.7326C30.5678 15.5791 31.5639 15.2316 32.2477 14.946C33.9725 14.2313 35.9485 13.2857 38.1758 12.1094C44.086 8.98629 47.5059 7.18229 48.4356 6.6974C52.062 4.8036 55.3114 3.20614 59.145 2.40606C63.7648 1.43986 68.8521 0.77178 74.4069 0.401821C79.924 0.035455 85.0849 -0.0803817 89.8895 0.0543119C98.0952 0.285985 106.193 1.04566 114.184 2.33333C114.632 2.40516 115.229 2.76524 115.974 3.41357C117.002 4.30614 117.801 5.03618 118.37 5.60369C121.006 8.23829 123.623 10.9681 126.22 13.7931C126.518 14.1181 126.832 14.418 127.162 14.6928C128.159 15.5279 129.122 16.0397 128.947 17.4648C128.802 18.6501 128.28 20.1075 128.18 21.5029C128.053 23.2665 128.028 25.0651 128.105 26.8987C128.113 27.0974 128.19 27.2876 128.323 27.4375C128.689 27.856 129.146 28.2214 129.693 28.5339C129.751 28.5669 129.799 28.6141 129.833 28.6711C129.868 28.7282 129.887 28.7931 129.89 28.8599C129.956 31.094 129.874 33.2194 129.645 35.2363C129.641 35.2694 129.626 35.2999 129.601 35.3219C129.576 35.3439 129.543 35.3556 129.51 35.3548ZM74.8323 3.47283V14.3453C74.8322 14.3604 74.8353 14.3754 74.8413 14.3892C74.8474 14.403 74.8563 14.4154 74.8675 14.4256C74.8787 14.4357 74.8919 14.4434 74.9062 14.4482C74.9205 14.4529 74.9357 14.4546 74.9507 14.453L95.6292 12.1552C95.6483 12.1527 95.6668 12.1462 95.6832 12.1361C95.6996 12.126 95.7137 12.1126 95.7244 12.0968C95.7352 12.0809 95.7423 12.063 95.7454 12.0443C95.7485 12.0255 95.7474 12.0064 95.7423 11.9882L93.4162 3.76647C93.4012 3.71201 93.3708 3.66314 93.3287 3.62583C93.2866 3.58851 93.2347 3.56437 93.1793 3.55634C87.1058 2.64222 81.0224 2.57757 74.9292 3.36239C74.8646 3.37136 74.8323 3.40818 74.8323 3.47283ZM125.868 14.4692C125.878 14.4678 125.888 14.464 125.896 14.4579C125.905 14.4519 125.912 14.444 125.916 14.4347C125.921 14.4255 125.924 14.4152 125.923 14.4048C125.923 14.3944 125.921 14.3841 125.916 14.3749C125.9 14.3462 125.882 14.321 125.862 14.2995C122.868 11.0579 120.023 8.11437 117.325 5.46899C116.701 4.85479 116.022 4.2343 115.29 3.60753C115.062 3.41177 115.003 3.45308 115.112 3.73144C116.294 6.70278 117.6 9.70106 119.425 12.2818C120.154 13.3108 121.102 13.9592 122.271 14.2268C123.497 14.5087 124.696 14.5895 125.868 14.4692ZM33.9034 18.4723L69.098 15.1804C69.1666 15.1741 69.231 15.1445 69.2805 15.0965C69.33 15.0484 69.3615 14.9849 69.3699 14.9164L70.7886 3.71798C70.7976 3.64614 70.7662 3.61202 70.6944 3.61561C66.7692 3.75928 62.9204 4.2765 59.1477 5.16728C55.5403 6.02034 52.0907 7.29364 48.7991 8.98719C47.803 9.49902 46.255 10.4069 44.1551 11.7107C41.1399 13.582 37.6805 15.7093 33.7768 18.0925C33.2707 18.4014 33.3129 18.528 33.9034 18.4723ZM100.631 11.2527C100.644 11.2815 100.666 11.3051 100.694 11.3198C100.722 11.3344 100.754 11.3393 100.785 11.3335L105.095 10.5335C105.122 10.5284 105.148 10.5153 105.168 10.4958L110.28 5.38009C110.299 5.36133 110.312 5.33745 110.318 5.31129C110.325 5.28513 110.323 5.25779 110.314 5.23253C110.305 5.20728 110.289 5.18516 110.267 5.16881C110.246 5.15247 110.22 5.14259 110.194 5.14034L97.5325 3.99544C97.5079 3.99307 97.4831 3.99726 97.4606 4.00761C97.4381 4.01795 97.4188 4.03408 97.4046 4.05434C97.3903 4.0746 97.3817 4.09827 97.3796 4.12294C97.3775 4.14762 97.382 4.17241 97.3926 4.19479L100.631 11.2527ZM127.41 20.2718C127.502 20.2581 127.589 20.2189 127.661 20.1585C127.733 20.0982 127.787 20.019 127.817 19.9297C128.124 18.9994 128.304 18.1032 128.358 17.2412C128.406 16.4941 128.042 16.0263 127.265 15.8377C124.888 15.2558 123.63 15.4201 121.687 17.0122C121.218 17.3974 120.909 18.0117 121.377 18.5208C122.197 19.4062 123.161 20.1227 124.268 20.6705C124.351 20.7118 124.437 20.7253 124.527 20.7109L127.41 20.2718ZM115.917 19.073C115.917 18.5122 115.615 17.9743 115.077 17.5777C114.539 17.1811 113.809 16.9583 113.047 16.9583C112.286 16.9583 111.556 17.1811 111.018 17.5777C110.48 17.9743 110.178 18.5122 110.178 19.073C110.178 19.6339 110.48 20.1718 111.018 20.5683C111.556 20.9649 112.286 21.1877 113.047 21.1877C113.809 21.1877 114.539 20.9649 115.077 20.5683C115.615 20.1718 115.917 19.6339 115.917 19.073ZM89.4507 19.6657C89.4579 19.7842 89.5153 19.8803 89.623 19.9539C89.9218 20.1533 90.2583 20.2045 90.6218 20.49C91.8997 21.4867 93.3005 21.5891 94.8242 20.7971C94.9194 20.7486 95.1509 20.5277 95.5188 20.1344C95.8365 19.7977 96.1272 19.7627 96.558 19.7519C97.0049 19.7411 97.2176 19.5543 97.196 19.1916C97.1727 18.8288 96.9394 18.669 96.4961 18.7121C96.0653 18.7552 95.7719 18.7552 95.4165 18.4588C95.0037 18.114 94.7471 17.9228 94.6465 17.885C93.0384 17.2852 91.66 17.5582 90.5114 18.704C90.1856 19.0299 89.8599 19.1215 89.588 19.3559C89.4893 19.4421 89.4435 19.5454 89.4507 19.6657ZM66.4058 22.3622C66.7558 22.0201 67.2727 22.0821 67.6415 21.9663C67.9233 21.8747 68.0292 21.6996 67.9592 21.4409L67.9323 21.3413C67.8992 21.2175 67.8235 21.1094 67.7186 21.036C67.6137 20.9626 67.4863 20.9286 67.3588 20.9399L66.5996 21.0072C66.5548 21.0108 66.4713 20.9812 66.3493 20.9183C66.2847 20.8842 66.0989 20.745 65.792 20.5008C64.8686 19.7707 63.4767 19.7896 62.4591 20.2233C61.7699 20.5196 61.2207 21.2093 60.4346 21.5783C60.3669 21.6103 60.3097 21.661 60.2698 21.7244C60.2299 21.7878 60.209 21.8612 60.2095 21.9359C60.2101 22.0106 60.2321 22.0834 60.273 22.1456C60.3139 22.2078 60.3718 22.2569 60.44 22.2868C60.8833 22.4826 61.2431 22.6963 61.5195 22.928C62.7579 23.957 64.419 23.9031 65.7166 23.0519C65.9831 22.8768 66.2039 22.5589 66.4058 22.3622ZM13.5776 25.2959C14.5449 24.5739 15.4002 23.8169 16.1432 23.0249C16.1561 23.0111 16.165 22.994 16.169 22.9754C16.1729 22.9569 16.1718 22.9377 16.1657 22.9197C16.1597 22.9018 16.1489 22.8858 16.1345 22.8735C16.1201 22.8612 16.1026 22.853 16.084 22.8498C12.6559 22.2805 9.32484 22.4296 6.09066 23.297C4.80381 23.6418 3.88309 24.3216 3.32851 25.3363C2.65008 26.5809 2.27587 28.0903 2.20588 29.8647C2.13857 31.6049 4.94111 30.4142 5.70568 30.0694C8.19683 28.9416 10.8208 27.3504 13.5776 25.2959Z" fill="#999999"/>
<path d="M74.8329 3.47262C74.8329 3.40797 74.8652 3.37115 74.9298 3.36217C81.0231 2.57736 87.1065 2.64201 93.18 3.55613C93.2354 3.56416 93.2873 3.5883 93.3293 3.62562C93.3714 3.66293 93.4018 3.7118 93.4169 3.76625L95.7429 11.9879C95.748 12.0062 95.7491 12.0253 95.746 12.0441C95.7429 12.0628 95.7358 12.0807 95.7251 12.0966C95.7143 12.1124 95.7003 12.1258 95.6838 12.1359C95.6674 12.146 95.649 12.1525 95.6298 12.155L74.9513 14.4528C74.9363 14.4543 74.9212 14.4527 74.9068 14.4479C74.8925 14.4432 74.8793 14.4355 74.8681 14.4254C74.857 14.4152 74.8481 14.4028 74.842 14.389C74.8359 14.3751 74.8328 14.3602 74.8329 14.3451V3.47262Z" fill="white"/>
<path d="M125.867 14.4692C124.695 14.5896 123.496 14.5088 122.271 14.2268C121.102 13.9592 120.154 13.3109 119.425 12.2818C117.6 9.7011 116.294 6.70282 115.112 3.73148C115.003 3.45311 115.062 3.41181 115.29 3.60756C116.022 4.23434 116.7 4.85482 117.325 5.46903C120.023 8.11441 122.868 11.0579 125.862 14.2995C125.882 14.3211 125.9 14.3462 125.916 14.375C125.921 14.3842 125.923 14.3944 125.923 14.4048C125.923 14.4152 125.921 14.4255 125.916 14.4347C125.911 14.444 125.904 14.452 125.896 14.458C125.887 14.464 125.878 14.4679 125.867 14.4692Z" fill="white"/>
<path d="M69.0979 15.1803L33.9033 18.4722C33.3128 18.5279 33.2707 18.4012 33.7768 18.0923C37.6804 15.7092 41.1398 13.5819 44.1551 11.7106C46.2549 10.4067 47.8029 9.4989 48.799 8.98707C52.0907 7.29352 55.5402 6.02022 59.1477 5.16716C62.9203 4.27639 66.7692 3.75916 70.6944 3.61549C70.7662 3.6119 70.7976 3.64602 70.7886 3.71786L69.3698 14.9163C69.3615 14.9848 69.33 15.0483 69.2805 15.0963C69.231 15.1444 69.1666 15.174 69.0979 15.1803ZM43.8616 17.0875C43.8849 17.085 43.907 17.0758 43.9251 17.061C43.9433 17.0461 43.9568 17.0264 43.9639 17.004L45.7596 11.4681C45.7674 11.4443 45.7677 11.4187 45.7604 11.3948C45.7531 11.3708 45.7386 11.3497 45.7188 11.3344C45.6991 11.319 45.675 11.3102 45.65 11.309C45.625 11.3079 45.6003 11.3145 45.5792 11.328L34.8752 17.8526C34.8498 17.8662 34.8301 17.8884 34.8196 17.9152C34.809 17.9421 34.8084 17.9718 34.8178 17.999C34.8272 18.0263 34.846 18.0493 34.8709 18.0639C34.8957 18.0785 34.9249 18.0839 34.9533 18.0789L43.8616 17.0875Z" fill="white"/>
<path d="M100.631 11.2531L97.3922 4.19511C97.3816 4.17273 97.3772 4.14794 97.3793 4.12327C97.3814 4.09859 97.39 4.07492 97.4042 4.05466C97.4185 4.0344 97.4378 4.01827 97.4603 4.00793C97.4828 3.99758 97.5076 3.99339 97.5322 3.99577L110.193 5.14066C110.22 5.14291 110.246 5.15279 110.267 5.16913C110.288 5.18548 110.304 5.2076 110.313 5.23285C110.323 5.25811 110.324 5.28545 110.318 5.31161C110.312 5.33777 110.299 5.36165 110.28 5.38041L105.167 10.4961C105.147 10.5156 105.122 10.5287 105.094 10.5338L100.784 11.3339C100.753 11.3396 100.721 11.3348 100.694 11.3201C100.666 11.3054 100.644 11.2818 100.631 11.2531Z" fill="white"/>
<path d="M43.8614 17.0877L34.9531 18.0791C34.9247 18.084 34.8955 18.0787 34.8707 18.0641C34.8459 18.0495 34.8271 18.0265 34.8177 17.9992C34.8083 17.972 34.8089 17.9423 34.8194 17.9154C34.8299 17.8886 34.8496 17.8664 34.875 17.8528L45.579 11.3282C45.6001 11.3147 45.6249 11.3081 45.6499 11.3092C45.6748 11.3103 45.6989 11.3192 45.7187 11.3345C45.7384 11.3499 45.753 11.371 45.7603 11.3949C45.7676 11.4189 45.7673 11.4445 45.7594 11.4683L43.9637 17.0042C43.9566 17.0265 43.9431 17.0463 43.925 17.0611C43.9068 17.076 43.8847 17.0852 43.8614 17.0877Z" fill="#999999"/>
<path d="M127.41 20.2714L124.527 20.7105C124.437 20.7248 124.351 20.7114 124.268 20.6701C123.161 20.1223 122.197 19.4057 121.377 18.5203C120.909 18.0112 121.218 17.397 121.687 17.0118C123.63 15.4197 124.888 15.2554 127.265 15.8373C128.042 16.0258 128.406 16.4937 128.358 17.2408C128.304 18.1028 128.124 18.999 127.817 19.9292C127.787 20.0185 127.733 20.0977 127.661 20.1581C127.589 20.2185 127.502 20.2577 127.41 20.2714Z" fill="white"/>
<path d="M115.918 19.0732C115.918 19.634 115.615 20.1719 115.077 20.5685C114.539 20.9651 113.809 21.1879 113.048 21.1879C112.287 21.1879 111.557 20.9651 111.018 20.5685C110.48 20.1719 110.178 19.634 110.178 19.0732C110.178 18.5123 110.48 17.9745 111.018 17.5779C111.557 17.1813 112.287 16.9585 113.048 16.9585C113.809 16.9585 114.539 17.1813 115.077 17.5779C115.615 17.9745 115.918 18.5123 115.918 19.0732ZM115.616 19.0625C115.617 18.8166 115.552 18.5728 115.423 18.345C115.294 18.1172 115.105 17.9098 114.866 17.7347C114.627 17.5596 114.343 17.4202 114.03 17.3244C113.717 17.2287 113.381 17.1785 113.041 17.1767C112.356 17.1731 111.698 17.3669 111.211 17.7155C110.724 18.0641 110.45 18.5388 110.447 19.0354C110.446 19.2813 110.511 19.5251 110.64 19.7529C110.769 19.9807 110.958 20.1881 111.197 20.3632C111.436 20.5383 111.72 20.6777 112.033 20.7735C112.347 20.8692 112.682 20.9194 113.022 20.9212C113.707 20.9247 114.366 20.7309 114.852 20.3824C115.339 20.0338 115.613 19.559 115.616 19.0625Z" fill="white"/>
<path d="M115.615 19.0621C115.613 19.5586 115.338 20.0334 114.852 20.382C114.365 20.7305 113.707 20.9243 113.021 20.9207C112.682 20.919 112.346 20.8688 112.033 20.7731C111.72 20.6773 111.436 20.5379 111.197 20.3628C110.958 20.1877 110.768 19.9803 110.64 19.7525C110.511 19.5247 110.445 19.2808 110.447 19.035C110.449 18.5384 110.724 18.0637 111.21 17.7151C111.697 17.3665 112.355 17.1727 113.041 17.1763C113.38 17.1781 113.716 17.2283 114.029 17.324C114.342 17.4197 114.626 17.5591 114.865 17.7343C115.104 17.9094 115.294 18.1168 115.422 18.3446C115.551 18.5724 115.617 18.8162 115.615 19.0621Z" fill="#999999"/>
<path d="M97.1963 19.1919C97.2178 19.5546 97.0051 19.7414 96.5582 19.7522C96.1275 19.763 95.8367 19.798 95.5191 20.1347C95.1511 20.528 94.9196 20.7489 94.8245 20.7974C93.3007 21.5894 91.8999 21.4871 90.622 20.4903C90.2586 20.2048 89.922 20.1536 89.6232 19.9542C89.5155 19.8806 89.4581 19.7845 89.4509 19.666C89.4437 19.5457 89.4895 19.4424 89.5882 19.3562C89.8601 19.1218 90.1859 19.0302 90.5116 18.7043C91.6603 17.5585 93.0387 17.2855 94.6468 17.8853C94.7473 17.9231 95.004 18.1143 95.4168 18.4591C95.7721 18.7555 96.0656 18.7555 96.4963 18.7124C96.9396 18.6693 97.1729 18.8291 97.1963 19.1919Z" fill="white"/>
<path d="M66.4062 22.3625C66.2043 22.5591 65.9836 22.877 65.7171 23.0521C64.4194 23.9034 62.7584 23.9572 61.52 22.9282C61.2436 22.6965 60.8837 22.4828 60.4404 22.287C60.3723 22.2571 60.3143 22.208 60.2734 22.1458C60.2326 22.0836 60.2105 22.0108 60.21 21.9361C60.2094 21.8614 60.2303 21.788 60.2702 21.7246C60.3101 21.6612 60.3673 21.6105 60.435 21.5785C61.2211 21.2095 61.7703 20.5199 62.4595 20.2235C63.4772 19.7898 64.869 19.771 65.7924 20.501C66.0993 20.7452 66.2851 20.8844 66.3497 20.9185C66.4718 20.9814 66.5552 21.011 66.6001 21.0074L67.3593 20.9401C67.4868 20.9288 67.6142 20.9628 67.7191 21.0362C67.824 21.1097 67.8996 21.2177 67.9327 21.3415L67.9596 21.4412C68.0296 21.6998 67.9237 21.8749 67.6419 21.9665C67.2731 22.0823 66.7562 22.0203 66.4062 22.3625Z" fill="white"/>
<path d="M13.5773 25.2961C10.8206 27.3507 8.19661 28.9418 5.70547 30.0697C4.94089 30.4145 2.13836 31.6052 2.20566 29.8649C2.27566 28.0906 2.64987 26.5811 3.32829 25.3365C3.88288 24.3219 4.80359 23.6421 6.09045 23.2973C9.32463 22.4299 12.6557 22.2808 16.0837 22.8501C16.1024 22.8533 16.1199 22.8615 16.1343 22.8738C16.1487 22.8861 16.1595 22.902 16.1655 22.92C16.1716 22.9379 16.1727 22.9572 16.1687 22.9757C16.1648 22.9942 16.1559 23.0113 16.143 23.0252C15.3999 23.8172 14.5447 24.5742 13.5773 25.2961Z" fill="white"/>
<path d="M7.59257 37.5369C7.66164 37.537 7.72862 37.5132 7.78211 37.4695C7.83561 37.4258 7.87233 37.3649 7.88602 37.2971C8.83635 32.7391 11.4585 29.0701 15.7525 27.1251C21.4922 24.5201 28.3518 25.3148 32.6781 29.9483C34.6272 32.0351 36.0532 34.4838 36.956 37.2944C36.9818 37.3726 37.0319 37.4404 37.0987 37.4879C37.1656 37.5354 37.2458 37.5602 37.3275 37.5584L91.6229 36.3031C91.7152 36.3008 91.8047 36.2709 91.88 36.2171C91.9553 36.1634 92.013 36.0883 92.0456 36.0014C92.1677 35.6745 92.3947 35.019 92.7267 34.0349C93.6124 31.4056 95.4512 28.7118 97.6399 26.9204C100.327 24.7186 103.687 23.7254 107.722 23.9409C113.607 24.2552 117.752 27.0658 120.157 32.3727C120.574 33.2958 120.934 34.3007 121.239 35.3872C121.256 35.4455 121.291 35.4968 121.338 35.5333C121.386 35.5698 121.444 35.5894 121.503 35.5892H129.302C129.336 35.589 129.369 35.5962 129.399 35.6104C129.43 35.6245 129.456 35.6452 129.478 35.671C129.499 35.6968 129.515 35.727 129.523 35.7594C129.531 35.7918 129.532 35.8257 129.526 35.8586C129.052 38.3477 124.085 40.4813 121.746 41.3272C120.967 41.6073 120.248 41.7016 119.589 41.61C119.498 41.5975 119.455 41.5445 119.463 41.4511C119.982 34.6356 116.267 28.2996 109.469 26.6968C104.963 25.6327 100.187 27.5642 97.3895 31.1309C94.9343 34.2611 93.9696 37.835 94.4955 41.8525C94.4985 41.8767 94.4965 41.9012 94.4895 41.9245C94.4826 41.9478 94.4708 41.9694 94.455 41.9877C94.4392 42.006 94.4198 42.0207 94.398 42.0309C94.3762 42.041 94.3526 42.0463 94.3286 42.0464L34.9772 43.2452C34.9564 43.2457 34.9356 43.2417 34.9164 43.2336C34.8972 43.2255 34.8799 43.2134 34.8657 43.1982C34.8514 43.1829 34.8406 43.1648 34.8338 43.1451C34.8271 43.1253 34.8246 43.1044 34.8265 43.0836C35.4753 36.3193 31.2997 29.6331 24.4078 28.3131C20.0977 27.4888 15.6475 29.2936 12.8423 32.7634C10.3493 35.8469 9.34068 39.4253 9.8163 43.4984C9.8193 43.5213 9.81681 43.5446 9.80903 43.5664C9.80126 43.5881 9.78842 43.6077 9.77158 43.6235C9.75475 43.6393 9.73439 43.6508 9.7122 43.6572C9.69002 43.6635 9.66664 43.6645 9.644 43.6601C8.85609 43.5056 8.28266 43.3889 7.92371 43.3099C4.66081 42.5852 2.04134 40.853 0.732948 37.8386C0.71858 37.8057 0.712674 37.7697 0.715765 37.7339C0.718856 37.698 0.730846 37.6636 0.750645 37.6336C0.770445 37.6036 0.797425 37.5791 0.829129 37.5622C0.860833 37.5453 0.896254 37.5366 0.93217 37.5369H7.59257Z" fill="#999999"/>
<path d="M117.885 39.2537C117.905 42.1286 116.76 44.8939 114.702 46.9412C112.645 48.9886 109.842 50.1503 106.912 50.1707C103.982 50.1912 101.164 49.0688 99.0777 47.0504C96.9915 45.032 95.8083 42.283 95.7882 39.408C95.7682 36.5331 96.913 33.7678 98.9707 31.7205C101.029 29.6732 103.831 28.5115 106.761 28.491C109.691 28.4705 112.509 29.593 114.595 31.6113C116.682 33.6297 117.865 36.3788 117.885 39.2537ZM114.488 39.3175C114.486 38.3312 114.286 37.3549 113.9 36.4444C113.514 35.5338 112.949 34.7068 112.237 34.0107C111.526 33.3145 110.681 32.7628 109.752 32.3869C108.823 32.0111 107.828 31.8186 106.823 31.8204C105.819 31.8221 104.824 32.0181 103.897 32.3972C102.969 32.7762 102.126 33.3309 101.417 34.0296C100.708 34.7282 100.146 35.5572 99.7628 36.4691C99.3799 37.3809 99.1837 38.3579 99.1855 39.3442C99.1872 40.3305 99.3868 41.3068 99.7729 42.2174C100.159 43.1279 100.724 43.9549 101.436 44.6511C102.147 45.3472 102.992 45.899 103.921 46.2748C104.85 46.6506 105.845 46.8431 106.85 46.8414C107.854 46.8396 108.849 46.6436 109.777 46.2646C110.704 45.8855 111.547 45.3308 112.256 44.6321C112.965 43.9335 113.527 43.1046 113.91 42.1927C114.293 41.2808 114.489 40.3038 114.488 39.3175Z" fill="#999999"/>
<path d="M33.4775 40.7744C33.4825 43.6494 32.3227 46.4087 30.2532 48.4452C28.1837 50.4817 25.3741 51.6287 22.4424 51.6338C19.5107 51.639 16.6971 50.5018 14.6205 48.4725C12.544 46.4432 11.3745 43.688 11.3695 40.8131C11.3645 37.9381 12.5243 35.1788 14.5938 33.1423C16.6633 31.1057 19.4729 29.9588 22.4046 29.9536C25.3363 29.9485 28.1499 31.0857 30.2265 33.115C32.303 35.1443 33.4725 37.8995 33.4775 40.7744ZM30.0815 40.9274C30.0987 39.942 29.9177 38.9627 29.5489 38.0456C29.1801 37.1285 28.6306 36.2914 27.9319 35.5821C27.2332 34.8729 26.3989 34.3054 25.4767 33.9121C24.5545 33.5188 23.5624 33.3073 22.5571 33.2897C21.5518 33.2722 20.5529 33.4489 19.6175 33.8098C18.6822 34.1707 17.8286 34.7087 17.1056 35.3931C16.3826 36.0775 15.8043 36.8949 15.4037 37.7986C15.0031 38.7023 14.788 39.6746 14.7709 40.66C14.7537 41.6455 14.9347 42.6247 15.3035 43.5419C15.6723 44.459 16.2218 45.2961 16.9205 46.0053C17.6192 46.7145 18.4535 47.282 19.3757 47.6754C20.2979 48.0687 21.29 48.2802 22.2953 48.2977C23.3006 48.3153 24.2995 48.1386 25.2348 47.7777C26.1702 47.4168 27.0238 46.8788 27.7468 46.1944C28.4698 45.51 29.0481 44.6926 29.4487 43.7889C29.8493 42.8852 30.0644 41.9129 30.0815 40.9274Z" fill="#999999"/>
<path d="M114.488 39.3175C114.49 40.3038 114.294 41.2807 113.911 42.1926C113.528 43.1045 112.966 43.9335 112.257 44.6321C111.547 45.3308 110.705 45.8855 109.777 46.2645C108.85 46.6436 107.855 46.8396 106.85 46.8413C105.846 46.8431 104.85 46.6506 103.921 46.2748C102.992 45.8989 102.148 45.3472 101.436 44.651C100.725 43.9549 100.16 43.1279 99.7735 42.2173C99.3874 41.3068 99.1878 40.3305 99.186 39.3442C99.1843 38.3579 99.3805 37.3809 99.7634 36.469C100.146 35.5571 100.708 34.7282 101.418 34.0296C102.127 33.3309 102.969 32.7762 103.897 32.3971C104.825 32.0181 105.819 31.8221 106.824 31.8203C107.829 31.8186 108.824 32.0111 109.753 32.3869C110.682 32.7627 111.526 33.3145 112.238 34.0106C112.95 34.7068 113.515 35.5338 113.901 36.4443C114.287 37.3549 114.487 38.3312 114.488 39.3175ZM107.696 37.5852C107.698 37.5986 107.702 37.6115 107.71 37.6226C107.717 37.6338 107.728 37.643 107.74 37.6493C107.752 37.6557 107.765 37.659 107.778 37.6591C107.792 37.6592 107.805 37.656 107.817 37.6499L112.814 35.0045C112.826 34.9981 112.837 34.9887 112.845 34.9771C112.853 34.9655 112.857 34.9521 112.859 34.9381C112.86 34.9242 112.858 34.9101 112.852 34.8972C112.847 34.8843 112.838 34.873 112.827 34.8644L110.175 32.8332C110.167 32.8259 110.157 32.8204 110.146 32.8171L107.187 31.9685C107.174 31.9649 107.16 31.9646 107.147 31.9675C107.134 31.9705 107.122 31.9766 107.111 31.9853C107.101 31.9941 107.093 32.0052 107.088 32.0177C107.083 32.0303 107.081 32.0439 107.082 32.0574L107.696 37.5852ZM105.367 38.159C105.393 38.1672 105.421 38.1681 105.448 38.1617C105.474 38.1554 105.499 38.1418 105.518 38.1226C105.538 38.1034 105.553 38.0792 105.56 38.0524C105.568 38.0257 105.568 37.9974 105.561 37.9704C105.066 36.0668 104.753 34.34 104.624 32.7901C104.621 32.7457 104.606 32.7028 104.583 32.665C104.56 32.6272 104.527 32.5955 104.489 32.5726C104.451 32.5497 104.408 32.5362 104.364 32.5333C104.319 32.5303 104.275 32.5381 104.234 32.5558C102.208 33.425 100.817 34.85 100.061 36.8309C100.047 36.8681 100.041 36.9081 100.045 36.9478C100.049 36.9874 100.062 37.0257 100.083 37.0594C100.104 37.0932 100.133 37.1215 100.167 37.1422C100.201 37.1628 100.239 37.1752 100.279 37.1784C101.875 37.3041 103.571 37.631 105.367 38.159ZM113.355 36.6827C113.358 36.6827 113.361 36.68 113.363 36.6749C113.365 36.6699 113.368 36.6625 113.369 36.6532C113.371 36.6438 113.372 36.6328 113.373 36.6207C113.374 36.6086 113.374 36.5956 113.374 36.5825C113.373 36.5694 113.372 36.5565 113.371 36.5444C113.37 36.5323 113.368 36.5214 113.365 36.5122C113.363 36.503 113.361 36.4957 113.358 36.4908C113.355 36.4859 113.352 36.4834 113.349 36.4834C113.347 36.4835 113.344 36.4862 113.341 36.4912C113.339 36.4963 113.337 36.5037 113.335 36.513C113.333 36.5223 113.332 36.5334 113.331 36.5455C113.33 36.5576 113.33 36.5706 113.331 36.5837C113.331 36.5968 113.332 36.6097 113.333 36.6218C113.335 36.6338 113.337 36.6448 113.339 36.654C113.341 36.6632 113.344 36.6704 113.347 36.6754C113.349 36.6803 113.352 36.6828 113.355 36.6827ZM113.441 37.4559C113.428 37.4958 113.407 37.5327 113.379 37.5642C113.352 37.5957 113.318 37.6212 113.28 37.6391L108.856 39.6703C108.834 39.6807 108.815 39.6967 108.8 39.7169C108.786 39.737 108.777 39.7606 108.774 39.7854C108.771 39.8102 108.775 39.8354 108.785 39.8586C108.794 39.8819 108.81 39.9023 108.829 39.9181C110.254 41.0316 111.47 42.1792 112.477 43.3609C112.502 43.3894 112.533 43.4117 112.568 43.4261C112.603 43.4404 112.641 43.4464 112.679 43.4435C112.716 43.4406 112.753 43.429 112.785 43.4095C112.817 43.39 112.845 43.3632 112.865 43.3312C113.961 41.5721 114.48 39.2446 113.732 37.2808C113.724 37.2608 113.712 37.2433 113.695 37.2301C113.678 37.2169 113.658 37.2086 113.637 37.2061C113.616 37.2036 113.594 37.207 113.575 37.2159C113.556 37.2248 113.539 37.2389 113.527 37.2566C113.5 37.2943 113.472 37.3607 113.441 37.4559ZM105.195 40.4757C105.21 40.4537 105.218 40.4282 105.22 40.4017C105.222 40.3753 105.216 40.3488 105.205 40.3251C105.193 40.3013 105.175 40.2811 105.153 40.2664C105.131 40.2517 105.106 40.2431 105.079 40.2414C103.157 40.1354 101.456 39.9118 99.9748 39.5706C99.9324 39.5605 99.8881 39.5608 99.8457 39.5713C99.8034 39.5817 99.7641 39.6022 99.7312 39.6309C99.6983 39.6596 99.6727 39.6957 99.6566 39.7363C99.6404 39.7769 99.6342 39.8207 99.6383 39.8642C99.8447 42.0139 100.758 43.7362 102.379 45.0311C102.409 45.0553 102.445 45.072 102.483 45.08C102.521 45.088 102.561 45.0869 102.598 45.077C102.636 45.0671 102.671 45.0485 102.7 45.0227C102.729 44.997 102.752 44.9648 102.767 44.9287C103.361 43.4794 104.17 41.9951 105.195 40.4757ZM104.826 46.3268C104.819 46.3411 104.816 46.3568 104.817 46.3725C104.818 46.3883 104.823 46.4035 104.831 46.4169C104.839 46.4303 104.851 46.4414 104.865 46.4492C104.878 46.457 104.894 46.4612 104.91 46.4615L107.96 46.5612C107.972 46.5616 107.984 46.5598 107.995 46.5558L111.015 45.489C111.03 45.4836 111.043 45.4745 111.053 45.4628C111.064 45.451 111.071 45.4369 111.074 45.4217C111.078 45.4065 111.077 45.3906 111.073 45.3756C111.069 45.3605 111.061 45.3467 111.05 45.3355L107.263 41.5452C107.252 41.5347 107.239 41.5268 107.225 41.5222C107.211 41.5176 107.196 41.5164 107.181 41.5188C107.166 41.5212 107.152 41.527 107.14 41.5358C107.128 41.5446 107.118 41.5561 107.112 41.5694L104.826 46.3268Z" fill="white"/>
<path d="M107.696 37.585L107.082 32.0572C107.08 32.0437 107.082 32.0301 107.087 32.0175C107.092 32.005 107.101 31.9938 107.111 31.9851C107.121 31.9763 107.133 31.9702 107.147 31.9673C107.16 31.9644 107.174 31.9647 107.187 31.9683L110.145 32.8168C110.156 32.8202 110.166 32.8257 110.175 32.833L112.827 34.8642C112.838 34.8728 112.846 34.8841 112.852 34.897C112.858 34.9099 112.86 34.924 112.858 34.9379C112.857 34.9519 112.852 34.9653 112.844 34.9769C112.836 34.9885 112.826 34.9979 112.813 35.0043L107.817 37.6496C107.805 37.6558 107.791 37.659 107.778 37.6589C107.764 37.6588 107.751 37.6555 107.739 37.6491C107.727 37.6427 107.717 37.6336 107.709 37.6224C107.702 37.6113 107.697 37.5984 107.696 37.585Z" fill="#999999"/>
<path d="M105.367 38.1591C103.57 37.6311 101.874 37.3042 100.279 37.1785C100.239 37.1753 100.2 37.1629 100.166 37.1422C100.132 37.1216 100.104 37.0932 100.082 37.0595C100.061 37.0257 100.048 36.9875 100.044 36.9478C100.041 36.9081 100.046 36.8681 100.06 36.831C100.816 34.8501 102.207 33.425 104.233 32.5558C104.274 32.5381 104.319 32.5304 104.363 32.5333C104.407 32.5362 104.451 32.5497 104.489 32.5726C104.527 32.5956 104.559 32.6272 104.582 32.6651C104.606 32.7029 104.62 32.7458 104.624 32.7902C104.753 34.34 105.065 36.0668 105.561 37.9705C105.567 37.9974 105.567 38.0257 105.56 38.0525C105.552 38.0792 105.538 38.1034 105.518 38.1227C105.498 38.1419 105.474 38.1554 105.447 38.1618C105.421 38.1682 105.393 38.1672 105.367 38.1591Z" fill="#999999"/>
<path d="M30.0819 40.927C30.0648 41.9124 29.8497 42.8847 29.4491 43.7884C29.0485 44.6922 28.4702 45.5095 27.7472 46.1939C27.0242 46.8783 26.1706 47.4163 25.2353 47.7772C24.2999 48.1381 23.301 48.3148 22.2957 48.2973C21.2904 48.2797 20.2983 48.0682 19.3761 47.6749C18.4539 47.2816 17.6196 46.7141 16.9209 46.0049C16.2222 45.2956 15.6727 44.4585 15.3039 43.5414C14.9351 42.6243 14.7541 41.645 14.7713 40.6596C14.7884 39.6741 15.0035 38.7018 15.4041 37.7981C15.8047 36.8944 16.383 36.077 17.106 35.3926C17.829 34.7082 18.6826 34.1702 19.618 33.8093C20.5533 33.4484 21.5522 33.2717 22.5575 33.2893C23.5628 33.3068 24.5549 33.5183 25.4771 33.9116C26.3993 34.305 27.2336 34.8725 27.9323 35.5817C28.631 36.2909 29.1805 37.128 29.5493 38.0451C29.9181 38.9623 30.0991 39.9415 30.0819 40.927ZM22.4212 39.0638C22.5056 39.0638 22.5666 39.0288 22.6043 38.9587C23.4514 37.4232 24.4305 35.9892 25.5414 34.6566C25.566 34.6265 25.5834 34.5912 25.5923 34.5534C25.6012 34.5156 25.6014 34.4762 25.5928 34.4383C25.5843 34.4004 25.5672 34.3649 25.5429 34.3346C25.5186 34.3043 25.4877 34.2799 25.4526 34.2633C24.4726 33.8054 23.4568 33.5782 22.4051 33.5818C21.3533 33.5854 20.3393 33.8179 19.3629 34.2795C19.328 34.2963 19.2974 34.3209 19.2734 34.3514C19.2494 34.3818 19.2326 34.4173 19.2243 34.4552C19.216 34.4931 19.2164 34.5323 19.2255 34.57C19.2346 34.6077 19.2521 34.6429 19.2768 34.6728C20.3949 36 21.3812 37.4286 22.2355 38.9587C22.2749 39.0288 22.3369 39.0638 22.4212 39.0638ZM29.647 41.9813C29.66 41.9853 29.6737 41.986 29.6871 41.9835C29.7004 41.9809 29.713 41.9751 29.7236 41.9666C29.7342 41.9581 29.7426 41.9472 29.748 41.9347C29.7534 41.9222 29.7557 41.9086 29.7547 41.8951L29.4424 38.5493C29.4406 38.5367 29.436 38.5248 29.4289 38.5143L27.8352 35.8904C27.8283 35.8783 27.8185 35.8681 27.8066 35.8607C27.7948 35.8533 27.7813 35.849 27.7674 35.8482C27.7534 35.8474 27.7395 35.8501 27.7269 35.8561C27.7143 35.862 27.7034 35.8711 27.6952 35.8823L24.295 40.3272C24.2865 40.338 24.2808 40.3507 24.2784 40.3643C24.276 40.3778 24.277 40.3917 24.2813 40.4047C24.2855 40.4178 24.2929 40.4296 24.3028 40.4391C24.3127 40.4486 24.3248 40.4555 24.338 40.4592L29.647 41.9813ZM20.5071 40.5131C20.5332 40.5082 20.5575 40.4964 20.5775 40.4789C20.5975 40.4614 20.6125 40.4387 20.6209 40.4133C20.6294 40.3879 20.6311 40.3606 20.6257 40.3341C20.6204 40.3076 20.6083 40.283 20.5906 40.2626C19.2965 38.8276 18.243 37.4645 17.43 36.1733C17.4064 36.1366 17.3745 36.1059 17.3368 36.0839C17.2992 36.0618 17.2569 36.0489 17.2133 36.0463C17.1698 36.0437 17.1263 36.0514 17.0862 36.0687C17.0462 36.0861 17.0109 36.1127 16.9831 36.1463C15.6119 37.8219 15.0456 39.6942 15.2843 41.7631C15.2887 41.8016 15.302 41.8385 15.3233 41.8709C15.3445 41.9034 15.3731 41.9305 15.4068 41.95C15.4404 41.9696 15.4782 41.9812 15.5173 41.9838C15.5563 41.9864 15.5954 41.98 15.6316 41.9651C17.0782 41.3527 18.7033 40.8687 20.5071 40.5131ZM24.0931 47.8889C26.0691 47.369 27.4421 46.2995 28.5997 44.6967C28.629 44.6557 28.648 44.6082 28.655 44.5582C28.662 44.5083 28.6567 44.4575 28.6398 44.4103C28.6228 44.363 28.5946 44.3207 28.5576 44.2871C28.5206 44.2534 28.4759 44.2294 28.4274 44.2172C26.7996 43.8041 25.2273 43.2366 23.7108 42.5147C23.6937 42.5063 23.6748 42.5025 23.6558 42.5036C23.6368 42.5047 23.6185 42.5107 23.6025 42.521C23.5865 42.5313 23.5735 42.5456 23.5646 42.5624C23.5558 42.5792 23.5514 42.598 23.5519 42.617L23.6515 47.5549C23.6527 47.6082 23.6658 47.6605 23.6901 47.708C23.7143 47.7554 23.7489 47.7968 23.7914 47.8289C23.8339 47.8611 23.8831 47.8832 23.9354 47.8935C23.9876 47.9039 24.0415 47.9024 24.0931 47.8889ZM18.0626 46.7063C18.07 46.7152 18.0792 46.7226 18.0895 46.7279L20.9594 48.1098C20.9724 48.1161 20.9867 48.1191 21.0011 48.1184C21.0155 48.1178 21.0296 48.1135 21.0419 48.106C21.0542 48.0984 21.0645 48.088 21.0717 48.0754C21.0789 48.0629 21.0829 48.0488 21.0832 48.0344L21.2582 42.7086C21.2585 42.6948 21.2554 42.6812 21.2493 42.6689C21.2433 42.6565 21.2343 42.6458 21.2232 42.6376C21.2122 42.6294 21.1993 42.624 21.1857 42.6219C21.1721 42.6197 21.1582 42.6208 21.1451 42.6251L16.162 44.3815C16.1484 44.3862 16.1363 44.3942 16.1266 44.4048C16.1169 44.4153 16.11 44.4282 16.1065 44.4421C16.1031 44.456 16.1031 44.4705 16.1067 44.4844C16.1102 44.4983 16.1172 44.5111 16.127 44.5216L18.0626 46.7063Z" fill="white"/>
<path d="M22.4052 33.5821C23.457 33.5785 24.4728 33.8057 25.4528 34.2636C25.4879 34.2802 25.5188 34.3046 25.5431 34.3349C25.5674 34.3652 25.5844 34.4007 25.593 34.4386C25.6016 34.4765 25.6014 34.5159 25.5925 34.5537C25.5836 34.5915 25.5662 34.6268 25.5416 34.6569C24.4306 35.9895 23.4516 37.4235 22.6045 38.959C22.5668 39.0291 22.5057 39.0641 22.4214 39.0641C22.337 39.0641 22.2751 39.0291 22.2356 38.959C21.3813 37.4289 20.3951 36.0003 19.2769 34.6731C19.2523 34.6432 19.2347 34.608 19.2256 34.5703C19.2166 34.5326 19.2161 34.4934 19.2244 34.4555C19.2327 34.4176 19.2495 34.3821 19.2736 34.3517C19.2976 34.3212 19.3282 34.2966 19.3631 34.2798C20.3395 33.8182 21.3535 33.5857 22.4052 33.5821Z" fill="#999999"/>
<path d="M29.6468 41.9818L24.3379 40.4598C24.3247 40.4561 24.3126 40.4491 24.3027 40.4396C24.2928 40.4301 24.2854 40.4183 24.2811 40.4053C24.2768 40.3922 24.2759 40.3783 24.2783 40.3648C24.2806 40.3513 24.2863 40.3386 24.2948 40.3278L27.695 35.8829C27.7032 35.8716 27.7142 35.8626 27.7268 35.8566C27.7394 35.8507 27.7533 35.848 27.7672 35.8488C27.7811 35.8496 27.7946 35.8539 27.8065 35.8612C27.8183 35.8686 27.8281 35.8788 27.835 35.891L29.4288 38.5148C29.4358 38.5253 29.4404 38.5373 29.4422 38.5498L29.7545 41.8956C29.7555 41.9092 29.7533 41.9228 29.7478 41.9352C29.7424 41.9477 29.734 41.9587 29.7234 41.9672C29.7128 41.9757 29.7003 41.9814 29.6869 41.984C29.6736 41.9865 29.6598 41.9858 29.6468 41.9818Z" fill="#999999"/>
<path d="M20.5073 40.5137C18.7036 40.8693 17.0784 41.3533 15.6318 41.9657C15.5956 41.9806 15.5565 41.987 15.5175 41.9844C15.4785 41.9818 15.4407 41.9702 15.407 41.9506C15.3733 41.9311 15.3448 41.904 15.3235 41.8715C15.3023 41.8391 15.2889 41.8022 15.2845 41.7637C15.0458 39.6948 15.6121 37.8225 16.9833 36.1469C17.0111 36.1133 17.0465 36.0867 17.0865 36.0693C17.1265 36.052 17.17 36.0443 17.2136 36.0469C17.2571 36.0495 17.2994 36.0624 17.3371 36.0844C17.3747 36.1065 17.4066 36.1371 17.4302 36.1739C18.2432 37.4651 19.2968 38.8282 20.5908 40.2632C20.6085 40.2836 20.6206 40.3082 20.626 40.3347C20.6313 40.3612 20.6296 40.3885 20.6212 40.4139C20.6127 40.4393 20.5977 40.462 20.5777 40.4795C20.5577 40.497 20.5334 40.5088 20.5073 40.5137Z" fill="#999999"/>
<path d="M113.354 36.6827C113.351 36.6828 113.349 36.6803 113.346 36.6753C113.343 36.6704 113.341 36.6631 113.338 36.6539C113.336 36.6447 113.334 36.6338 113.333 36.6217C113.331 36.6097 113.33 36.5967 113.33 36.5836C113.33 36.5705 113.33 36.5576 113.331 36.5454C113.331 36.5333 113.333 36.5223 113.334 36.513C113.336 36.5037 113.338 36.4963 113.341 36.4912C113.343 36.4861 113.346 36.4835 113.349 36.4834C113.352 36.4833 113.354 36.4858 113.357 36.4908C113.36 36.4957 113.363 36.503 113.365 36.5122C113.367 36.5214 113.369 36.5323 113.37 36.5444C113.372 36.5564 113.373 36.5694 113.373 36.5825C113.373 36.5955 113.373 36.6085 113.373 36.6206C113.372 36.6328 113.37 36.6438 113.369 36.6531C113.367 36.6624 113.365 36.6698 113.362 36.6749C113.36 36.68 113.357 36.6826 113.354 36.6827Z" fill="#999999"/>
<path d="M113.44 37.4562C113.471 37.361 113.5 37.2945 113.526 37.2568C113.538 37.2391 113.555 37.225 113.574 37.2161C113.594 37.2072 113.615 37.2039 113.636 37.2064C113.657 37.2089 113.677 37.2172 113.694 37.2304C113.711 37.2435 113.724 37.2611 113.731 37.2811C114.479 39.2449 113.96 41.5724 112.864 43.3315C112.844 43.3634 112.817 43.3902 112.784 43.4097C112.752 43.4292 112.715 43.4409 112.678 43.4438C112.64 43.4466 112.602 43.4407 112.567 43.4263C112.532 43.412 112.501 43.3896 112.477 43.3611C111.47 42.1794 110.254 41.0318 108.829 39.9184C108.809 39.9026 108.794 39.8821 108.784 39.8589C108.774 39.8357 108.771 39.8105 108.773 39.7857C108.776 39.7609 108.785 39.7373 108.799 39.7171C108.814 39.697 108.833 39.6809 108.856 39.6705L113.279 37.6393C113.317 37.6214 113.351 37.5959 113.379 37.5644C113.407 37.5329 113.428 37.496 113.44 37.4562Z" fill="#999999"/>
<path d="M105.195 40.476C104.17 41.9953 103.36 43.4797 102.766 44.929C102.752 44.9651 102.729 44.9973 102.7 45.023C102.67 45.0487 102.636 45.0673 102.598 45.0773C102.56 45.0872 102.521 45.0882 102.483 45.0802C102.445 45.0723 102.409 45.0555 102.379 45.0313C100.758 43.7365 99.8444 42.0142 99.638 39.8645C99.6338 39.821 99.6401 39.7772 99.6562 39.7366C99.6724 39.696 99.6979 39.6599 99.7308 39.6312C99.7637 39.6025 99.803 39.582 99.8454 39.5715C99.8878 39.561 99.932 39.5608 99.9745 39.5708C101.455 39.9121 103.157 40.1357 105.079 40.2416C105.105 40.2433 105.131 40.2519 105.153 40.2666C105.175 40.2813 105.193 40.3016 105.204 40.3253C105.216 40.3491 105.221 40.3755 105.22 40.402C105.218 40.4284 105.209 40.4539 105.195 40.476Z" fill="#999999"/>
<path d="M104.825 46.3268L107.111 41.5694C107.118 41.5561 107.128 41.5446 107.14 41.5358C107.152 41.527 107.165 41.5211 107.18 41.5188C107.195 41.5164 107.21 41.5176 107.224 41.5222C107.238 41.5267 107.251 41.5346 107.262 41.5452L111.05 45.3355C111.06 45.3467 111.068 45.3605 111.072 45.3756C111.077 45.3906 111.077 45.4064 111.074 45.4217C111.07 45.4369 111.063 45.451 111.053 45.4628C111.042 45.4745 111.029 45.4835 111.015 45.489L107.994 46.5558C107.983 46.5598 107.971 46.5616 107.959 46.5612L104.909 46.4615C104.893 46.4612 104.878 46.457 104.864 46.4492C104.85 46.4414 104.839 46.4303 104.83 46.4169C104.822 46.4035 104.817 46.3882 104.816 46.3725C104.816 46.3568 104.819 46.341 104.825 46.3268Z" fill="#999999"/>
<path d="M28.5997 44.6967C27.4421 46.2995 26.0691 47.369 24.093 47.8889C24.0415 47.9024 23.9876 47.9039 23.9354 47.8936C23.8831 47.8832 23.8339 47.8611 23.7914 47.8289C23.7489 47.7968 23.7143 47.7554 23.6901 47.708C23.6658 47.6605 23.6527 47.6082 23.6515 47.5549L23.5519 42.617C23.5514 42.598 23.5558 42.5792 23.5646 42.5624C23.5735 42.5456 23.5865 42.5313 23.6025 42.521C23.6185 42.5107 23.6368 42.5047 23.6558 42.5036C23.6748 42.5025 23.6937 42.5063 23.7108 42.5147C25.2273 43.2366 26.7996 43.8041 28.4274 44.2172C28.4759 44.2294 28.5206 44.2534 28.5576 44.2871C28.5946 44.3207 28.6228 44.363 28.6398 44.4103C28.6567 44.4575 28.662 44.5083 28.655 44.5582C28.648 44.6082 28.629 44.6557 28.5997 44.6967Z" fill="#999999"/>
<path d="M18.0625 46.7066L16.1269 44.5219C16.1171 44.5114 16.1102 44.4986 16.1066 44.4847C16.103 44.4708 16.103 44.4563 16.1065 44.4424C16.1099 44.4285 16.1168 44.4156 16.1265 44.4051C16.1362 44.3945 16.1483 44.3865 16.1619 44.3818L21.145 42.6254C21.1581 42.6211 21.172 42.62 21.1856 42.6222C21.1992 42.6244 21.2121 42.6298 21.2231 42.6379C21.2342 42.6461 21.2432 42.6568 21.2493 42.6692C21.2553 42.6815 21.2584 42.6952 21.2581 42.7089L21.0831 48.0347C21.0828 48.0491 21.0788 48.0633 21.0716 48.0758C21.0644 48.0883 21.0541 48.0988 21.0418 48.1063C21.0295 48.1138 21.0155 48.1181 21.001 48.1187C20.9866 48.1194 20.9723 48.1165 20.9593 48.1101L18.0894 46.7282C18.0791 46.7229 18.07 46.7156 18.0625 46.7066Z" fill="#999999"/>
<path d="M127.981 20.5628L129.058 17.4648L130 28.375L129.327 28.9138L127.981 28.375L127.442 25.6811L127.981 20.5628Z" fill="#999999"/>
</svg>
