<svg width="54" height="54" viewBox="0 0 54 54" fill="none" xmlns="http://www.w3.org/2000/svg">
<path fill-rule="evenodd" clip-rule="evenodd" d="M10.5119 21.1612H16.864V18.2525C14.526 17.1444 12.8894 14.7569 12.8894 12.0076V4.68081C12.8894 4.30754 13.1957 4 13.5675 4H25.9257C26.2974 4 26.6037 4.30755 26.6037 4.68081V12.0076C26.6037 14.7567 24.9695 17.1466 22.6292 18.2525V21.1612H30.8026C31.0153 20.133 31.9178 19.3606 32.9956 19.3606H36.5026C37.7254 19.3606 38.7236 20.3607 38.7354 21.5768H40.0914C40.7554 21.5768 41.2861 22.1238 41.2861 22.7905V24.2061C41.2861 24.8611 40.753 25.4058 40.0914 25.4058H38.7354V27.1548H40.0914C40.7554 27.1548 41.2861 27.6877 41.2861 28.3568V29.7701C41.2861 30.4369 40.753 30.9721 40.0914 30.9721H38.7354C38.7237 32.1858 37.7254 33.1883 36.5026 33.1883H32.9956C31.9178 33.1883 31.0154 32.4135 30.8026 31.3994H23.202V35.1908C23.202 35.8975 22.6151 36.4843 21.8974 36.4843H20.2094V43.9313C20.2094 44.3046 19.9054 44.6121 19.5313 44.6121H16.5949C16.3821 45.9198 17.1794 47.0677 19.6249 47.002C25.2477 46.8424 36.0118 40.3298 42.1909 45.347C43.4535 46.3752 43.9327 47.495 44.398 48.9905C44.73 50.0845 43.402 50.3639 43.1214 49.4577C42.7357 48.2181 42.4037 47.2673 41.3399 46.4011C35.8644 41.957 24.8339 48.2017 19.6621 48.3637C16.2743 48.4576 14.9978 46.6288 15.2363 44.6145H13.6675C11.8743 44.6145 11.3693 42.7457 12.045 41.2127C13.0153 39.0106 13.1742 34.4353 12.8703 31.4044H10.5043C9.12253 31.4044 7.97924 30.2705 7.97924 28.8689V26.9603L1.35601 26.9556V28.9558C1.35601 29.8502 0 29.8502 0 28.9558V23.6055C0 22.697 1.35601 22.697 1.35601 23.6055V25.608H7.98642V23.6877C7.98642 22.2955 9.13248 21.1612 10.5119 21.1612ZM12.747 26.9529H27.3665C28.2573 26.9529 28.2573 25.6053 27.3665 25.6053H12.747C11.8562 25.6053 11.8562 26.9529 12.747 26.9529ZM45.6914 29.8076L51.3399 33.0755C52.1115 33.5286 52.7895 32.3548 52.0179 31.9017L46.3694 28.6315C45.5978 28.1807 44.9198 29.3545 45.6914 29.8076ZM46.3694 23.9221L52.0179 20.6541C52.7895 20.201 52.1114 19.0249 51.3399 19.4803L45.6914 22.7506C44.9198 23.1896 45.5979 24.3634 46.3694 23.9221ZM46.8206 26.9529H53.3319C54.2227 26.9529 54.2227 25.5913 53.3319 25.5913H46.8206C45.9322 25.5913 45.9322 26.9529 46.8206 26.9529ZM21.8509 31.397H20.2143V35.1344H21.8486V31.397H21.8509ZM18.8723 43.2456V31.3945H14.2338C14.5518 34.6366 14.353 39.3205 13.2916 41.7497C13.0788 42.2169 12.8941 43.2429 13.6774 43.2429C15.4028 43.2452 17.1328 43.2456 18.8723 43.2456ZM25.2645 8.40159H14.2481V12.0052C14.2481 14.3411 15.7094 16.3554 17.7575 17.156C18.0357 17.2499 18.2227 17.5175 18.2227 17.7969V21.1611H21.2925V17.7969C21.2925 17.5316 21.4655 17.2616 21.718 17.17C23.7777 16.3695 25.267 14.3528 25.267 12.0052L25.2645 8.40159ZM14.2481 7.04231H25.2645V5.35904H14.2481V7.04231ZM38.7408 22.9357V24.0438H39.9495V22.9357H38.7408ZM38.7408 28.4996V29.6077H39.9495V28.4996H38.7408ZM30.7685 22.5084H10.5122C9.87392 22.5084 9.34321 23.0436 9.34321 23.6822V28.8588C9.34321 29.5137 9.87393 30.0326 10.5122 30.0326H30.7685V22.5084ZM33.0013 20.7194H36.5083C36.9992 20.7194 37.385 21.1186 37.385 21.5998V30.9549C37.385 31.4362 36.9992 31.8212 36.5083 31.8212H33.0013C32.5103 31.8212 32.1246 31.4338 32.1246 30.9549V21.5998C32.1246 21.1209 32.508 20.7194 33.0013 20.7194Z" fill="black"/>
</svg>
