<svg width="54" height="54" viewBox="0 0 54 54" fill="none" xmlns="http://www.w3.org/2000/svg">
<path fill-rule="evenodd" clip-rule="evenodd" d="M47.2491 25.0955V8.41508C47.2608 8.01981 46.9429 7.72918 46.5853 7.72918H26.9061C26.6536 7.72918 26.4549 7.72918 26.2539 7.94077C20.4874 13.57 14.5482 19.0319 8.75583 24.6195C8.26497 25.0171 8.54312 25.8215 9.18125 25.8215H46.5854C46.9827 25.8076 47.2491 25.5048 47.2491 25.0955ZM1.35565 35.4307H52.658V34.0961H1.35565V35.4307ZM52.658 36.7793H1.35565V37.5466C1.35565 38.8952 2.45897 39.9904 3.80062 39.9904H4.73094C6.06099 39.5812 7.4681 39.3672 8.93134 39.3672C13.0499 39.3672 16.7714 41.0855 19.4007 43.8362H52.658L52.658 36.7793ZM52.658 32.7475H1.35565V24.3421C7.85357 17.8807 17.7503 8.81222 24.2489 2.35088H50.1968C51.5525 2.35088 52.6558 3.44838 52.6558 4.79464L52.658 32.7475ZM20.5299 45.1851H52.658V46.5197H21.4203C21.1538 46.057 20.8478 45.6083 20.5299 45.1851ZM22.11 47.8683H52.6584V49.2169C52.6584 50.5515 51.555 51.649 50.1993 51.649H23.2132C23.0262 50.3259 22.6429 49.0565 22.11 47.8683ZM47.2495 27.6182V29.3225C47.2495 30.5781 46.214 31.6105 44.9494 31.6105H36.1136C34.8374 31.6105 33.8018 30.5805 33.8018 29.3225V27.6182C33.8018 27.2485 34.108 26.9439 34.4797 26.9439H46.5851C46.9428 26.9462 47.2495 27.2485 47.2495 27.6182ZM35.1579 28.2924V29.3225C35.1579 29.8387 35.5833 30.2759 36.1139 30.2759H44.9497C45.4686 30.2759 45.9058 29.8411 45.9058 29.3225V28.2924H35.1579ZM25.8314 21.1567L35.6114 11.4281C36.2495 10.8072 37.2056 11.7582 36.5675 12.3791L26.7874 22.1077C26.1633 22.7425 25.2073 21.7892 25.8314 21.1567ZM29.8822 21.1567L39.6622 11.4281C40.2863 10.8072 41.2447 11.7582 40.6183 12.3791L30.8382 22.1077C30.2024 22.7425 29.2464 21.7892 29.8822 21.1567ZM10.8552 24.4747C16.2243 19.3198 21.6962 14.2693 27.0254 9.06091H45.9076V24.4747H10.8552ZM24.0897 1.01385H50.1993C52.3006 1.01385 54 2.7066 54 4.79459V49.2192C54 51.2933 52.2983 53 50.1993 53H22.7087C22.323 53 21.9911 52.8023 21.9513 52.3931C21.2735 45.8359 15.7053 40.7234 8.92919 40.7234C7.62721 40.7234 6.36496 40.9094 5.16818 41.2652C4.75678 41.3838 4.23787 41.3303 3.80075 41.3303C1.71572 41.3303 0 39.6375 0 37.5519V24.0822C0 23.8822 0.0654694 23.7241 0.212727 23.5799C6.77646 17.0507 16.9395 7.73162 23.5056 1.20241C23.6926 1.01407 23.9027 0.974328 24.0897 1.01385Z" fill="black"/>
</svg>
