<svg width="32" height="30" viewBox="0 0 32 30" fill="none" xmlns="http://www.w3.org/2000/svg">
<path d="M31.2386 13.2966V14.2338C31.2199 14.3119 31.1949 14.39 31.1824 14.4712C31.0805 15.1541 30.8052 15.7994 30.3827 16.3455C30.3003 16.4347 30.2448 16.5454 30.2227 16.6648C30.2006 16.7842 30.2127 16.9075 30.2577 17.0203C30.4569 17.6198 30.5135 18.2576 30.4229 18.8829C30.3324 19.5082 30.0972 20.1037 29.736 20.6221C29.6732 20.7421 29.6461 20.8776 29.6579 21.0126C29.7065 21.4211 29.7337 21.832 29.7391 22.2434C29.7024 23.1912 29.3292 24.0949 28.6864 24.7925C28.6138 24.8869 28.5723 25.0015 28.5677 25.1205C28.564 25.6006 28.5358 26.0802 28.4833 26.5574C28.3987 27.1142 28.1924 27.6455 27.8793 28.1136C27.5662 28.5817 27.1538 28.9751 26.6715 29.2658C25.9329 29.7046 25.0937 29.9456 24.2349 29.9656C23.4133 30.0062 22.5886 29.9656 21.7639 29.9968C20.3161 30.0261 18.8714 29.8526 17.4717 29.4814C16.1815 29.1409 14.9132 28.7254 13.6356 28.3287C12.6609 28.0163 11.7144 27.6258 10.6898 27.5165C9.80572 27.4196 9.35588 26.848 9.36212 25.9233C9.38712 21.9591 9.36212 17.9918 9.36212 14.0245C9.36212 13.8995 9.36212 13.7746 9.36212 13.6527C9.38038 13.3705 9.49382 13.1029 9.68391 12.8935C9.874 12.6841 10.1295 12.5454 10.4086 12.5C10.7247 12.4626 11.0194 12.3208 11.2458 12.097C11.8706 11.4723 12.4735 10.8475 13.0452 10.1727C13.9823 9.06376 14.9195 7.92355 15.8379 6.79583C16.0493 6.55215 16.2425 6.29321 16.4158 6.02111C16.925 5.16204 17.0781 4.18427 17.2655 3.20962C17.453 2.23498 17.706 1.3353 18.337 0.538713C18.4622 0.357687 18.633 0.212949 18.8322 0.119146C19.0313 0.0253432 19.2517 -0.0141956 19.471 0.00453068C19.9525 0.0240037 20.4314 0.0867336 20.9017 0.191963C21.3735 0.319205 21.8226 0.519471 22.2325 0.785499C22.9118 1.26788 23.3758 1.99647 23.5258 2.81602C23.8902 4.26916 23.8207 5.79725 23.3258 7.2113C23.0634 7.91418 22.7011 8.57644 22.3668 9.26056C22.2606 9.48548 22.1762 9.7229 22.0544 9.99155H22.4199C24.1068 9.99155 25.7937 9.99155 27.4837 9.99155C28.1447 9.98007 28.7961 10.1517 29.3656 10.4875C29.9351 10.8232 30.4007 11.31 30.7107 11.894C30.9292 12.3444 31.106 12.8139 31.2386 13.2966Z" fill="#2F282E"/>
<path d="M0 13.4965C0.100848 13.1501 0.331323 12.8558 0.643518 12.6749C0.831261 12.5754 1.03762 12.5158 1.24955 12.5C3.12387 12.5 4.99819 12.5 6.87252 12.5C7.616 12.5 8.12207 13.0685 8.12207 13.8776C8.12207 15.3334 8.12207 16.786 8.12207 18.251V26.0763C8.12207 26.798 7.77844 27.2884 7.15991 27.4415C7.01284 27.4702 6.86293 27.4817 6.7132 27.4758H1.40574C1.10823 27.513 0.807282 27.4419 0.557816 27.2756C0.30835 27.1093 0.126999 26.8588 0.0468581 26.5699C0.0328814 26.5518 0.0171894 26.5351 0 26.5199L0 13.4965ZM3.7299 24.9955C3.89557 24.998 4.06007 24.9675 4.21384 24.9058C4.36761 24.8441 4.50758 24.7525 4.62561 24.6362C4.74363 24.5199 4.83735 24.3813 4.90132 24.2285C4.96528 24.0757 4.99821 23.9116 4.99819 23.7459C4.98876 23.4175 4.85408 23.1051 4.62176 22.8728C4.38944 22.6405 4.07706 22.5058 3.74865 22.4964C3.41949 22.5036 3.10581 22.6375 2.87301 22.8703C2.64021 23.1031 2.50626 23.4168 2.4991 23.7459C2.49906 24.0741 2.62813 24.3891 2.85843 24.6229C3.08873 24.8567 3.40176 24.9906 3.7299 24.9955Z" fill="#2F282E"/>
</svg>
