<svg width="30" height="30" viewBox="0 0 30 30" fill="none" xmlns="http://www.w3.org/2000/svg">
<path d="M10.4954 9.75732C9.9549 9.75732 9.57698 10.0005 9.39679 10.5C9.08625 11.3701 9.08625 12.2476 9.40119 13.1177C9.57404 13.6011 9.94902 13.8457 10.4808 13.8486C11.0242 13.856 11.3992 13.6084 11.5985 13.1279C11.7742 12.7002 11.8197 12.2549 11.824 11.7964C11.8167 11.3496 11.7713 10.9072 11.6029 10.4839C11.4036 9.99608 11.0477 9.76025 10.4969 9.75586L10.4954 9.75732Z" fill="black"/>
<path d="M19.5745 16.3574C19.0501 16.3618 18.6781 16.6167 18.4832 17.0854C18.303 17.5132 18.2737 17.9629 18.2547 18.417C18.2737 18.8638 18.303 19.3062 18.4803 19.7251C18.6795 20.2056 19.0281 20.4487 19.5643 20.4531C20.1121 20.4575 20.4944 20.2173 20.6746 19.7324C20.9969 18.855 20.9939 17.9702 20.679 17.0928C20.5032 16.602 20.1165 16.3574 19.576 16.3574H19.5745Z" fill="black"/>
<path d="M15 0C6.72787 0 0 6.72787 0 15C0 23.2721 6.72787 30 15 30C23.2691 30 30 23.2721 30 15C30 6.72787 23.2691 0 15 0ZM8.3145 14.1754C7.8648 13.6773 7.66556 13.065 7.5528 12.4161C7.51178 12.1803 7.50007 11.943 7.50007 11.7071C7.50007 10.9527 7.64216 10.2291 8.04352 9.58455C8.60163 8.68808 9.46443 8.33944 10.481 8.33944C11.8682 8.33944 12.8922 9.12754 13.2554 10.4737C13.503 11.3922 13.4913 12.3106 13.1661 13.2115C12.7237 14.4259 11.688 15.0982 10.3917 15.0572C9.58159 15.0309 8.86969 14.7877 8.3145 14.1754ZM12.447 21.4541C12.365 21.6035 12.2785 21.6607 12.1101 21.6563C11.6677 21.6446 11.2282 21.6519 10.7903 21.6519C10.5691 21.6519 10.5691 21.6475 10.6746 21.4527C11.8186 19.3301 12.9656 17.2047 14.1096 15.0822C15.2757 12.9215 16.4461 10.7622 17.6047 8.59878C17.6912 8.43765 17.7849 8.38199 17.9607 8.39224C18.1672 8.40689 18.3767 8.39664 18.5877 8.39664H19.282C19.5076 8.39664 19.5076 8.40103 19.3948 8.60611C18.7195 9.85122 18.0442 11.0963 17.3733 12.3414C15.7312 15.3795 14.0877 18.4161 12.45 21.4543L12.447 21.4541ZM22.1779 19.9878C21.7282 20.9809 20.9635 21.5596 19.8722 21.646C18.7545 21.7354 17.7951 21.4292 17.1462 20.4492C16.8356 19.9805 16.6847 19.4473 16.6173 18.8965C16.5089 18.0264 16.6129 17.1826 17.0143 16.3916C17.4611 15.5142 18.2067 15.0674 19.1632 14.9663C19.8342 14.8989 20.4904 14.9736 21.0793 15.3369C21.8703 15.8277 22.2644 16.5703 22.4299 17.4595C22.4826 17.7364 22.4855 18.0147 22.5017 18.2549C22.4943 18.8775 22.4226 19.4517 22.1794 19.9878L22.1779 19.9878Z" fill="black"/>
</svg>
