<svg width="30" height="30" viewBox="0 0 30 30" fill="none" xmlns="http://www.w3.org/2000/svg">
<path d="M15.0026 29.9922H16.4139L16.5031 27.697C16.512 27.4538 16.698 27.2576 16.9336 27.2309C17.3591 27.1633 17.7858 27.0729 18.21 26.9596C18.6431 26.8437 19.0621 26.7061 19.4672 26.5507C19.6888 26.4654 19.9334 26.552 20.0557 26.7456L21.2823 28.6918L23.7267 27.2806L22.6529 25.2414C22.5408 25.0274 22.602 24.7702 22.7867 24.6275C23.1204 24.3575 23.4465 24.0645 23.7611 23.7499C24.0783 23.4328 24.3738 23.1055 24.6451 22.768C24.7941 22.5833 25.0502 22.5349 25.2527 22.6419L27.2908 23.7156L28.7021 21.2714L26.7557 20.0461C26.5507 19.9162 26.4742 19.6589 26.5672 19.4424C26.7214 19.0424 26.8564 18.6272 26.971 18.1993C27.0857 17.7701 27.1774 17.337 27.2449 16.9065C27.2805 16.6722 27.4793 16.5028 27.7085 16.4939L30.0039 16.4047V13.5823L27.7085 13.4931C27.4653 13.4842 27.2691 13.297 27.2423 13.0626C27.1761 12.6372 27.0844 12.2105 26.971 11.7864C26.8551 11.3533 26.7175 10.9343 26.5621 10.5293C26.4768 10.3076 26.5634 10.0631 26.757 9.94082L28.7034 8.71428L27.292 6.2701L25.2527 7.34382C25.04 7.4559 24.7814 7.39477 24.6388 7.21008C24.3687 6.87639 24.0745 6.55033 23.7599 6.23445C23.4427 5.9173 23.1153 5.62308 22.7791 5.35053C22.5944 5.20151 22.546 4.9455 22.653 4.74298L23.7268 2.70511L21.2824 1.29389L20.057 3.24008C19.9271 3.44514 19.6698 3.52156 19.4532 3.42858C19.0532 3.27446 18.638 3.13945 18.21 3.02482C17.7807 2.91019 17.3489 2.81848 16.9171 2.75098C16.6828 2.71532 16.5133 2.51662 16.5044 2.28736L16.4153 -0.0078125H15.0039C10.8616 -0.0078125 7.11164 1.67087 4.39728 4.38519C1.68287 7.09811 0.00390625 10.849 0.00390625 14.9909C0.00390625 19.1329 1.68274 22.8826 4.39728 25.5967C7.11043 28.3109 10.8616 29.9897 15.0039 29.9897L15.0026 29.9922ZM13.0384 1.76258C13.3059 1.7231 13.5543 1.90778 13.5925 2.17524C13.632 2.44271 13.4473 2.69107 13.1798 2.72928C10.1673 3.17253 7.50657 4.70093 5.60711 6.90187C3.73592 9.07219 2.60354 11.8997 2.60354 14.9934C2.60354 18.087 3.73595 20.9146 5.60711 23.0849C7.50503 25.2858 10.1671 26.8143 13.1798 27.2575C13.4473 27.2969 13.6308 27.5453 13.5925 27.8115C13.553 28.079 13.3047 28.2624 13.0384 28.2242C9.78905 27.7452 6.91909 26.0984 4.87093 23.7229C2.84945 21.3794 1.62662 18.3276 1.62662 14.9933C1.62662 11.659 2.84945 8.6071 4.87093 6.2637C6.91915 3.88829 9.78898 2.24026 13.0384 1.76258ZM8.38159 18.2172L12.7365 15.7272C12.6613 15.4966 12.6206 15.2496 12.6206 14.9935C12.6206 14.3363 12.8881 13.7415 13.3186 13.3097C13.6396 12.9888 14.0523 12.7582 14.5134 12.6614V4.38244C14.5134 4.11242 14.7325 3.89335 15.0025 3.89335C15.2726 3.89335 15.4917 4.11242 15.4917 4.38244V7.19979C17.4507 7.32079 19.2149 8.16649 20.5219 9.47204C21.9358 10.8871 22.8109 12.8383 22.8109 14.9922C22.8109 17.1447 21.9371 19.096 20.5232 20.5111C19.108 21.9249 17.1566 22.7999 15.0025 22.7999C13.5797 22.7999 12.2435 22.4178 11.0921 21.7491C10.0425 21.1403 9.14702 20.2933 8.48083 19.2845L6.94975 20.1596C6.71537 20.2933 6.41731 20.2118 6.28355 19.9787C6.1498 19.7443 6.23132 19.4463 6.46443 19.3126L8.38146 18.2159L8.38159 18.2172ZM9.33057 18.8005C9.91012 19.6615 10.6808 20.385 11.5813 20.9072C12.5851 21.4893 13.7544 21.823 15.0026 21.823C16.8891 21.823 18.5971 21.0587 19.8317 19.8246C21.0685 18.5891 21.8315 16.8811 21.8315 14.9937C21.8315 13.1073 21.0672 11.3995 19.8329 10.165C18.7044 9.03658 17.1835 8.30168 15.4908 8.18195V12.6614C15.9519 12.7582 16.3633 12.9874 16.6843 13.3084C17.1174 13.7414 17.3836 14.3362 17.3836 14.9935C17.3836 15.6507 17.1161 16.2455 16.6856 16.676C16.2525 17.109 15.6576 17.3752 15.0003 17.3752C14.3431 17.3752 13.7482 17.1078 13.3177 16.6773C13.2846 16.6442 13.2514 16.6085 13.2209 16.5741L9.32934 18.7992L9.33057 18.8005ZM15.0029 13.5901C14.6144 13.5901 14.2628 13.7468 14.0093 14.0002C13.7558 14.2537 13.5992 14.6052 13.5992 14.9937C13.5992 15.3822 13.7558 15.7337 14.0093 15.9872C14.2628 16.2406 14.6144 16.3973 15.0029 16.3973C15.3914 16.3973 15.7429 16.2406 15.9964 15.9872C16.2499 15.7337 16.4066 15.3822 16.4066 14.9937C16.4066 14.6052 16.2499 14.2537 15.9964 14.0002C15.7429 13.7467 15.3914 13.5901 15.0029 13.5901Z" fill="black"/>
</svg>
