<svg width="54" height="54" viewBox="0 0 54 54" fill="none" xmlns="http://www.w3.org/2000/svg">
<path fill-rule="evenodd" clip-rule="evenodd" d="M29.0377 19.4298V3.5283C29.0377 3.24709 28.8095 3.01887 28.5283 3.01887C28.2471 3.01887 28.0189 3.24709 28.0189 3.5283V14.2264H25.1589C22.9449 14.2264 20.8399 15.1862 19.388 16.8581C17.5806 18.9397 15.0782 21.8221 13.7588 23.3422C13.3788 23.7793 12.8989 24.1156 12.365 24.3254L7.18608 18.7482C6.31902 17.8139 5.10147 17.283 3.82687 17.283H3.0566C2.7754 17.283 2.54717 17.5112 2.54717 17.7925C2.54717 18.0737 2.7754 18.3019 3.0566 18.3019H3.82687C4.81823 18.3019 5.76475 18.7145 6.43925 19.441L7.6517 20.7472L6.69804 25.5674L5.32766 25.8568C3.46008 26.2491 2.03876 27.7549 1.74328 29.6256L1.73819 29.6592L1.73106 29.7071L1.72494 29.755L1.72087 29.7886L1.71679 29.8253L1.71476 29.8365L1.29702 33.6022C0.562416 33.7143 0 34.348 0 35.1132V35.1142C0 35.9579 0.683661 36.6415 1.52728 36.6415H7.23396C7.70672 38.9655 9.76381 40.717 12.2264 40.717C14.689 40.717 16.7461 38.9655 17.2189 36.6415H28.0189V51.4151C28.0189 51.6963 28.2471 51.9245 28.5283 51.9245C28.8095 51.9245 29.0377 51.6963 29.0377 51.4151V33.7449L39.8469 44.554C39.7736 44.9616 39.7359 45.3824 39.7359 45.8113C39.7359 49.7472 42.932 52.9434 46.8679 52.9434C50.8038 52.9434 54 49.7472 54 45.8113C54 41.8754 50.8038 38.6792 46.8679 38.6792C46.439 38.6792 46.0182 38.7169 45.6096 38.7903C45.6096 38.7903 35.4617 28.6414 33.4077 26.5873L42.8821 17.1129C43.2173 17.1607 43.5597 17.1862 43.9081 17.1862C47.8104 17.1862 51.9623 14.1215 51.9623 9.13208C51.9623 8.17026 51.7717 7.25226 51.4253 6.41577C51.3611 6.25785 51.2215 6.14373 51.0545 6.11011C50.8874 6.07649 50.7152 6.12948 50.5949 6.2497L47.0615 9.78314L44.7558 9.20645L44.1791 6.90075L47.7126 3.36732C47.8328 3.24709 47.8858 3.07491 47.8522 2.90782C47.8185 2.74072 47.7044 2.60112 47.5465 2.53694C46.71 2.19052 45.792 2 44.8302 2C39.8408 2 36.776 6.15189 36.776 10.0541C36.776 10.5626 36.83 11.0577 36.9309 11.5366L29.0377 19.4298ZM32.6873 27.3077L29.0377 30.9573V32.3042L40.7598 44.0252C40.8821 44.1485 40.934 44.3258 40.8974 44.4949C40.8036 44.9188 40.7547 45.36 40.7547 45.8113C40.7547 49.1848 43.4945 51.9245 46.8679 51.9245C50.2414 51.9245 52.9811 49.1848 52.9811 45.8113C52.9811 42.4379 50.2414 39.6981 46.8679 39.6981C46.4166 39.6981 45.9754 39.747 45.5515 39.8408C45.3824 39.8774 45.2051 39.8255 45.0819 39.7032L32.6873 27.3077ZM46.8679 42.7547C45.1807 42.7547 43.8113 44.1241 43.8113 45.8113C43.8113 47.4986 45.1807 48.8679 46.8679 48.8679C48.5552 48.8679 49.9245 47.4986 49.9245 45.8113C49.9245 44.1241 48.5552 42.7547 46.8679 42.7547ZM46.8679 43.7736C47.9928 43.7736 48.9057 44.6865 48.9057 45.8113C48.9057 46.9362 47.9928 47.8491 46.8679 47.8491C45.7431 47.8491 44.8302 46.9362 44.8302 45.8113C44.8302 44.6865 45.7431 43.7736 46.8679 43.7736ZM12.2264 31.5472C14.4761 31.5472 16.3019 33.373 16.3019 35.6226C16.3019 37.8723 14.4761 39.6981 12.2264 39.6981C9.97676 39.6981 8.15094 37.8723 8.15094 35.6226C8.15094 33.373 9.97676 31.5472 12.2264 31.5472ZM28.0189 15.2453H25.1589C23.2394 15.2453 21.4156 16.0777 20.1573 17.5255C18.3498 19.6081 15.8475 22.4905 14.528 24.0096C13.9799 24.6413 13.2728 25.1079 12.4842 25.3637C12.4118 25.4065 12.3314 25.4299 12.2499 25.4329C12.1714 25.4543 12.0909 25.4737 12.0104 25.491L5.53755 26.8533C4.54924 27.0611 3.72193 27.6704 3.22166 28.4957C3.83706 28.5354 4.41883 28.7983 4.85796 29.2364C5.33581 29.7142 5.60377 30.3622 5.60377 31.0377V32.0566C5.60377 32.9002 4.91909 33.5849 4.07547 33.5849H2.32404L2.26087 34.1504C2.23234 34.4081 2.0143 34.6038 1.75449 34.6038H1.5283C1.24709 34.6038 1.01887 34.832 1.01887 35.1132V35.1142C1.01887 35.3954 1.24608 35.6226 1.52728 35.6226H7.13208C7.13208 32.8106 9.41434 30.5283 12.2264 30.5283C15.0385 30.5283 17.3208 32.8106 17.3208 35.6226H22.4008H28.0189V24.9245H18.038C17.4379 24.9245 16.8939 24.574 16.6463 24.0279C16.3987 23.4818 16.4924 22.8409 16.8877 22.3896C17.9983 21.1201 19.5266 19.3737 20.7146 18.0166C21.9719 16.579 23.7885 15.7547 25.6989 15.7547H28.0189V15.2453ZM2.80494 29.5094H3.0566C3.46211 29.5094 3.8503 29.6704 4.13762 29.9567C4.42393 30.244 4.58491 30.6322 4.58491 31.0377V32.0566C4.58491 32.3378 4.35668 32.566 4.07547 32.566H2.43713L2.72751 29.9486L2.80494 29.5094ZM42.3472 16.2071L29.0377 29.5166V20.8704L37.852 12.0572C37.9793 11.9299 38.0292 11.7445 37.9854 11.5702C37.8611 11.0853 37.7949 10.5768 37.7949 10.0541C37.7949 6.64604 40.4715 3.01887 44.8302 3.01887C45.3783 3.01887 45.9092 3.0912 46.4135 3.22671L43.255 6.38418C43.1287 6.51052 43.0777 6.69494 43.1216 6.86815L43.8419 9.75052C43.8867 9.9329 44.0294 10.0755 44.2117 10.1204L47.0941 10.8407C47.2673 10.8845 47.4517 10.8336 47.5781 10.7073L50.7366 7.54875C50.8711 8.05309 50.9434 8.58392 50.9434 9.13208C50.9434 13.4908 47.3162 16.1674 43.9081 16.1674C43.5291 16.1674 43.1582 16.1327 42.7986 16.0665C42.6345 16.0359 42.4654 16.0889 42.3472 16.2071ZM7.78109 25.3392L11.2402 24.6117L8.50755 21.6692L7.78109 25.3392ZM28.0189 16.7736V23.9057H18.038C17.8383 23.9057 17.657 23.7885 17.5734 23.6071C17.4909 23.4248 17.5225 23.2108 17.6539 23.061L21.4808 18.687C22.5455 17.4715 24.083 16.7736 25.6989 16.7736H28.0189Z" fill="black"/>
</svg>
