<svg width="120" height="43" viewBox="0 0 120 43" fill="none" xmlns="http://www.w3.org/2000/svg">
<path d="M20.9471 24.5894C18.5456 24.5894 16.2423 25.5434 14.5442 27.2416C12.846 28.9397 11.892 31.243 11.892 33.6445C11.892 34.0301 11.9235 34.4096 11.972 34.7819C12.5334 39.2452 16.3323 42.6973 20.9459 42.6973C23.2129 42.6964 25.3971 41.8452 27.0668 40.3118C28.7364 38.7784 29.7701 36.6744 29.9635 34.4157C29.9841 34.1623 30.0011 33.904 30.0011 33.6433C30.0013 32.4543 29.7672 31.2769 29.3122 30.1783C28.8573 29.0798 28.1904 28.0816 27.3496 27.2408C26.5089 26.4001 25.5107 25.7332 24.4121 25.2782C23.3136 24.8233 22.1362 24.5892 20.9471 24.5894ZM16.4147 30.2325L18.2602 32.0792C18.1145 32.3279 18.0039 32.5956 17.9316 32.8746H15.3295C15.4629 31.89 15.84 30.9903 16.4147 30.2325ZM15.3174 34.4424H17.9401C18.014 34.7213 18.1232 34.9856 18.2687 35.2281L16.4183 37.0772C15.8324 36.3074 15.4533 35.4003 15.3174 34.4424ZM20.1638 39.2695C19.2097 39.1364 18.3055 38.7611 17.5375 38.1794L19.3781 36.3376C19.6206 36.4794 19.8862 36.5837 20.1638 36.6565V39.2695ZM20.1638 30.6326C19.883 30.7063 19.6137 30.8185 19.3636 30.9661L17.5193 29.1218C18.2918 28.5354 19.2028 28.1586 20.1638 28.0281V30.6326ZM21.7317 28.0257C22.6927 28.157 23.6036 28.5341 24.3762 29.1206L22.5331 30.9648C22.283 30.8173 22.0137 30.7051 21.7329 30.6314L21.7317 28.0257ZM21.7317 39.267V36.6577C22.0066 36.5875 22.2706 36.4798 22.5162 36.3376L24.358 38.1794C23.5897 38.7601 22.6856 39.1345 21.7317 39.267ZM25.4808 37.0857L23.6244 35.2269C23.7699 34.9832 23.8875 34.7225 23.9615 34.4436H26.5636C26.4349 35.4025 26.062 36.3122 25.4808 37.0857ZM23.9651 32.8746C23.8923 32.5957 23.7817 32.3281 23.6365 32.0792L25.4844 30.2325C26.0555 30.9903 26.4326 31.89 26.5684 32.8758H23.9651V32.8746ZM96.1349 24.5894C94.9458 24.5894 93.7683 24.8236 92.6697 25.2786C91.5711 25.7337 90.5728 26.4007 89.732 27.2416C88.8911 28.0824 88.2241 29.0806 87.7691 30.1793C87.314 31.2779 87.0798 32.4554 87.0798 33.6445C87.0798 34.0301 87.1113 34.4096 87.1598 34.7819C87.7212 39.2452 91.5201 42.6973 96.1325 42.6973C100.871 42.6973 104.756 39.0548 105.151 34.4157C105.172 34.1623 105.189 33.904 105.189 33.6433C105.189 32.4542 104.955 31.2768 104.5 30.1781C104.045 29.0795 103.379 28.0813 102.538 27.2405C101.697 26.3997 100.699 25.7328 99.6001 25.2779C98.5015 24.823 97.324 24.589 96.1349 24.5894ZM91.6025 30.2325L93.4468 32.0792C93.3011 32.3279 93.1905 32.5956 93.1182 32.8746H90.5161C90.644 31.9148 91.0183 31.0046 91.6025 30.2325ZM90.5064 34.4424H93.1291C93.203 34.7213 93.3122 34.9856 93.4577 35.2281L91.6086 37.0772C91.0203 36.3086 90.6407 35.4009 90.5064 34.4424ZM95.3517 39.2695C94.3975 39.1364 93.4933 38.7611 92.7253 38.1794L94.5659 36.3376C94.8084 36.4794 95.074 36.5837 95.3517 36.6565V39.2695ZM95.3517 30.6326C95.0708 30.7063 94.8015 30.8185 94.5514 30.9661L92.7071 29.1218C93.4795 28.5352 94.3906 28.1584 95.3517 28.0281V30.6326ZM96.9207 28.0257C97.8817 28.157 98.7926 28.5341 99.5652 29.1206L97.7209 30.9648C97.4714 30.8163 97.2019 30.704 96.9207 30.6314V28.0257ZM96.9207 39.267V36.6577C97.1956 36.5875 97.4596 36.4798 97.7052 36.3376L99.547 38.1794C98.7786 38.7599 97.8745 39.1343 96.9207 39.267ZM100.669 37.0857L98.8122 35.2293C98.9577 34.9844 99.0765 34.7249 99.1493 34.4448H101.751C101.623 35.4034 101.25 36.3128 100.669 37.0857ZM99.1529 32.8746C99.0806 32.5956 98.97 32.3279 98.8243 32.0792L100.671 30.2325C101.243 30.9903 101.619 31.89 101.756 32.8758H99.1529V32.8746Z" fill="#FDCE2A"/>
<path d="M117.878 19.902V13.2016C117.878 12.1236 117.095 11.2106 116.03 11.0445C113.475 10.6443 108.947 9.88892 106.912 9.26204C103.995 8.36234 92.7229 3.58982 88.8198 2.69376C84.9154 1.7977 67.3119 -2.98694 50.4517 2.85746C47.5986 3.84567 34.764 9.98107 27.2172 13.1712C24.9946 13.2197 2.99566 17.8055 1.82435 20.9484C0.653046 24.0925 0.28565 25.6179 0.0698191 26.4157C-0.146011 27.2136 0.0698191 31.0318 1.70431 33.6909C3.37033 34.633 6.57747 35.266 10.2854 35.6904C10.243 35.4636 10.1969 35.2405 10.1678 35.0113C10.1064 34.5592 10.0748 34.1035 10.0732 33.6472C10.0732 27.6513 14.95 22.7721 20.9472 22.7721C26.9443 22.7721 31.8211 27.6501 31.8211 33.6472C31.8211 33.9552 31.8005 34.2608 31.7775 34.5615C31.7211 35.2231 31.6025 35.8779 31.4234 36.5173H31.4525L85.4295 35.4309C85.4053 35.2914 85.3738 35.1532 85.3556 35.0113C85.2941 34.5592 85.2625 34.1035 85.261 33.6472C85.261 27.6513 90.1378 22.7733 96.135 22.7733C102.132 22.7733 107.01 27.6501 107.01 33.6472C107.01 33.6703 107.008 33.6897 107.007 33.7115L107.237 33.6921L116.465 31.9545C116.465 31.9545 120 30.0727 120 24.8952C120.001 21.4419 117.878 19.902 117.878 19.902ZM64.3339 13.5495L44.1756 14.1667C44.5466 11.1463 42.7582 10.4685 42.7582 10.4685C50.7718 3.19454 66.9227 2.94839 66.9227 2.94839L64.3339 13.5495ZM86.9573 12.6268L68.5875 13.244L70.2523 2.9496C79.7464 2.82593 85.1701 4.92118 85.1701 4.92118L87.8825 9.29841L86.9573 12.6268ZM97.3135 12.5638H92.1955L87.0786 5.53715C90.0564 6.7203 92.9737 8.05046 95.8197 9.52273C96.3609 9.80361 96.7978 10.2504 97.0667 10.7976C97.3355 11.3449 97.422 11.9638 97.3135 12.5638Z" fill="#FDCE2A"/>
</svg>
