<svg width="54" height="54" viewBox="0 0 54 54" fill="none" xmlns="http://www.w3.org/2000/svg">
<path fill-rule="evenodd" clip-rule="evenodd" d="M39.3727 26.6274C38.938 26.6274 38.5 26.5865 38.0641 26.5025C37.7286 26.4389 37.5081 26.114 37.5725 25.7772C37.6372 25.4412 37.9611 25.2207 38.296 25.2853C40.1577 25.6426 42.0679 25.0539 43.4065 23.7107C45.6329 21.4794 45.6328 17.8482 43.4065 15.616C42.328 14.5342 40.8947 13.9391 39.3694 13.9391C37.844 13.9391 36.41 14.5343 35.3323 15.6149C33.9918 16.9591 33.4045 18.8749 33.7619 20.7401C33.8266 21.0758 33.6074 21.401 33.2714 21.4656C32.9369 21.5301 32.6123 21.3106 32.5479 20.9737C32.1132 18.7048 32.8269 16.3737 34.4575 14.7377C35.7693 13.4235 37.5135 12.6992 39.3683 12.6992C41.2231 12.6992 42.9685 13.4236 44.2813 14.7399C46.9897 17.4542 46.9895 21.8724 44.2813 24.5879C42.9656 25.9062 41.1974 26.6274 39.3727 26.6274Z" fill="black"/>
<path fill-rule="evenodd" clip-rule="evenodd" d="M39.329 34.3918C36.7902 34.3918 34.2355 33.7311 31.932 32.3771C31.6382 32.2026 31.5391 31.8239 31.7119 31.5279C31.885 31.2329 32.2626 31.134 32.5579 31.3073C37.8186 34.4015 44.5102 33.5374 48.8306 29.2064C51.3672 26.6653 52.7636 23.2857 52.7636 19.691C52.7637 16.0951 51.3672 12.7145 48.8306 10.1724C43.5971 4.92869 35.0813 4.92872 29.8474 10.1724C25.5316 14.5012 24.6692 21.2129 27.7521 26.4932C27.9251 26.788 27.8261 27.168 27.5309 27.3413C27.2372 27.5145 26.858 27.4144 26.6851 27.1195C23.3179 21.3527 24.2592 14.0234 28.9725 9.29521C34.6884 3.56823 43.9895 3.5683 49.7044 9.29521C52.4753 12.0719 54.0002 15.7637 54.0002 19.691C54.0002 23.6173 52.4749 27.3079 49.7044 30.0826C46.8784 32.9175 43.1223 34.3919 39.329 34.3918Z" fill="black"/>
<path fill-rule="evenodd" clip-rule="evenodd" d="M36.8136 19.2809C36.0301 19.2809 35.2926 19.5877 34.7386 20.1431L17.9723 36.9546C17.4173 37.5098 17.1122 38.2482 17.1122 39.034C17.1126 39.8196 17.417 40.5591 17.972 41.1144C18.5259 41.6697 19.2622 41.9765 20.0458 41.9765C20.8295 41.9765 21.5668 41.6708 22.1207 41.1144L38.8878 24.304C39.4428 23.7474 39.7472 23.0091 39.7472 22.2235C39.7475 21.4377 39.4423 20.6995 38.8874 20.1431C38.3337 19.5866 37.5971 19.2809 36.8136 19.2809ZM20.046 43.2163C18.9316 43.2163 17.885 42.7816 17.0971 41.9916C16.3092 41.2015 15.8756 40.1512 15.8756 39.034C15.876 37.9167 16.3092 36.8674 17.0971 36.0774L33.8642 19.2658C34.652 18.4758 35.6993 18.041 36.8135 18.041C37.9279 18.0409 38.9743 18.4758 39.7622 19.2669C40.5503 20.0569 40.9837 21.1063 40.9837 22.2235C40.9841 23.3406 40.55 24.3911 39.7611 25.18L22.9959 41.9916C22.2081 42.7815 21.16 43.2164 20.046 43.2163Z" fill="black"/>
<path fill-rule="evenodd" clip-rule="evenodd" d="M16.9966 45.1894C16.6358 45.1894 16.276 45.0517 16.0012 44.7772L14.3192 43.0906C14.0544 42.8238 13.907 42.4697 13.907 42.093C13.9071 41.7173 14.054 41.3633 14.3192 41.0964L16.1247 39.2871C16.3662 39.0449 16.7569 39.0449 16.9984 39.2871C17.2401 39.5292 17.24 39.921 16.9984 40.1632L15.1944 41.9735C15.1524 42.0143 15.1436 42.0618 15.1436 42.093C15.1437 42.1252 15.1521 42.1726 15.194 42.2135L16.8764 43.9C16.943 43.9668 17.0499 43.9668 17.1154 43.9L18.921 42.0907C19.1626 41.8486 19.5542 41.8487 19.7957 42.0908C20.0364 42.3329 20.0361 42.7248 19.7957 42.9669L17.9907 44.7772C17.7168 45.0516 17.3559 45.1894 16.9966 45.1894Z" fill="black"/>
<path fill-rule="evenodd" clip-rule="evenodd" d="M31.0515 40.4672C30.894 40.4672 30.7359 40.407 30.6146 40.2853L27.2185 36.8799C26.977 36.6377 26.9768 36.246 27.2183 36.0039C27.4601 35.7617 27.8505 35.7617 28.092 36.0039L31.4895 39.4092C31.7311 39.6513 31.731 40.0432 31.4894 40.2853C31.3683 40.4069 31.2103 40.4672 31.0515 40.4672Z" fill="black"/>
<path fill-rule="evenodd" clip-rule="evenodd" d="M28.9683 42.557C28.8104 42.557 28.6515 42.4968 28.5313 42.3752L25.1364 38.9699C24.8949 38.7277 24.8946 38.3359 25.1361 38.0938C25.378 37.8515 25.7694 37.8516 26.011 38.0938L29.4064 41.4991C29.6479 41.7413 29.6476 42.1341 29.4061 42.3752C29.2852 42.4968 29.1271 42.5571 28.9683 42.557Z" fill="black"/>
<path fill-rule="evenodd" clip-rule="evenodd" d="M29.0382 42.7437L34.0593 47.7785C34.4361 48.1563 34.9361 48.3641 35.4684 48.3641C36.0011 48.3641 36.5012 48.1563 36.878 47.7786C37.654 47.0004 37.654 45.7326 36.878 44.9534L31.8557 39.9185L29.0382 42.7437ZM35.4688 49.6028C34.6423 49.6028 33.8144 49.2875 33.1854 48.6557L27.9861 43.4433C27.6016 43.0569 27.6015 42.4295 27.9858 42.0442L31.1577 38.8637C31.3447 38.6775 31.5925 38.5742 31.8554 38.5742C32.1199 38.5742 32.3664 38.6775 32.5532 38.8637L37.7521 44.0771C39.0109 45.3397 39.0108 47.3933 37.7517 48.6557C37.1227 49.2865 36.2951 49.6029 35.4688 49.6028Z" fill="black"/>
<path fill-rule="evenodd" clip-rule="evenodd" d="M39.3087 30.8435C37.7084 30.8435 36.0967 30.4981 34.5908 29.7867C34.2827 29.6413 34.1496 29.2722 34.2955 28.9622C34.4407 28.6522 34.8098 28.5188 35.1177 28.6651C38.8739 30.4388 43.3702 29.6521 46.308 26.7063C50.1586 22.8456 50.1584 16.5635 46.308 12.7028C42.4581 8.84215 36.1923 8.84219 32.342 12.7028C29.4031 15.6496 28.6184 20.1593 30.3894 23.9252C30.5344 24.234 30.4024 24.6043 30.0932 24.7496C29.7852 24.896 29.417 24.7636 29.2709 24.4536C27.2778 20.2163 28.1611 15.1427 31.4672 11.8267C35.801 7.48166 42.8495 7.48284 47.1819 11.8267C51.5146 16.1705 51.5142 23.2385 47.1819 27.5824C45.0545 29.7156 42.199 30.8435 39.3087 30.8435Z" fill="black"/>
<path fill-rule="evenodd" clip-rule="evenodd" d="M26.3932 34.0231H24.9353C24.5944 34.0231 24.3171 33.7455 24.3171 33.4032C24.3171 33.061 24.594 32.7833 24.9352 32.7833L26.3932 32.7832C26.7347 32.7832 27.0113 33.061 27.0113 33.4032C27.0115 33.7454 26.7343 34.0232 26.3932 34.0231Z" fill="black"/>
<path fill-rule="evenodd" clip-rule="evenodd" d="M29.1584 31.2496H27.7006C27.359 31.2496 27.0819 30.972 27.0819 30.6297C27.0823 30.2863 27.3589 30.0098 27.7002 30.0098H29.1584C29.5004 30.0098 29.7762 30.2864 29.7762 30.6297C29.7762 30.9719 29.5004 31.2497 29.1584 31.2496Z" fill="black"/>
<path fill-rule="evenodd" clip-rule="evenodd" d="M31.9235 28.4762H30.4667C30.1257 28.4762 29.8484 28.1986 29.8484 27.8563C29.8484 27.514 30.1253 27.2364 30.4667 27.2364L31.9235 27.2363C32.265 27.2363 32.5415 27.514 32.5415 27.8563C32.5418 28.1986 32.2647 28.4763 31.9235 28.4762Z" fill="black"/>
<path fill-rule="evenodd" clip-rule="evenodd" d="M0.618458 49.6436C0.276944 49.6436 0 49.366 0 49.0237C0.00017348 48.6814 0.276944 48.4038 0.618215 48.4038C5.95215 48.4038 11.1129 46.4783 15.1501 42.9836C15.409 42.7586 15.7995 42.7877 16.0217 43.0471C16.2451 43.3065 16.2171 43.6982 15.9583 43.9211C11.6973 47.6116 6.2494 49.6436 0.618458 49.6436Z" fill="black"/>
<path fill-rule="evenodd" clip-rule="evenodd" d="M30.4367 45.6412C30.2778 45.6412 30.1199 45.581 29.9986 45.4594C29.757 45.2172 29.757 44.8255 29.9986 44.5833L33.6913 40.8808C33.9328 40.6386 34.3233 40.6387 34.5649 40.8809C34.8067 41.1229 34.8063 41.5159 34.5649 41.758L30.8738 45.4594C30.7521 45.5809 30.5943 45.6413 30.4367 45.6412Z" fill="black"/>
</svg>
