<svg width="109" height="43" viewBox="0 0 109 43" fill="none" xmlns="http://www.w3.org/2000/svg">
<path d="M17.3246 25.6855C16.2005 25.6854 15.0873 25.9067 14.0487 26.3368C13.01 26.7669 12.0663 27.3974 11.2714 28.1922C10.4764 28.9871 9.84581 29.9307 9.41558 30.9693C8.98535 32.0079 8.76392 33.121 8.76392 34.2452C8.76392 34.6115 8.79353 34.9691 8.8396 35.3223C9.36936 39.5418 12.9626 42.8071 17.3246 42.8071C21.8074 42.8071 25.4785 39.3608 25.8503 34.9746C25.87 34.7322 25.8876 34.492 25.8876 34.243C25.8887 29.5168 22.0553 25.6855 17.3246 25.6855ZM13.0372 31.0194L14.7844 32.7667C14.646 33.002 14.5415 33.2557 14.474 33.5202H12.0116C12.1339 32.6126 12.487 31.7516 13.0372 31.0194ZM12.0039 35.0009H14.4828C14.553 35.2631 14.6561 35.5153 14.7921 35.7435L13.0415 37.4929C12.4886 36.7644 12.1314 35.9065 12.0039 35.0009ZM16.5854 39.5648C15.683 39.4401 14.8279 39.0854 14.1022 38.5349L15.8428 36.7942C16.071 36.9281 16.3232 37.0257 16.5854 37.0937V39.5648ZM16.5854 31.3978C16.3192 31.466 16.0642 31.5724 15.8286 31.7137L14.0846 29.9687C14.8152 29.4143 15.6766 29.058 16.5854 28.9344V31.3978ZM18.0683 28.9344C18.9773 29.0576 19.8389 29.4144 20.5691 29.9698L18.8251 31.7137C18.5894 31.5724 18.3345 31.466 18.0683 31.3978V28.9344ZM18.0683 39.5637V37.0937C18.3315 37.0246 18.5816 36.927 18.8108 36.792L20.5526 38.5349C19.8251 39.0829 18.9702 39.437 18.0683 39.5637ZM21.6154 37.4995L19.8594 35.7413C19.9954 35.512 20.1084 35.2653 20.1786 34.9998H22.6388C22.5159 35.9065 22.1636 36.7669 21.6154 37.4995ZM20.1786 33.518C20.1102 33.2538 20.0058 33.0002 19.8682 32.7645L21.6154 31.0172C22.1562 31.7335 22.5126 32.5846 22.641 33.5158L20.1786 33.518ZM89.396 25.6855C88.2718 25.6854 87.1587 25.9067 86.12 26.3368C85.0814 26.7669 84.1377 27.3974 83.3427 28.1922C82.5478 28.9871 81.9172 29.9307 81.4869 30.9693C81.0567 32.0079 80.8353 33.121 80.8353 34.2452C80.8353 34.6115 80.8649 34.9691 80.9109 35.3223C81.4396 39.5418 85.0339 42.8071 89.3949 42.8071C93.8776 42.8071 97.5498 39.3608 97.9205 34.9746C97.9403 34.7322 97.9578 34.492 97.9578 34.243C97.96 29.5168 94.1266 25.6855 89.396 25.6855ZM85.1074 31.0194L86.8558 32.7667C86.7169 33.0018 86.6124 33.2555 86.5453 33.5202H84.083C84.2049 32.6127 84.5576 31.7517 85.1074 31.0194ZM84.0753 35.0009H86.5541C86.6243 35.2631 86.7274 35.5153 86.8634 35.7435L85.1129 37.4918C84.5603 36.7636 84.2031 35.9061 84.0753 35.0009ZM88.6567 39.5648C87.7544 39.4401 86.8993 39.0854 86.1735 38.5349L87.9142 36.7942C88.1423 36.9281 88.3946 37.0257 88.6567 37.0937V39.5648ZM88.6567 31.3978C88.3908 31.4658 88.1362 31.5722 87.901 31.7137L86.156 29.9687C86.8867 29.4144 87.748 29.0582 88.6567 28.9344V31.3978ZM90.1385 28.9344C91.0473 29.0575 91.9086 29.4142 92.6382 29.9698L90.8943 31.7137C90.6589 31.5726 90.4044 31.4662 90.1385 31.3978V28.9344ZM90.1385 39.5637V37.0937C90.4007 37.0246 90.6519 36.927 90.8811 36.792L92.6229 38.5349C91.8956 39.0833 91.0406 39.4374 90.1385 39.5637ZM93.6857 37.4995L91.9297 35.7413C92.0657 35.512 92.1786 35.2653 92.2488 34.9998H94.709C94.5871 35.9068 94.2348 36.7674 93.6857 37.4995ZM92.251 33.518C92.1827 33.2538 92.0782 33.0002 91.9406 32.7645L93.6879 31.0172C94.2286 31.7335 94.5851 32.5846 94.7145 33.5158L92.251 33.518Z" fill="#999999"/>
<path d="M107.626 22.9618L105.98 21.3901L105.984 16.4313C105.985 15.1302 105.503 13.875 104.631 12.9094L98.5494 6.17376V6.17047C98.5354 5.49226 98.2881 4.83959 97.8492 4.32237C97.4103 3.80515 96.8066 3.45496 96.1397 3.33078C88.9083 1.97181 66.4716 -1.54134 48.7129 3.22987C37.7414 6.17705 26.5866 12.1098 26.5866 12.1098C26.5866 12.1098 7.21669 14.5777 2.57493 20.6278C0.958205 22.7337 0.280367 25.4999 0.0346778 27.9919C-0.13421 29.6714 0.317689 31.3546 1.30504 32.7237C2.29239 34.0928 3.74685 35.0529 5.39377 35.4229L7.18489 35.8265C7.16953 35.7289 7.1465 35.6335 7.13443 35.5326C7.07697 35.1046 7.04729 34.6734 7.04559 34.2416C7.04559 28.5721 11.6588 23.9599 17.3283 23.9599C22.9989 23.9599 27.6122 28.5721 27.6122 34.2416C27.6122 34.5389 27.5924 34.8262 27.5683 35.1169C27.5385 35.4632 27.4905 35.8077 27.4246 36.149L79.3297 36.2543C79.2826 36.0152 79.2354 35.7772 79.2047 35.5326C79.1472 35.1046 79.1175 34.6734 79.1158 34.2416C79.1158 28.5721 83.7291 23.9599 89.3986 23.9599C95.0692 23.9599 99.6824 28.5721 99.6824 34.2416C99.6763 34.9317 99.6021 35.6194 99.4609 36.2949L100.169 36.296L103.122 34.6782C104.636 33.8493 105.909 32.6419 106.817 31.1739C107.725 29.706 108.237 28.0276 108.302 26.3028L108.362 24.7683C108.373 24.4323 108.314 24.0976 108.187 23.7863C108.06 23.4749 107.869 23.194 107.626 22.9618ZM36.7904 12.8074L37.5845 9.63426C37.5845 9.63426 49.6068 3.34504 69.7281 4.02946V13.4063L37.5023 15.9487C37.5023 15.9487 37.6756 13.9371 36.7904 12.8074ZM88.4268 11.9321L73.2741 13.1277V4.22689C78.257 4.58884 83.6721 5.37527 89.4841 6.77921C90.072 6.9207 90.5437 7.35724 90.7312 7.93198C90.9199 8.50672 90.797 9.13849 90.4055 9.59916L88.4268 11.9321Z" fill="#999999"/>
</svg>
