<svg width="30" height="30" viewBox="0 0 30 30" fill="none" xmlns="http://www.w3.org/2000/svg">
<path d="M29.2805 11.9694L16.4248 0.541408C15.6132 -0.180469 14.3891 -0.180469 13.5762 0.541408L0.719203 11.9694C0.261185 12.3765 0 12.9591 0 13.5712V19.1103C0.152676 19.0594 0.313388 19.0259 0.48212 19.0259H3.54637V17.8554H26.4531V19.5643H10.5533C10.7917 19.8375 10.9403 20.1897 10.9403 20.5795V20.6357H26.453V22.3393H10.9403V23.4107H26.453V30H28.8865C29.5013 30 29.9995 29.5018 29.9995 28.8871V13.5711C29.9995 12.9591 29.7372 12.3752 29.2805 11.9694ZM10.6028 9.4462C10.6028 9.07256 10.9055 8.76851 11.2805 8.76851H18.7201C19.0937 8.76851 19.3978 9.07119 19.3978 9.4462V10.5832C19.3978 10.9569 19.0951 11.2609 18.7201 11.2609H11.2805C10.9069 11.2609 10.6028 10.9582 10.6028 10.5832V9.4462ZM26.4529 16.7839H3.54623V16.0447C3.54623 15.2143 4.21586 14.5447 5.04087 14.5447H24.9586C25.7836 14.5447 26.4532 15.2143 26.4532 16.0447L26.4529 16.7839Z" fill="black"/>
<path d="M9.38722 20.0977H0.482288C0.215775 20.0977 0.000167847 20.3133 0.000167847 20.5798V29.518C0.000167847 29.7845 0.215792 30.0001 0.482288 30.0001H9.38722C9.65373 30.0001 9.86934 29.7845 9.86934 29.518V20.5798C9.86934 20.3133 9.65371 20.0977 9.38722 20.0977ZM4.75733 23.2074L3.67521 23.9146C3.50914 24.0217 3.2895 23.9039 3.2895 23.7056V21.1691H6.57877V23.7056C6.57877 23.9039 6.35913 24.0217 6.19841 23.9146L5.11629 23.2074C5.0038 23.1324 4.86447 23.1324 4.75733 23.2074ZM8.03051 28.7267H6.58007C6.28409 28.7267 6.04436 28.487 6.04436 28.191C6.04436 27.895 6.28409 27.6553 6.58007 27.6553H8.03051C8.32649 27.6553 8.56622 27.895 8.56622 28.191C8.56622 28.487 8.32649 28.7267 8.03051 28.7267ZM8.03051 27.0754H6.58007C6.28409 27.0754 6.04436 26.8356 6.04436 26.5397C6.04436 26.2437 6.28409 26.004 6.58007 26.004H8.03051C8.32649 26.004 8.56622 26.2437 8.56622 26.5397C8.56622 26.8356 8.32649 27.0754 8.03051 27.0754Z" fill="black"/>
</svg>
